<svg enable-background="new 0 0 800 264" viewBox="0 0 800 264" xmlns="http://www.w3.org/2000/svg"><g stroke-miterlimit="10" stroke-width="4"><path d="m408.6 4.9v29h29.9v63.5h-70.3v-92.5h40.4" fill="#fff" stroke="#404040" stroke-linejoin="round"/><path d="m408.6 4.9 29.9 29h-29.9z" fill="#4ed1a1" stroke="#404040" stroke-linecap="round" stroke-linejoin="round"/><path d="m187.5 208.5c0-12.4 28.2-22.4 63-22.4s63 10 63 22.4m-126 0v27.9c0 3 1.7 5.9 4.7 8.5 9.4 8.2 32 13.9 58.3 13.9 26.4 0 48.9-5.8 58.3-13.9 3-2.6 4.7-5.5 4.7-8.5v-27.9" fill="#b3e3ff" stroke="#404040"/><path d="m313.5 208.5c0 12.4-28.2 22.4-63 22.4s-63-10-63-22.4 28.2-22.4 63-22.4 63 10 63 22.4z" fill="#fff" stroke="#6693ed"/><path d="m187.5 180.6c0-12.4 28.2-22.4 63-22.4s63 10 63 22.4m-126 0v27.9c0 3 1.7 5.9 4.7 8.5 9.4 8.2 32 13.9 58.3 13.9 26.4 0 48.9-5.8 58.3-13.9 3-2.6 4.7-5.5 4.7-8.5v-27.9" fill="#b3e3ff" stroke="#404040"/><path d="m313.5 180.6c0 12.4-28.2 22.4-63 22.4s-63-10-63-22.4 28.2-22.4 63-22.4 63 10 63 22.4z" fill="#fff" stroke="#6693ed"/><path d="m187.5 152.7c0-12.4 28.2-22.4 63-22.4s63 10 63 22.4m-126 0v27.9c0 3 1.7 5.9 4.7 8.5 9.4 8.2 32 13.9 58.3 13.9 26.4 0 48.9-5.8 58.3-13.9 3-2.6 4.7-5.5 4.7-8.5v-27.9" fill="#b3e3ff" stroke="#404040"/><path d="m313.5 152.7c0 12.4-28.2 22.4-63 22.4s-63-10-63-22.4 28.2-22.4 63-22.4 63 10 63 22.4z" fill="#fff" stroke="#6693ed"/><g stroke="#404040"><path d="m187.5 124.8c0-12.4 28.2-22.4 63-22.4s63 10 63 22.4m-126 0v27.9c0 3 1.7 5.9 4.7 8.5 9.4 8.2 32 13.9 58.3 13.9 26.4 0 48.9-5.8 58.3-13.9 3-2.6 4.7-5.5 4.7-8.5v-27.9" fill="#b3e3ff"/><path d="m313.5 124.8c0 12.4-28.2 22.4-63 22.4s-63-10-63-22.4 28.2-22.4 63-22.4 63 10 63 22.4z" fill="#fff"/><path d="m335.6 185.6h142.8" fill="none" stroke-linecap="round" stroke-linejoin="round"/><path d="m542 160.6-10-13.5h-30.7v74.5h95.2v-61z" fill="#b3e3ff"/><path d="m517.3 174.6-16 47h95.2l16-47z" fill="#fff" stroke-linejoin="round"/><path d="m562.6 127.9c-7.3-43.5-45.2-76.7-90.8-76.7-2.9 0-5.7.1-8.6.4m7.2 11.3-10.5-11.2 11.2-10.5" fill="none" stroke-linecap="round" stroke-linejoin="round"/></g></g></svg>