<svg version="1.1" viewBox="0.0 0.0 823.5748031496063 714.9711286089239" fill="none" stroke="none" stroke-linecap="square" stroke-miterlimit="10" xmlns:xlink="http://www.w3.org/1999/xlink" xmlns="http://www.w3.org/2000/svg"><clipPath id="p.0"><path d="m0 0l823.5748 0l0 714.9711l-823.5748 0l0 -714.9711z" clip-rule="nonzero"/></clipPath><g clip-path="url(#p.0)"><path fill="#000000" fill-opacity="0.0" d="m0 0l823.5748 0l0 714.9711l-823.5748 0z" fill-rule="evenodd"/><path fill="#cfe2f3" d="m130.19118 87.485565l133.67644 0l0 0c17.511963 0 31.708252 20.71067 31.708252 46.258575c0 25.547913 -14.196289 46.25859 -31.708252 46.25859l-133.67644 0l0 0c-17.511978 0 -31.708237 -20.710678 -31.708237 -46.25859c0 -25.547905 14.196259 -46.258575 31.708237 -46.258575z" fill-rule="evenodd"/><path stroke="#000000" stroke-width="1.0" stroke-linejoin="round" stroke-linecap="butt" d="m130.19118 87.485565l133.67644 0l0 0c17.511963 0 31.708252 20.71067 31.708252 46.258575c0 25.547913 -14.196289 46.25859 -31.708252 46.25859l-133.67644 0l0 0c-17.511978 0 -31.708237 -20.710678 -31.708237 -46.25859c0 -25.547905 14.196259 -46.258575 31.708237 -46.258575z" fill-rule="evenodd"/><path fill="#000000" d="m178.96689 135.53415q0.8125 -1.578125 1.0625 -6.09375l-2.125 0q0.25 4.515625 1.0625 6.09375zm3.953125 -6.09375q-0.171875 5.453125 -2.125 8.828125q1.21875 1.53125 4.3125 3.125l-1.765625 2.96875q-3.515625 -2.3125 -4.421875 -3.640625q-1.8125 2.046875 -6.859375 4.046875l-1.375 -2.78125q5.25 -2.109375 6.5625 -3.8125q-1.5 -2.90625 -1.4375 -4.609375q0.125 0.125 -0.78125 1.328125l-2.375 -1.8125q3.015625 -4.40625 3.625 -10.953133l2.609375 0.625q1.609375 1.078125 -0.046875 1.453125q-0.234375 1.375 -0.53125 2.453125l6.21875 0l0 2.7812576l-1.609375 0zm-8.84375 -4.5468826q-0.484375 1.203125 -1.546875 2.53125l-2.328125 -1.296875q1.0 -1.640625 1.859375 -3.6875l2.234375 1.125q1.140625 1.140625 -0.21875 1.328125zm-5.609375 12.453133q0.734375 0.21875 1.46875 0.546875q0.421875 -0.484375 0.6875 -1.421875l-1.734375 0q-0.25 0.5625 -0.421875 0.875zm-1.890625 3.328125l-2.390625 -1.34375q1.21875 -1.828125 1.765625 -2.859375l-3.234375 0l0 -2.5l4.3125 0q0.40625 -0.90625 0.828125 -2.171875l2.375 0.625q1.171875 1.1875 -0.21875 1.375l-0.078125 0.171875l5.03125 0l0 2.5l-1.515625 0q-0.390625 1.59375 -1.03125 2.484375q0.3125 0.140625 1.6875 0.96875l-1.34375 2.375q-1.4375 -0.921875 -1.9375 -1.140625q-2.3125 2.3125 -7.0 2.953125l-1.03125 -2.671875q4.15625 -0.421875 5.40625 -1.5q-0.296875 -0.125 -0.9375 -0.359375l-0.6875 1.09375zm1.203125 -18.796883l2.03125 0q2.046875 0.25 0.5625 1.3125l0 3.28125l4.78125 0l0 2.5000076l-3.359375 0q0.265625 0.328125 2.828125 1.65625l-1.59375 2.453125q-2.078125 -1.21875 -2.65625 -1.921875l0 1.375l-2.59375 0l0 -0.859375q-0.671875 0.84375 -3.75 2.59375l-1.875 -2.296875q3.375 -1.75 4.46875 -3.0l-3.71875 0l0 -2.5000076l4.875 0l0 -4.59375zm-2.328125 5.5625q-0.875 -1.859375 -2.28125 -3.28125l2.375 -1.484375q1.46875 1.46875 2.234375 3.15625l-2.328125 1.609375zm28.953125 -5.0l13.28125 0l0 6.9062576l-4.21875 0l0 1.71875l5.25 0l0 2.5l-5.25 0l0 1.8125l3.65625 0l0 8.78125l-2.59375 0l0 -1.03125l-4.625 0l0 1.3125l-2.59375 0l0 -9.0625l3.28125 0l0 -1.8125l-3.59375 0l0 1.0q0 6.484375 -3.21875 9.8125l-2.109375 -2.125q2.734375 -2.734375 2.734375 -8.0625l0 -11.750008zm10.125 15.437508l-4.625 0l0 2.75l4.625 0l0 -2.75zm-3.9375 -6.8125l0 -1.71875l-3.59375 0l0 1.71875l3.59375 0zm-3.59375 -4.2187576l7.8125 0l0 -1.90625l-7.8125 0l0 1.90625zm-2.390625 7.8750076l-2.484375 0.859375l0 6.953125q0 2.0 -2.0 2.0l-2.296875 0l-0.4375 -2.78125l1.984375 0q0 0.125 -0.125 0.125l0 -5.40625l-1.015625 0.34375q-0.1875 1.34375 -1.359375 0.171875l-0.84375 -2.890625l3.21875 -0.6875l0 -3.96875l-2.625 0l0 -2.7812576l2.625 0l0 -4.875l2.3125 0q2.046875 0.25 0.5625 1.3125l0 3.5625l2.4375 0l0 2.7812576l-2.4375 0l0 3.328125l2.171875 -0.625l0.3125 2.578125zm15.75 -1.625q4.234375 -3.84375 5.328125 -10.593758l2.609375 0.703125q1.765625 0.5 0.046875 1.546875q-0.171875 1.21875 -1.109375 3.5156326l0.125 0.03125q1.046875 0.796875 -0.015625 1.40625l0 14.078125l-2.875 0l0 -10.484375q-0.234375 0.375 -2.296875 2.296875l-1.8125 -2.5zm22.046875 4.25l-0.34375 2.625q-0.4375 3.15625 -3.21875 3.15625l-6.28125 0q-2.1875 0 -2.1875 -2.09375l0 -18.125008l2.3125 0q2.546875 0.25 0.5625 1.359375l0 5.9062576q2.8125 -1.109375 6.140625 -3.6093826l1.6875 2.0156326q1.65625 1.421875 -0.703125 1.421875q-3.953125 2.015625 -7.125 3.3125l0 6.5q0 0.25 0.15625 0.25l4.96875 0q0.578125 0 0.625 -0.484375l0.234375 -2.796875l3.171875 0.5625z" fill-rule="nonzero"/><path fill="#d9d2e9" d="m559.5508 87.485565l133.67639 0l0 0c17.512024 0 31.708252 20.71067 31.708252 46.258575c0 25.547913 -14.196228 46.25859 -31.708252 46.25859l-133.67639 0l0 0c-17.512024 0 -31.708252 -20.710678 -31.708252 -46.25859c0 -25.547905 14.196228 -46.258575 31.708252 -46.258575z" fill-rule="evenodd"/><path stroke="#000000" stroke-width="1.0" stroke-linejoin="round" stroke-linecap="butt" d="m559.5508 87.485565l133.67639 0l0 0c17.512024 0 31.708252 20.71067 31.708252 46.258575c0 25.547913 -14.196228 46.25859 -31.708252 46.25859l-133.67639 0l0 0c-17.512024 0 -31.708252 -20.710678 -31.708252 -46.25859c0 -25.547905 14.196228 -46.258575 31.708252 -46.258575z" fill-rule="evenodd"/><path fill="#000000" d="m591.7015 140.3154l0 -2.5l7.03125 0l0 -0.40625l-1.09375 0l-2.0 0l0 -9.906258l5.96875 0l-0.5625 -0.359375q2.25 -2.125 3.296875 -5.71875l2.390625 0.953125q2.1875 0.828125 -0.125 1.453125l0.09375 -0.171875l6.90625 0l0 2.5l-3.921875 0l0.734375 1.234375l-2.9375 0.7343826l-0.890625 -1.9687576l-1.0625 0q-0.4375 0.8125 -0.859375 1.34375l5.46875 0l0 9.906258l-2.53125 0l0 0.40625l6.46875 0l0 2.5l-6.46875 0l0 4.03125l-2.875 0l0 -4.03125l-3.359375 0q-0.265625 3.203125 -7.171875 4.484375l-0.875 -2.78125q4.84375 -0.59375 5.09375 -1.703125l-6.71875 0zm6.40625 -17.843758q2.1875 0.828125 -0.109375 1.453125l0.078125 -0.234375l5.21875 -0.03125l0 2.5l-2.578125 0l0.6875 1.265625l-3.078125 0.5937576l-0.578125 -1.8593826l-0.75 0q-1.125 1.9843826 -3.140625 3.6406326l-2.109375 -2.1093826q2.921875 -2.5 4.078125 -6.171875l2.28125 0.953125zm9.4375 7.5312576l-9.3125 0l0 0.21875l9.3125 0l0 -0.21875zm0 2.5625l0 -0.21875l-9.3125 0l0 0.21875l9.3125 0zm0 2.34375l0 -0.21875l-9.3125 0l0 0.21875l9.3125 0zm-2.8125 2.90625l0 -0.40625l-3.125 0l0 0.40625l3.125 0zm27.375 1.484375l-1.890625 -2.390625l2.359375 -1.796875q3.53125 3.84375 5.46875 7.5l-2.8125 1.875q-0.90625 -1.796875 -1.359375 -2.453125l-10.75 1.046875q-0.171875 1.375 -1.359375 0.1875l-0.96875 -3.28125l3.265625 -0.09375q1.625 -2.828125 2.65625 -5.484375l-5.109375 0l0 -2.78125l6.1875 0l0 -2.84375l-4.59375 0l0 -2.7812576l4.59375 0l0 -3.75l2.609375 0q2.171875 0.4375 0.546875 1.515625l0 2.234375l5.0625 0l0 2.7812576l-5.0625 0l0 2.84375l6.84375 0l0 2.78125l-7.484375 0q-1.390625 3.015625 -2.828125 5.296875l4.625 -0.40625zm-9.734375 -3.265625q-2.0625 4.75 -3.40625 7.34375q0.203125 1.671875 -1.265625 0.6875l-2.296875 -1.71875q2.0625 -2.609375 4.40625 -7.734375l2.5625 1.421875zm-2.59375 -1.75q-1.75 -1.875 -4.015625 -3.5625l1.921875 -2.34375q2.796875 1.78125 4.125 3.484375l-2.03125 2.421875zm1.0625 -5.203125q-2.046875 -1.8125076 -4.0625 -3.2343826l1.9375 -2.34375q2.390625 1.484375 4.171875 3.265625l-2.046875 2.3125076zm18.875 4.015625q4.234375 -3.84375 5.328125 -10.593758l2.609375 0.703125q1.765625 0.5 0.046875 1.546875q-0.171875 1.21875 -1.109375 3.5156326l0.125 0.03125q1.046875 0.796875 -0.015625 1.40625l0 14.078125l-2.875 0l0 -10.484375q-0.234375 0.375 -2.296875 2.296875l-1.8125 -2.5zm22.046875 4.25l-0.34375 2.625q-0.4375 3.15625 -3.21875 3.15625l-6.28125 0q-2.1875 0 -2.1875 -2.09375l0 -18.125008l2.3125 0q2.546875 0.25 0.5625 1.359375l0 5.9062576q2.8125 -1.109375 6.140625 -3.6093826l1.6875 2.0156326q1.65625 1.421875 -0.703125 1.421875q-3.953125 2.015625 -7.125 3.3125l0 6.5q0 0.25 0.15625 0.25l4.96875 0q0.578125 0 0.625 -0.484375l0.234375 -2.796875l3.171875 0.5625z" fill-rule="nonzero"/><path fill="#d9ead3" d="m344.9497 313.74014l133.67645 0l0 0c17.511963 0 31.708221 20.710693 31.708221 46.258606c0 25.547913 -14.196259 46.258575 -31.708221 46.258575l-133.67645 0l0 0c-17.511963 0 -31.708252 -20.710663 -31.708252 -46.258575c0 -25.547913 14.196289 -46.258606 31.708252 -46.258606z" fill-rule="evenodd"/><path stroke="#000000" stroke-width="1.0" stroke-linejoin="round" stroke-linecap="butt" d="m344.9497 313.74014l133.67645 0l0 0c17.511963 0 31.708221 20.710693 31.708221 46.258606c0 25.547913 -14.196259 46.258575 -31.708221 46.258575l-133.67645 0l0 0c-17.511963 0 -31.708252 -20.710663 -31.708252 -46.258575c0 -25.547913 14.196289 -46.258606 31.708252 -46.258606z" fill-rule="evenodd"/><path fill="#000000" d="m396.03793 353.9606q-0.875 1.046875 -1.46875 2.109375q-0.59375 1.046875 -0.6875 1.25l2.09375 0q1.9375 0 3.125 -0.171875l0 3.015625q-1.28125 -0.15625 -2.9375 -0.15625l-13.65625 0q0 7.125 -4.203125 11.203125q-0.625 -1.234375 -2.03125 -2.125q2.734375 -3.046875 3.09375 -5.890625q0.359375 -2.859375 0.140625 -5.875l11.28125 0q1.0625 -2.203125 1.765625 -4.890625q1.75 0.8125 3.484375 1.53125zm-6.265625 -6.28125q0.3125 1.109375 0.78125 3.078125l4.296875 0q1.671875 0 3.6875 -0.125l0 2.84375q-2.015625 -0.125 -3.40625 -0.125l-11.34375 0q-1.390625 0 -4.0625 0.109375l0 -2.8125q2.765625 0.109375 3.40625 0.109375l4.25 0q-0.140625 -0.578125 -0.78125 -2.375q1.671875 -0.421875 3.171875 -0.703125zm-4.4375 4.890625q1.40625 1.890625 2.71875 4.390625q-1.421875 0.5625 -2.921875 1.375q-1.03125 -2.40625 -2.46875 -4.21875q1.4375 -0.859375 2.671875 -1.546875z" fill-rule="nonzero"/><path fill="#000000" d="m415.75668 358.19498l-7.28125 0.03125l0 0.65625l-2.875 0l0 -9.71875l13.0 0l0 9.53125l-2.875 0l0.03125 -0.5zm-7.28125 -2.75l7.25 0l0 -3.5l-7.25 0l0 3.5zm10.90625 13.375l-3.5 0l0 1.6875l-2.875 0l0 -10.9375l9.25 0l0 10.65625l-2.875 0l0 -1.40625zm-3.5 -6.46875l0 3.6875l3.5 0l0 -3.6875l-3.5 0zm-10.6875 0l0 3.6875l3.5 0l0 -3.6875l-3.5 0zm3.5 6.46875l-3.5 0l0 1.6875l-2.875 0l0 -10.9375l9.25 0l0 10.65625l-2.875 0l0 -1.40625zm16.421875 -9.46875q4.234375 -3.84375 5.328125 -10.59375l2.609375 0.703125q1.765625 0.5 0.046875 1.546875q-0.171875 1.21875 -1.109375 3.515625l0.125 0.03125q1.046875 0.796875 -0.015625 1.40625l0 14.078125l-2.875 0l0 -10.484375q-0.234375 0.375 -2.296875 2.296875l-1.8125 -2.5zm22.046875 4.25l-0.34375 2.625q-0.4375 3.15625 -3.21875 3.15625l-6.28125 0q-2.1875 0 -2.1875 -2.09375l0 -18.125l2.3125 0q2.546875 0.25 0.5625 1.359375l0 5.90625q2.8125 -1.109375 6.140625 -3.609375l1.6875 2.015625q1.65625 1.421875 -0.703125 1.421875q-3.953125 2.015625 -7.125 3.3125l0 6.5q0 0.25 0.15625 0.25l4.96875 0q0.578125 0 0.625 -0.484375l0.234375 -2.796875l3.171875 0.5625z" fill-rule="nonzero"/><path fill="#d0e0e3" d="m344.9497 525.4593l133.67645 0l0 0c17.511963 0 31.708221 20.710693 31.708221 46.258606c0 25.547913 -14.196259 46.258606 -31.708221 46.258606l-133.67645 0l0 0c-17.511963 0 -31.708252 -20.710693 -31.708252 -46.258606c0 -25.547913 14.196289 -46.258606 31.708252 -46.258606z" fill-rule="evenodd"/><path stroke="#000000" stroke-width="1.0" stroke-linejoin="round" stroke-linecap="butt" d="m344.9497 525.4593l133.67645 0l0 0c17.511963 0 31.708221 20.710693 31.708221 46.258606c0 25.547913 -14.196259 46.258606 -31.708221 46.258606l-133.67645 0l0 0c-17.511963 0 -31.708252 -20.710693 -31.708252 -46.258606c0 -25.547913 14.196289 -46.258606 31.708252 -46.258606z" fill-rule="evenodd"/><path fill="#000000" d="m407.19418 574.4454l-5.09375 0l0 7.125l-2.875 0l0 -7.125l-4.640625 0q-0.171875 4.578125 -3.375 8.0l-2.203125 -2.203125q2.71875 -3.015625 2.71875 -6.578125l0 -12.5l18.34375 0l0 18.40625q0 2.0 -2.0 2.0l-3.03125 0l-0.6875 -3.0625l2.96875 0q0 0.125 -0.125 0.125l0 -4.1875zm-12.59375 -5.25l0 2.46875l4.625 0l0 -2.46875l-4.625 0zm0 -5.25l0 2.46875l4.625 0l0 -2.46875l-4.625 0zm7.5 5.25l0 2.46875l5.09375 0l0 -2.46875l-5.09375 0zm0 -5.25l0 2.46875l5.09375 0l0 -2.46875l-5.09375 0z" fill-rule="nonzero"/><path fill="#000000" d="m434.4598 564.0704q-0.109375 2.765625 -0.109375 5.65625q0 2.796875 0.125 4.90625l-3.09375 0l0 -1.40625l-12.09375 0q-0.328125 2.625 -0.90625 4.171875q-0.578125 1.546875 -1.25 2.75q-0.671875 1.1875 -1.75 2.671875q-1.28125 -1.015625 -3.0625 -1.625q2.359375 -2.46875 3.03125 -4.125q0.671875 -1.671875 0.890625 -3.15625q0.234375 -1.5 0.234375 -3.25q0 -1.78125 -0.109375 -6.59375l18.09375 0zm-3.171875 6.46875l0 -3.78125l-12.03125 0l0 3.78125l12.03125 0zm-6.03125 -11.25q1.359375 2.734375 2.03125 4.609375q-1.6875 0.390625 -2.8125 1.03125q-0.828125 -2.5 -1.953125 -4.5q1.46875 -0.453125 2.734375 -1.140625z" fill-rule="nonzero"/><path fill="#000000" fill-opacity="0.0" d="m295.57587 133.74414l232.25195 0" fill-rule="evenodd"/><path stroke="#000000" stroke-width="3.0" stroke-linejoin="round" stroke-linecap="butt" d="m313.57584 133.74414l196.25201 0" fill-rule="evenodd"/><path fill="#000000" stroke="#000000" stroke-width="3.0" stroke-linecap="butt" d="m313.57584 128.78896l-13.614288 4.955185l13.614288 4.9552z" fill-rule="evenodd"/><path fill="#000000" stroke="#000000" stroke-width="3.0" stroke-linecap="butt" d="m509.82785 138.69934l13.614288 -4.9552l-13.614288 -4.955185z" fill-rule="evenodd"/><path fill="#000000" fill-opacity="0.0" d="m197.0294 180.00273l116.220474 179.99998" fill-rule="evenodd"/><path stroke="#000000" stroke-width="3.0" stroke-linejoin="round" stroke-linecap="butt" d="m206.7931 195.12457l96.69307 149.75635" fill-rule="evenodd"/><path fill="#000000" stroke="#000000" stroke-width="3.0" stroke-linecap="butt" d="m210.95598 192.43672l-11.547638 -8.7495575l3.2218933 14.125244z" fill-rule="evenodd"/><path fill="#000000" stroke="#000000" stroke-width="3.0" stroke-linecap="butt" d="m299.3233 347.56876l11.547638 8.749542l-3.2218933 -14.125214z" fill-rule="evenodd"/><path fill="#000000" fill-opacity="0.0" d="m626.389 180.00273l-116.06299 179.99998" fill-rule="evenodd"/><path stroke="#000000" stroke-width="3.0" stroke-linejoin="round" stroke-linecap="butt" d="m616.63464 195.1306l-96.55432 149.74428" fill-rule="evenodd"/><path fill="#000000" stroke="#000000" stroke-width="3.0" stroke-linecap="butt" d="m620.79913 197.81586l3.2131958 -14.127213l-11.542236 8.756683z" fill-rule="evenodd"/><path fill="#000000" stroke="#000000" stroke-width="3.0" stroke-linecap="butt" d="m515.91583 342.1896l-3.2131958 14.127228l11.542236 -8.756683z" fill-rule="evenodd"/><path fill="#000000" fill-opacity="0.0" d="m411.78793 406.2467l0 119.212585" fill-rule="evenodd"/><path stroke="#000000" stroke-width="3.0" stroke-linejoin="round" stroke-linecap="butt" d="m411.78793 406.2467l0 101.212616" fill-rule="evenodd"/><path fill="#000000" stroke="#000000" stroke-width="3.0" stroke-linecap="butt" d="m406.83273 507.45932l4.9552 13.614288l4.9552 -13.614288z" fill-rule="evenodd"/><path fill="#000000" fill-opacity="0.0" d="m510.33438 571.7179c27.925995 0 55.844086 -52.92914 55.85196 -105.85828c0.007873535 -52.929108 -27.89447 -105.858246 -55.78897 -105.858246" fill-rule="evenodd"/><path stroke="#000000" stroke-width="3.0" stroke-linejoin="round" stroke-linecap="butt" d="m510.3344 571.7179c27.925964 0 55.844055 -52.92914 55.85193 -105.85828c0.003967285 -26.46457 -6.9696655 -52.92914 -17.431091 -72.77756c-5.230713 -9.924225 -11.333374 -18.194397 -17.871765 -23.98352c-0.8173218 -0.7236328 -1.6414185 -1.4085083 -2.4714355 -2.053009c-0.20751953 -0.1611023 -0.41540527 -0.31973267 -0.6236572 -0.47576904l-0.49420166 -0.36364746" fill-rule="evenodd"/><path fill="#000000" stroke="#000000" stroke-width="3.0" stroke-linecap="butt" d="m529.00226 361.55463l-14.487976 -0.04147339l11.071777 9.344452z" fill-rule="evenodd"/><path fill="#000000" fill-opacity="0.0" d="m35.947506 251.6378l744.9449 0" fill-rule="evenodd"/><path stroke="#666666" stroke-width="3.0" stroke-linejoin="round" stroke-linecap="butt" stroke-dasharray="12.0,9.0" d="m35.947506 251.6378l744.9449 0" fill-rule="evenodd"/><path fill="#cfe2f3" d="m23.96588 19.971128l123.48294 0l0 0l52.92125 0l35.280853 0l0 32.041992l0 0l0 13.732285l0 9.154854l-35.280853 0l14.319794 11.974007l-67.24104 -11.974007l-123.48294 0l0 -9.154854l0 -13.732285l0 0z" fill-rule="evenodd"/><path stroke="#000000" stroke-width="1.0" stroke-linejoin="round" stroke-linecap="butt" d="m23.96588 19.971128l123.48294 0l0 0l52.92125 0l35.280853 0l0 32.041992l0 0l0 13.732285l0 9.154854l-35.280853 0l14.319794 11.974007l-67.24104 -11.974007l-123.48294 0l0 -9.154854l0 -13.732285l0 0z" fill-rule="evenodd"/><path fill="#000000" d="m50.684628 40.12132q-2.71875 -2.171875 -3.375 -3.609375q-0.640625 2.171875 -3.5 4.015625l-1.34375 -1.796875q3.203125 -2.421875 3.390625 -5.25l-1.109375 0q-0.640625 3.984375 -4.640625 6.828125l-1.296875 -1.65625q2.25 -1.59375 2.75 -2.578125l-0.78125 -0.703125q-0.046875 0.078125 -1.015625 1.28125l-1.421875 -1.546875q1.921875 -2.25 2.296875 -7.640625l1.78125 0.1875q1.734375 0.53125 0.125 1.0625l-0.0625 0.5l2.765625 0q0 1.703125 -0.125 2.296875l0.765625 0l0 -4.0l1.8125 0q1.625 0.171875 0.453125 1.03125l0 2.96875l3.1875 0l0 1.96875l-3.109375 0q0.40625 2.28125 3.671875 4.625l-1.21875 2.015625zm-8.265625 4.546875q0.203125 -2.140625 -0.15625 -4.359375l1.96875 -0.125q0.71875 1.96875 0.546875 4.25l-2.359375 0.234375zm-0.390625 -4.015625q-0.421875 2.46875 -1.8125 4.484375l-1.90625 -1.25q1.21875 -1.765625 1.828125 -4.046875l1.890625 0.8125zm0.421875 -6.203125q-0.03125 0.046875 0.109375 -0.515625l-0.96875 -0.625l-0.140625 0.390625l1.0 0.75zm-6.28125 -2.859375q1.6875 0.234375 0.328125 1.046875q0.078125 2.578125 -0.609375 5.171875l-1.859375 -1.28125q0.578125 -2.375 0.484375 -5.234375l1.65625 0.296875zm3.375 -1.4375l0.84375 1.578125q0.765625 1.53125 -0.515625 1.0l-1.375 1.0625l0 5.03125q0.875 0.609375 1.703125 2.078125l-1.296875 2.0625q-0.953125 -1.609375 -0.921875 -1.578125q-0.328125 1.921875 -2.421875 4.015625l-1.453125 -1.78125q2.34375 -2.453125 2.34375 -5.5625l0 -10.546875l1.59375 0q1.625 0.171875 0.453125 1.03125l0 2.640625l1.046875 -1.03125zm9.625 -1.828125q0.953125 0.625 1.953125 2.125l-1.859375 1.25q-0.359375 -1.0625 -1.6875 -2.296875l1.59375 -1.078125zm-6.96875 2.859375l-0.09375 0.4375l0.9375 0.5q0.015625 -0.125 0.125 -0.9375l-0.96875 0zm7.421875 13.40625q-0.875 -2.234375 -2.34375 -4.078125l1.90625 -0.84375q1.578125 1.578125 2.65625 3.953125l-2.21875 0.96875zm-2.765625 -4.515625q0.90625 1.703125 1.453125 3.953125l-2.359375 0.4375q-0.34375 -2.203125 -1.109375 -4.03125l2.015625 -0.359375zm5.875 0.640625q3.296875 -2.59375 3.921875 -4.640625l-3.28125 0l0 -2.1875l3.421875 0l0 -6.609375l1.828125 0q1.578125 0.203125 0.4375 1.046875l0 5.5625l3.046875 0l0 2.1875l-3.046875 0l0 0.359375q1.71875 1.03125 3.140625 2.625l-1.328125 2.203125q-1.5 -1.796875 -1.8125 -2.03125l0 5.765625l-2.265625 0l0 -4.578125q-0.265625 0.5 -2.671875 2.453125l-1.390625 -2.15625zm6.015625 -7.421875q0.875 -1.96875 1.65625 -4.703125l2.015625 0.671875q1.3125 1.03125 -0.0625 1.03125q-0.65625 1.96875 -1.484375 3.90625l-2.125 -0.90625zm-3.390625 -4.265625q1.234375 2.140625 1.6875 4.15625l-2.203125 0.890625q-0.484375 -1.875 -1.609375 -4.15625l2.125 -0.890625zm12.671879 -1.515625q1.625 0.171875 0.453125 1.03125l0 8.71875l1.875 -0.484375l0.6875 2.328125l-2.5625 0.53125l0 5.359375l-2.265625 0l0 -4.8125l-3.9062538 0.875l-0.546875 -2.328125l4.453129 -0.90625l0 -10.3125l1.8125 0zm-4.328129 2.015625q1.7500038 1.109375 2.8281288 2.28125l-1.515625 1.953125q-0.96875 -0.96875 -2.7343788 -2.390625l1.421875 -1.84375zm-0.234375 4.09375q1.4531288 0.859375 2.8437538 2.265625l-1.546875 1.96875q-1.1718788 -1.28125 -2.7187538 -2.390625l1.421875 -1.84375z" fill-rule="nonzero"/><path fill="#000000" d="m78.680435 34.449444q-0.59375 0.734375 -1.046875 1.109375l-0.734375 -1.265625q2.21875 -2.296875 3.484375 -6.296875l1.328125 0.140625q0.234375 0.21875 -0.140625 0.453125l-0.21875 0.515625l1.84375 0l0.296875 -0.375l1.34375 0.890625l-0.375 0.453125l-1.265625 2.375l2.015625 0l0 11.359375q0 1.25 -1.125 1.25l-1.625 0l-0.296875 -1.40625l1.484375 0q0.296875 0 0.296875 -0.296875l0 -3.34375l-4.015625 0q0 3.046875 -1.546875 4.90625l-1.125 -0.890625q1.421875 -1.5625 1.421875 -4.90625l0 -4.671875zm10.984375 -1.40625l1.484375 0q0.515625 0 0.59375 -0.453125l0.21875 -2.515625l-2.234375 0q-0.296875 3.484375 -3.484375 4.8125l-0.59375 -1.25q2.59375 -1.046875 2.75 -3.5625l-2.375 0l0 -1.1875l7.34375 0l-0.375 4.296875q-0.0625 1.265625 -1.25 1.265625l-1.9375 0l-0.140625 -1.40625zm1.109375 8.453125l0 3.5l-1.265625 0l0 -3.5l-3.640625 0l0 -1.40625l3.640625 0l0 -1.703125l-1.625 0l-0.828125 1.328125l-1.109375 -0.8125q1.1875 -1.5625 1.484375 -3.5625l1.34375 0.21875q0.21875 0.21875 -0.15625 0.453125l-0.296875 0.953125l1.1875 0l0 -1.84375l1.1875 0q0.59375 0.0625 0.078125 0.4375l0 1.40625l2.59375 0l0 1.421875l-2.59375 0l0 1.703125l3.265625 0l0 1.40625l-3.265625 0zm-9.796875 -11.203125q-0.296875 0.8125 -1.046875 2.15625l2.015625 0l0.953125 -2.15625l-1.921875 0zm1.484375 8.53125l1.484375 0l0 -2.078125l-1.484375 0l0 2.078125zm-1.046875 0l0 -2.078125l-1.484375 0l0 2.078125l1.484375 0zm-1.484375 -5.1875l0 1.921875l1.484375 0l0 -1.921875l-1.484375 0zm2.53125 0l0 1.921875l1.484375 0l0 -1.921875l-1.484375 0zm29.53125 -4.015625q0.296875 0.671875 -0.4375 0.375q-2.828125 0.59375 -5.9375 0.734375l0 3.125l7.421875 0l0 1.40625l-2.890625 0l0 9.578125l-1.484375 0l0 -9.578125l-3.046875 0l0 3.34375q0 4.234375 -2.53125 6.390625l-0.953125 -1.421875q2.0 -1.859375 2.0 -4.890625l0 -9.5l1.484375 0.359375q3.265625 -0.296875 5.5625 -1.328125l0.8125 1.40625zm-16.03125 10.25q2.75 -3.203125 3.421875 -6.765625l-2.828125 0l0 -1.40625l2.828125 0l0 -3.78125l1.40625 0q0.59375 0.078125 0.078125 0.4375l0 3.34375l2.75 0l0 1.40625l-2.75 0l0 2.234375q1.5625 0.671875 2.75 1.5625l-0.671875 1.484375q-0.96875 -0.671875 -2.078125 -1.421875l0 7.875l-1.484375 0l0 -7.640625q-1.046875 2.671875 -2.53125 4.078125l-0.890625 -1.40625zm23.75 5.265625q-1.78125 -2.0 -3.703125 -3.265625l1.109375 -1.484375q2.375 1.40625 3.9375 3.1875l-1.34375 1.5625zm12.9921875 -0.59375l0 -4.671875l-3.703125 1.328125q-0.234375 0.75 -0.53125 0.15625l-0.734375 -1.484375l1.484375 -0.453125l0 -9.203125l1.40625 0q0.59375 0.078125 0.078125 0.453125l0 8.3125l2.0 -0.671875l0 -9.875l1.40625 0q0.59375 0.078125 0.078125 0.453125l0 15.65625l-1.484375 0zm6.984375 -5.71875q1.25 -2.15625 1.625 -4.96875l-3.265625 0q0.375 2.96875 1.640625 4.96875zm-5.125 -2.21875q2.453125 -2.828125 3.40625 -8.3125l1.1875 0.21875q0.890625 0.21875 0.078125 0.515625q-0.296875 1.34375 -0.890625 3.421875l6.15625 0l0 1.40625l-1.78125 0q-0.59375 3.703125 -2.140625 6.15625q1.625 1.640625 4.0 2.671875l-0.8125 1.484375q-2.296875 -1.109375 -4.078125 -2.890625q-1.78125 2.078125 -4.234375 3.125l-0.8125 -1.34375q2.8125 -1.1875 4.15625 -2.96875q-1.1875 -1.859375 -1.859375 -4.375q-0.8125 1.328125 -1.34375 1.84375l-1.03125 -0.953125zm17.59375 -7.875q-0.234375 0.671875 -0.828125 1.265625l3.640625 0q0.515625 -1.1875 0.75 -1.9375l1.484375 0.296875q0.296875 0.296875 -0.234375 0.375l-0.59375 1.265625l5.9375 0l0 1.1875l-6.15625 0l0 0.96875l4.96875 0l0 1.1875l-4.96875 0l0 0.953125l4.96875 0l0 1.1875l-4.96875 0l0 1.125l6.6875 0l0 1.1875l-6.6875 0l0 1.109375l7.28125 0l0 1.40625l-5.796875 0q2.375 1.703125 6.09375 2.53125l-0.53125 1.484375q-4.15625 -1.046875 -7.046875 -3.71875l0 4.390625l-1.484375 0l0 -4.3125q-2.296875 2.375 -7.34375 3.859375l-0.515625 -1.40625q3.78125 -0.96875 6.375 -2.828125l-5.9375 0l0 -1.40625l7.421875 0l0 -1.109375l-2.59375 0l-2.59375 0l0 -5.28125q-0.671875 0.75 -1.640625 1.484375l-0.8125 -1.03125q2.8125 -2.296875 3.9375 -5.046875l1.40625 0.4375q0.296875 0.296875 -0.21875 0.375zm-1.421875 6.75l0 1.125l3.9375 0l0 -1.125l-3.9375 0zm0 -2.140625l0 0.953125l3.9375 0l0 -0.953125l-3.9375 0zm0 -2.15625l0 0.96875l3.9375 0l0 -0.96875l-3.9375 0zm19.59375 13.953125q-1.78125 -2.0 -3.703125 -3.265625l1.109375 -1.484375q2.375 1.40625 3.9375 3.1875l-1.34375 1.5625zm10.9140625 -12.171875l0 -4.671875l11.28125 0l0 4.671875l-11.28125 0zm-2.515625 2.078125l0 -1.1875l16.390625 0l0 1.1875l-16.390625 0zm8.828125 5.484375l0 0.828125l5.421875 0l0 1.1875l-5.421875 0l0 0.890625l7.796875 0l0 1.1875l-16.859375 0l0 -1.1875l7.796875 0l0 -0.890625l-5.484375 0l0 -1.1875l5.484375 0l0 -0.828125l-2.515625 0l-2.53125 0l0 -4.59375l11.28125 0l0 4.59375l-4.96875 0zm3.703125 -2.734375l0 -0.96875l-3.703125 0l0 0.96875l3.703125 0zm-3.703125 1.84375l3.703125 0l0 -0.953125l-3.703125 0l0 0.953125zm-5.046875 -9.5l8.75 0l0 -0.953125l-8.75 0l0 0.953125zm0 1.9375l8.75 0l0 -1.046875l-8.75 0l0 1.046875zm0 5.71875l3.78125 0l0 -0.96875l-3.78125 0l0 0.96875zm0 1.84375l3.78125 0l0 -0.953125l-3.78125 0l0 0.953125zm15.0625 -3.109375q3.1875 -2.890625 4.015625 -7.9375l1.625 0.4375q0.515625 0.15625 -0.21875 0.59375q-0.15625 1.109375 -1.046875 3.265625l0.453125 0.15625q0.296875 0.21875 -0.21875 0.515625l0 10.984375l-1.484375 0l0 -9.28125q-0.890625 1.40625 -2.15625 2.59375l-0.96875 -1.328125zm16.484375 3.640625l-0.234375 1.703125q-0.296875 2.15625 -2.140625 2.15625l-4.984375 0q-1.328125 0 -1.328125 -1.265625l0 -13.953125l1.40625 0q0.75 0.078125 0.078125 0.4375l0 5.5q2.8125 -1.109375 5.1875 -2.890625l1.125 1.328125q0.515625 0.453125 -0.375 0.453125q-3.1875 1.625 -5.9375 2.734375l0 5.421875q0 0.59375 0.515625 0.59375l3.9375 0q0.8125 0 0.890625 -0.734375l0.140625 -1.78125l1.71875 0.296875z" fill-rule="nonzero"/><path fill="#000000" d="m46.778378 61.277573q1.03125 -2.015625 1.25 -6.09375l-2.515625 0q0.21875 4.078125 1.265625 6.09375zm2.734375 -6.09375q-0.140625 4.609375 -1.78125 7.421875q1.1875 1.484375 3.34375 2.59375l-0.96875 1.640625q-2.375 -1.5625 -3.328125 -2.96875q-1.71875 1.9375 -5.28125 3.34375l-0.734375 -1.484375q3.859375 -1.5625 5.125 -3.203125q-1.265625 -2.4375 -1.421875 -4.890625q-0.4375 1.109375 -0.890625 1.703125l-1.25 -0.96875q2.21875 -3.265625 2.671875 -8.078125l1.546875 0.359375q0.453125 0.296875 -0.21875 0.453125q-0.21875 1.328125 -0.59375 2.671875l5.046875 0l0 1.40625l-1.265625 0zm-6.890625 -3.5625q-0.453125 1.109375 -1.046875 1.859375l-1.1875 -0.671875q0.59375 -0.96875 1.109375 -2.21875l1.34375 0.65625q0.296875 0.296875 -0.21875 0.375zm-4.75 10.46875q1.03125 0.296875 1.84375 0.671875q0.59375 -0.671875 0.96875 -2.015625l-2.15625 0q-0.296875 0.671875 -0.65625 1.34375zm-1.046875 1.859375l-1.1875 -0.671875q0.75 -1.109375 1.484375 -2.53125l-2.8125 0l0 -1.1875l3.265625 0q0.4375 -0.953125 0.65625 -1.625l1.421875 0.375q0.296875 0.296875 -0.234375 0.359375l-0.4375 0.890625l4.234375 0l0 1.1875l-1.125 0q-0.359375 1.484375 -1.109375 2.53125q0.671875 0.296875 1.40625 0.734375l-0.65625 1.1875q-0.828125 -0.515625 -1.484375 -0.8125q-1.9375 1.9375 -5.203125 2.375l-0.515625 -1.328125q2.890625 -0.296875 4.453125 -1.640625q-0.8125 -0.375 -1.640625 -0.671875l-0.515625 0.828125zm1.484375 -13.953125l1.1875 0q0.59375 0.0625 0.078125 0.4375l0 3.1875l3.78125 0l0 1.1875l-3.109375 0q0.8125 0.96875 2.515625 1.859375l-0.8125 1.265625q-1.265625 -0.75 -2.375 -2.078125l0 1.78125l-1.265625 0l0 -1.40625q-1.1875 1.484375 -3.265625 2.671875l-0.96875 -1.1875q2.3125 -1.1875 3.796875 -2.90625l-3.421875 0l0 -1.1875l3.859375 0l0 -3.625zm-2.078125 3.40625q-0.515625 -1.109375 -1.328125 -1.921875l1.1875 -0.75q0.890625 0.890625 1.328125 1.859375l-1.1875 0.8125zm23.15625 -2.96875l9.718754 0l0 4.671875l-3.328125 0l0 2.15625l4.15625 0l0 1.1875l-4.15625 0l0 2.234375l2.890625 0l0 6.15625l-1.265625 0l0 -0.8125l-4.453129 0l0 1.03125l-1.265625 0l0 -6.375l2.6093788 0l0 -2.234375l-3.6406288 0l0 1.1875q0 4.96875 -2.15625 7.203125l-1.109375 -1.109375q2.0 -2.015625 2.0 -6.390625l0 -8.90625zm8.015629 11.4375l-4.453129 0l0 2.96875l4.453129 0l0 -2.96875zm-3.109375 -4.609375l0 -2.15625l-3.6406288 0l0 2.15625l3.6406288 0zm-3.6406288 -3.34375l6.968754 0l0 -2.296875l-6.968754 0l0 2.296875zm-1.9375 5.578125l-1.921875 0.65625l0 5.796875q0 1.1875 -1.1875 1.1875l-1.484375 0l-0.21875 -1.40625l1.109375 0q0.296875 0 0.296875 -0.296875l0 -4.828125l-1.5625 0.515625q-0.078125 0.515625 -0.375 0.21875l-0.515625 -1.78125l2.453125 -0.515625l0 -3.859375l-2.078125 0l0 -1.40625l2.078125 0l0 -3.859375l1.40625 0q0.59375 0.078125 0.078125 0.4375l0 3.421875l1.921875 0l0 1.40625l-1.921875 0l0 3.5625l1.78125 -0.515625l0.140625 1.265625z" fill-rule="nonzero"/><path fill="#cfe2f3" d="m585.1811 19.971128l35.280823 0l0 0l52.921265 0l123.48297 0l0 32.041992l0 0l0 13.732285l0 9.154854l-123.48297 0l-65.25751 11.974007l12.336243 -11.974007l-35.280823 0l0 -9.154854l0 -13.732285l0 0z" fill-rule="evenodd"/><path stroke="#000000" stroke-width="1.0" stroke-linejoin="round" stroke-linecap="butt" d="m585.1811 19.971128l35.280823 0l0 0l52.921265 0l123.48297 0l0 32.041992l0 0l0 13.732285l0 9.154854l-123.48297 0l-65.25751 11.974007l12.336243 -11.974007l-35.280823 0l0 -9.154854l0 -13.732285l0 0z" fill-rule="evenodd"/><path fill="#000000" d="m605.60297 47.183823q-0.484375 6.125 -1.59375 7.53125q-0.640625 0.828125 -2.015625 0.828125l-3.296875 0l-0.34375 -2.1875l3.203125 0q0.578125 0 0.765625 -0.34375q0.5625 -0.875 0.8125 -3.625l-4.234375 0l-0.15625 0.78125l-2.359375 -0.328125q0.921875 -3.953125 1.171875 -6.734375l5.53125 0l0 -1.59375l-6.828125 0l0 -2.1875l9.09375 0l0 6.34375l-2.265625 0l0.015625 -0.390625l-3.453125 0.015625q-0.015625 0.125 -0.3125 1.890625l6.265625 0zm5.546875 8.21875l-2.265625 0l0 -16.296875l1.8125 0q1.625 0.171875 0.453125 1.03125l0 15.265625zm15.65625 -14.96875l4.890625 0l0 1.96875l-1.765625 0q-0.578125 1.359375 -1.109375 2.125q0.8125 0.609375 3.359375 1.34375l-1.46875 2.03125q-2.265625 -0.875 -3.40625 -1.75q-1.53125 1.1875 -3.5625 1.71875l-1.421875 -1.765625q2.78125 -0.796875 3.484375 -1.453125q-0.46875 -0.5625 -0.640625 -0.921875q0.015625 0.046875 -0.609375 0.921875l-1.71875 -1.375q1.59375 -2.265625 2.671875 -5.171875l1.578125 0.578125q1.5 0.75 -0.015625 1.203125l-0.265625 0.546875zm0.375 2.765625q0.375 -0.484375 0.46875 -0.796875l-1.09375 0q0.171875 0.34375 0.625 0.796875zm-11.28125 4.0625q8.03125 0.078125 12.125 -0.703125l1.046875 1.03125q1.5 1.515625 -0.59375 1.203125q-1.96875 0.140625 -4.265625 0.203125l0 0.125l5.703125 0l0 1.96875l-5.703125 0l0 0.109375l7.265625 0l0 1.96875l-7.265625 0l0 1.3125q0 1.65625 -1.515625 1.65625l-2.234375 0l-0.46875 -2.1875l2.046875 0q0 0.09375 -0.09375 0.09375l0 -0.875l-7.421875 0l0 -1.96875l7.421875 0l0 -0.109375l-6.015625 0l0 -1.96875l6.015625 0l0 -0.03125q-2.359375 0 -5.390625 0l-0.65625 -1.828125zm7.828125 -5.5625l-0.40625 3.703125q-0.28125 2.203125 -2.109375 2.203125l-1.234375 0l-0.140625 -0.96875l-1.9375 0l0 0.4375l-2.046875 0l0.21875 -2.203125q0.171875 0.15625 -0.359375 0.6875l-1.796875 -1.09375q1.578125 -1.578125 2.734375 -3.65625l0.3125 0.171875l-0.0625 0.390625l-2.3125 0l0 -1.96875l2.3125 0l0 -1.421875l1.828125 0q1.578125 0.203125 0.4375 1.046875l0 0.375l0.546875 0l0 -1.421875l1.828125 0q1.578125 0.203125 0.4375 1.046875l0 0.375l2.59375 0l0 1.96875l-2.59375 0l0 0.59375l-2.265625 0l0 -0.59375l-0.625 0l0 0.59375l-1.5 -0.390625q2.203125 0.328125 0.140625 0.515625l6.0 -0.390625zm-2.8125 4.03125l0 -0.09375q0.390625 0 0.4375 -0.53125l0.171875 -1.734375l-4.03125 0l0.03125 -0.046875l3.484375 0l-0.09375 2.40625zm-1.9375 -0.765625l0 0.03125l-1.078125 0l0 -0.03125l1.078125 0z" fill-rule="nonzero"/><path fill="#000000" d="m652.0831 43.574448q-0.359375 0.4375 -0.84375 1.28125q-0.46875 0.828125 -0.828125 1.5625l2.25 0q1.53125 0 2.046875 -0.078125l0 1.453125q-0.578125 -0.0625 -1.890625 -0.0625l-11.0 0q0 5.75 -2.78125 8.453125q-0.28125 -0.59375 -1.09375 -1.09375q1.90625 -2.125 2.1875 -4.40625q0.296875 -2.296875 0.15625 -4.265625l8.59375 0q0.953125 -1.96875 1.390625 -3.65625q0.9375 0.4375 1.8125 0.8125zm-4.515625 -4.59375q0.140625 0.515625 0.578125 2.328125l3.640625 0q1.3125 0 2.484375 -0.078125l0 1.390625q-1.171875 -0.078125 -2.265625 -0.078125l-8.8125 0q-1.09375 0 -2.765625 0.078125l0 -1.390625q1.75 0.078125 2.25 0.078125l3.796875 0q-0.21875 -0.953125 -0.578125 -1.96875q0.875 -0.21875 1.671875 -0.359375zm-3.28125 3.859375q0.875 1.171875 1.671875 2.703125q-0.71875 0.28125 -1.53125 0.71875q-0.65625 -1.53125 -1.53125 -2.625q0.734375 -0.4375 1.390625 -0.796875z" fill-rule="nonzero"/><path fill="#000000" d="m662.1769 41.136948q-0.0625 0.375 -0.4375 1.71875l3.40625 0l0 -3.71875l1.421875 0q0.59375 0.078125 0.0625 0.453125l0 3.265625l6.09375 0l0 1.40625l-6.09375 0l0 3.40625l5.203125 0l0 1.421875l-5.203125 0l0 4.375l7.0625 0l0 1.40625l-16.265625 0l0 -1.40625l7.71875 0l0 -4.375l-4.96875 0l0 -1.421875l4.96875 0l0 -3.40625l-3.859375 0q-0.890625 2.296875 -2.671875 4.078125l-1.109375 -1.1875q2.671875 -2.59375 3.1875 -6.828125l1.5625 0.375q0.453125 0.140625 -0.078125 0.4375zm22.640625 4.53125l-1.40625 0q-0.078125 3.1875 -4.15625 4.015625l-0.453125 -1.421875q2.96875 -0.65625 3.046875 -2.59375l-3.1875 0l0 10.328125l-1.484375 0l0 -11.734375l4.0 0l-0.890625 -1.9375l-4.15625 0l0 -1.40625l7.421875 0l0 -1.921875l1.640625 0q0.59375 0.0625 0.078125 0.4375l0 1.484375l7.34375 0l0 1.40625l-3.78125 0l-1.34375 1.9375l4.3125 0l0 10.546875q0 1.03125 -0.96875 1.03125l-1.9375 0l-0.296875 -1.40625l1.421875 0q0.296875 0 0.296875 -0.296875l0 -8.46875l-4.015625 0l0 1.109375q0 0.59375 0.515625 0.59375l1.34375 0q0.296875 0 0.4375 -0.890625l1.421875 0.453125q-0.15625 1.859375 -1.1875 1.859375l-2.75 0q-1.265625 0 -1.265625 -1.265625l0 -1.859375zm2.078125 -3.34375l-4.890625 0l0.953125 1.9375l2.671875 0l1.265625 -1.9375zm-6.078125 7.359375l7.265625 0l0 4.15625l-6.015625 0l0 0.671875l-1.25 0l0 -4.828125zm1.25 1.1875l0 1.78125l4.75 0l0 -1.78125l-4.75 0z" fill-rule="nonzero"/><path fill="#000000" d="m702.255 39.715073q-0.140625 2.03125 -0.140625 3.484375l0 10.71875l2.40625 0l0 -11.59375q0 -1.15625 -0.15625 -2.609375l1.828125 0q-0.140625 1.15625 -0.140625 2.46875l0 11.734375l2.828125 0q1.171875 0 2.84375 -0.140625l0 1.59375q-1.671875 -0.140625 -2.765625 -0.140625l-11.078125 0q-1.015625 0 -2.90625 0.140625l0 -1.59375q1.890625 0.140625 2.84375 0.140625l2.6875 0l0 -10.78125q0 -1.53125 -0.21875 -3.421875l1.96875 0zm-5.25 3.640625q0.875 2.25 2.40625 6.625q-0.796875 0.140625 -1.671875 0.578125q-1.3125 -4.21875 -2.328125 -6.546875q0.71875 -0.296875 1.59375 -0.65625zm14.0625 0.4375q-0.9375 2.46875 -2.625 6.921875q-0.71875 -0.4375 -1.515625 -0.65625q1.515625 -2.84375 2.328125 -6.859375q0.796875 0.296875 1.8125 0.59375z" fill-rule="nonzero"/><path fill="#000000" d="m723.9581 42.027573l4.3125 0l0 4.984375l2.140625 0l0 1.625l-5.78125 0q1.78125 3.421875 6.15625 5.34375l-0.96875 1.5625q-4.375 -2.234375 -6.234375 -5.9375q-0.734375 4.296875 -5.640625 6.234375l-0.59375 -1.484375q4.390625 -1.484375 4.984375 -5.71875l-4.234375 0l0 -1.625l4.375 0l0 -3.34375l-3.109375 0l0 -1.640625l3.109375 0l0 -2.96875l1.40625 0q0.59375 0.078125 0.078125 0.453125l0 2.515625zm2.828125 4.984375l0 -3.34375l-2.828125 0l0 3.34375l2.828125 0zm-10.984375 -6.171875q1.703125 0.96875 2.8125 2.375l-1.1875 1.421875q-1.1875 -1.421875 -2.890625 -2.609375l1.265625 -1.1875zm-2.234375 12.171875q2.078125 -1.84375 3.78125 -4.453125l0.96875 1.265625q-1.625 2.53125 -3.40625 4.234375q-0.234375 1.1875 -0.59375 0.21875l-0.75 -1.265625zm35.328125 2.53125q-3.9375 -0.96875 -6.96875 -4.015625l0 4.46875l-1.484375 0l0 -4.46875q-2.015625 2.453125 -6.609375 4.09375l-0.75 -1.640625q4.828125 -1.40625 7.359375 -4.53125l0 -0.890625l-3.71875 0l0 2.671875l-1.484375 0l0 -3.859375l5.203125 0l0 -1.1875l-7.28125 0l0 -1.1875l7.28125 0l0 -1.546875l1.40625 0q0.59375 0.0625 0.078125 0.4375l0 1.109375l7.265625 0l0 1.1875l-7.265625 0l0 1.1875l5.40625 0l0 2.90625q0 1.03125 -0.890625 1.03125l-1.484375 0l-0.296875 -1.40625l0.890625 0q0.296875 0 0.296875 -0.296875l0 -1.046875l-3.921875 0l0 0.96875q2.296875 2.890625 7.421875 4.234375l-0.453125 1.78125zm-5.265625 -15.890625q-0.296875 0.75 -0.515625 1.265625l6.078125 0l0 1.1875l-3.484375 0l0.8125 1.5625l-1.625 0.4375l-0.671875 -2.0l-1.640625 0q-0.59375 1.046875 -0.890625 1.265625l-1.1875 -0.8125l0.453125 -0.453125l-2.59375 0l0.8125 1.703125l-1.640625 0.453125l-0.59375 -2.15625l-1.25 0q-0.671875 1.109375 -1.78125 2.234375l-1.046875 -1.125q1.9375 -1.546875 2.53125 -4.375l1.484375 0.453125q0.296875 0.296875 -0.234375 0.359375q-0.21875 0.671875 -0.4375 1.265625l4.890625 0l0 0.96875q1.046875 -1.640625 1.34375 -3.046875l1.40625 0.453125q0.296875 0.296875 -0.21875 0.359375z" fill-rule="nonzero"/><path fill="#cfe2f3" d="m75.937004 400.4462l123.48295 0l0 0l52.92125 0l35.280838 0l0 9.154846l33.9162 -11.173492l-33.9162 24.905792l0 32.041992l-35.280838 0l-52.92125 0l0 0l-123.48295 0l0 -32.041992l0 -13.7323l0 0z" fill-rule="evenodd"/><path stroke="#000000" stroke-width="1.0" stroke-linejoin="round" stroke-linecap="butt" d="m75.937004 400.4462l123.48295 0l0 0l52.92125 0l35.280838 0l0 9.154846l33.9162 -11.173492l-33.9162 24.905792l0 32.041992l-35.280838 0l-52.92125 0l0 0l-123.48295 0l0 -32.041992l0 -13.7323l0 0z" fill-rule="evenodd"/><path fill="#000000" d="m92.280754 434.987q0.296875 0 0.296875 -0.3125l0 -3.1875l-4.15625 0q0 3.125 -1.40625 4.90625l-1.03125 -1.046875q1.1875 -1.703125 1.1875 -4.078125l0 -5.796875q-0.375 0.53125 -0.96875 1.046875l-0.8125 -1.109375q2.515625 -2.453125 3.328125 -6.09375l1.484375 0.21875q0.296875 0.296875 -0.21875 0.375l-0.21875 0.671875l2.078125 0l0.21875 -0.375l1.109375 0.671875q0.53125 0.296875 -0.0625 0.375l-1.1875 2.296875l1.921875 0l0 11.796875q0 1.046875 -1.03125 1.046875l-1.34375 0l-0.21875 -1.40625l1.03125 0zm9.28125 1.1875q-0.140625 -0.75 -0.296875 -1.265625q-2.890625 0.375 -6.078125 0.734375q-0.078125 0.671875 -0.375 0.234375l-0.515625 -1.71875l3.5625 -0.21875l0 -4.234375l-1.484375 0l0 1.34375l-1.265625 0l0 -7.796875l2.75 0l0 -3.640625l1.1875 0q0.59375 0.078125 0.0625 0.453125l0 3.1875l2.96875 0l0 7.046875l-1.25 0l0 -0.59375l-1.71875 0l0 4.15625l1.859375 -0.140625q-0.21875 -0.828125 -0.671875 -2.078125l1.265625 -0.296875q0.890625 1.703125 1.5625 4.53125l-1.5625 0.296875zm-0.734375 -7.65625l0 -4.078125l-1.71875 0l0 4.078125l1.71875 0zm-2.96875 0l0 -4.078125l-1.484375 0l0 4.078125l1.484375 0zm-5.28125 1.78125l0 -2.15625l-1.40625 0l0 2.15625l1.40625 0zm-2.671875 -2.15625l-1.484375 0l0 2.15625l1.484375 0l0 -2.15625zm-1.484375 -1.1875l1.484375 0l0 -2.21875l-1.484375 0l0 2.21875zm4.15625 0l0 -2.21875l-1.40625 0l0 2.21875l1.40625 0zm-1.25 -5.1875l-1.9375 0q-0.375 0.96875 -0.890625 1.78125l1.9375 0l0.890625 -1.78125zm18.171875 10.09375q4.390625 -1.34375 5.203125 -7.28125l-5.125 0l0 -1.40625l5.125 0l0 -3.484375l1.40625 0q0.59375 0.140625 0.078125 0.515625l0 2.96875l5.421875 0l0 1.40625l-5.34375 0q1.484375 5.5 5.9375 7.203125l-1.1875 1.640625q-3.9375 -2.015625 -5.28125 -6.6875q-0.953125 4.96875 -5.265625 6.75l-0.96875 -1.625zm-1.78125 -2.0l-2.671875 0l0 -1.421875l4.15625 0l0 4.390625q1.78125 1.546875 4.828125 1.546875l8.015625 0l-0.4375 1.421875l-7.578125 0q-3.5625 0 -5.484375 -1.78125q-1.046875 1.109375 -2.53125 2.375l-1.03125 -1.640625q1.484375 -0.734375 2.734375 -1.921875l0 -2.96875zm-1.40625 -5.9375q1.484375 0.65625 2.890625 1.625l-0.8125 1.40625q-1.265625 -0.890625 -2.890625 -1.703125l0.8125 -1.328125zm0.671875 -3.9375q1.484375 0.59375 2.890625 1.625l-0.8125 1.421875q-1.265625 -0.890625 -2.890625 -1.71875l0.8125 -1.328125zm31.312508 10.234375l-4.8125 0l0 5.65625l-1.484375 0l0 -5.65625l-4.4531326 0q-0.15625 3.859375 -2.3125 6.171875l-1.1875 -1.1875q2.015625 -2.234375 2.015625 -5.203125l0 -9.5l13.718758 0l0 14.171875q0 1.203125 -1.1875 1.203125l-2.078125 0l-0.359375 -1.640625l1.84375 0q0.296875 0 0.296875 -0.296875l0 -3.71875zm-10.750008 -4.15625l0 2.75l4.4531326 0l0 -2.75l-4.4531326 0zm0 -4.15625l0 2.75l4.4531326 0l0 -2.75l-4.4531326 0zm5.9375076 4.15625l0 2.75l4.8125 0l0 -2.75l-4.8125 0zm0 -4.15625l0 2.75l4.8125 0l0 -2.75l-4.8125 0z" fill-rule="nonzero"/><path fill="#000000" d="m158.76514 423.01825q-0.0625 1.75 -0.0625 4.015625q0 2.1875 0.0625 3.421875l-1.59375 0l0 -1.09375l-10.140625 0q-0.28125 2.328125 -0.71875 3.5q-0.4375 1.171875 -0.953125 2.078125q-0.5 0.90625 -1.09375 1.71875q-0.71875 -0.59375 -1.59375 -0.875q1.453125 -1.53125 2.0 -2.875q0.546875 -1.359375 0.71875 -2.5625q0.1875 -1.203125 0.1875 -2.578125q0 -1.390625 -0.0625 -4.75l13.25 0zm-1.671875 5.03125l0 -3.71875l-10.125 0l0 3.71875l10.125 0zm-5.25 -8.59375q0.875 1.75 1.25 2.765625q-0.953125 0.21875 -1.46875 0.515625q-0.5 -1.53125 -1.15625 -2.703125q0.71875 -0.21875 1.375 -0.578125z" fill-rule="nonzero"/><path fill="#000000" d="m162.45264 432.89325l1.703125 0l0 1.640625l-0.890625 2.0l-0.8125 0l0.734375 -2.0l-0.734375 0l0 -1.640625zm16.023438 -6.15625l0 1.046875q0 5.484375 -2.8125 8.09375l-1.1875 -1.203125q2.515625 -2.8125 2.515625 -6.828125l0 -7.046875l12.84375 0l0 1.40625l-11.359375 0l0 3.125l8.46875 0l0.4375 -0.375l1.265625 0.96875q0.515625 0.21875 -0.140625 0.515625q-1.1875 3.9375 -2.96875 5.71875q1.546875 1.265625 5.484375 2.296875l-0.8125 1.78125q-3.640625 -1.109375 -5.859375 -2.890625q-2.609375 2.15625 -5.875 3.046875l-0.65625 -1.71875q3.328125 -0.8125 5.265625 -2.4375q-2.234375 -2.375 -3.125 -5.5l-1.484375 0zm5.796875 4.453125q1.5625 -1.625 2.453125 -4.453125l-5.203125 0q0.8125 2.453125 2.75 4.453125z" fill-rule="nonzero"/><path fill="#000000" d="m204.89795 424.987l0 1.25l2.6875 0q1.171875 0 2.328125 -0.078125l0 1.234375q-1.09375 -0.0625 -2.328125 -0.0625l-6.34375 0q-1.375 0 -2.40625 0.0625l0 -1.234375q1.171875 0.078125 2.34375 0.078125l2.40625 0l0 -1.25l-3.71875 0q0.140625 -1.15625 0.140625 -1.890625q0 -0.796875 -0.140625 -1.828125l3.71875 0q0 -0.640625 -0.078125 -1.453125l1.53125 0q-0.140625 0.953125 -0.140625 1.453125l3.859375 0q-0.078125 1.09375 -0.078125 1.90625q0 0.71875 0.078125 1.8125l-3.859375 0zm2.46875 7.734375l0 -3.140625l-6.046875 0l0 3.421875l-1.453125 0q0.140625 -0.9375 0.140625 -2.40625q0 -1.453125 -0.140625 -2.109375l8.890625 0q-0.078125 0.65625 -0.078125 2.109375q0 1.390625 0.078125 2.125l-1.390625 0zm-10.859375 -6.125q-0.140625 0.953125 -0.140625 1.890625l0 4.953125q0.515625 -0.4375 0.9375 -0.9375q0.4375 -0.515625 0.875 -0.875q0.296875 0.4375 0.8125 1.15625q-0.65625 0.4375 -1.53125 1.3125l-1.828125 1.828125q-0.5 -0.65625 -1.015625 -1.234375q0.515625 -0.953125 0.4375 -1.96875l0 -4.234375q0 -0.9375 -0.078125 -1.890625l1.53125 0zm-1.015625 -2.765625q-0.359375 0.578125 -0.65625 1.234375q-0.296875 0.65625 -0.65625 1.53125q-0.734375 -0.65625 -1.390625 -0.875q0.4375 -0.65625 0.875 -1.375q0.4375 -0.734375 0.765625 -1.5q0.328125 -0.765625 0.515625 -1.5625q0.1875 -0.8125 0.328125 -1.609375q0.296875 0.21875 0.734375 0.375q0.4375 0.140625 1.078125 0.28125q-0.5 0.578125 -0.765625 1.171875q-0.25 0.578125 -0.46875 1.234375l3.359375 0q-0.21875 0.578125 -0.4375 1.421875q-0.21875 0.828125 -0.59375 2.0q-0.71875 -0.21875 -1.453125 -0.296875q0.296875 -0.578125 0.46875 -1.078125q0.1875 -0.515625 0.328125 -0.953125l-2.03125 0zm9.84375 6.546875q-0.375 0.515625 -0.375 1.3125q0 0.8125 -0.328125 1.6875q-0.328125 0.875 -1.390625 1.75q-1.046875 0.875 -3.53125 1.75q-0.21875 -0.4375 -0.515625 -0.8125q-0.28125 -0.359375 -0.71875 -0.65625q3.9375 -0.578125 4.515625 -2.0625q0.59375 -1.5 0.59375 -3.1875q0.65625 0.078125 1.75 0.21875zm3.34375 6.203125q-0.65625 -0.65625 -1.75 -1.359375q-1.09375 -0.6875 -2.03125 -1.265625q0.4375 -0.515625 0.875 -0.875q0.9375 0.4375 1.8125 0.953125q0.875 0.5 2.328125 1.375q-0.71875 0.59375 -1.234375 1.171875zm-1.3125 -12.6875l0 -1.53125l-2.46875 0l0 1.53125l2.46875 0zm-3.78125 0l0 -1.53125l-2.34375 0l0 1.53125l2.34375 0zm17.265625 1.828125q0 -1.75 -0.078125 -2.765625l1.6875 0q-0.15625 1.015625 -0.15625 2.765625q1.53125 0 2.765625 -0.078125l0 1.46875q-1.234375 -0.078125 -2.765625 -0.078125l0 6.5625q0 1.09375 -0.734375 1.34375q-0.71875 0.25 -2.328125 0.625q-0.140625 -0.953125 -0.578125 -1.609375q1.234375 -0.078125 1.703125 -0.21875q0.484375 -0.140625 0.484375 -1.09375l0 -4.734375q-1.09375 2.1875 -2.265625 3.46875q-1.15625 1.265625 -2.90625 2.359375q-0.578125 -0.65625 -1.3125 -1.171875q1.75 -0.875 3.125 -2.25q1.390625 -1.390625 2.265625 -3.28125l-1.890625 0q-1.171875 0 -2.765625 0.078125l0 -1.46875q1.15625 0.078125 2.6875 0.078125l3.0625 0zm7.0625 -5.25q-0.0625 1.453125 -0.0625 2.921875l0 10.703125q0 1.609375 -0.8125 1.890625q-0.796875 0.296875 -2.390625 0.453125q-0.15625 -0.875 -0.59375 -1.6875q1.453125 0.078125 1.890625 0.015625q0.4375 -0.078125 0.4375 -1.03125l0 -11.953125l-4.4375 0q-1.75 0 -3.140625 0.078125l0 -1.453125q1.390625 0.0625 3.140625 0.0625l5.96875 0zm-13.765625 2.921875q-0.140625 1.234375 -0.140625 1.96875l0 11.0l-1.53125 0q0.0625 -1.53125 0.0625 -2.84375l0 -7.71875q0 -1.3125 -0.0625 -2.40625l1.671875 0zm1.09375 -3.9375q0.875 1.015625 1.96875 2.546875q-0.65625 0.296875 -1.46875 0.875q-0.71875 -1.390625 -1.890625 -2.625q0.734375 -0.359375 1.390625 -0.796875zm29.359375 1.234375q1.09375 0 2.484375 -0.0625l0 1.375q-1.234375 -0.078125 -2.484375 -0.078125l-1.375 0q-0.65625 2.34375 -0.875 3.21875l0 8.890625q0 1.453125 0.078125 2.625l-1.53125 0q0.0625 -1.09375 0.0625 -2.625l0 -5.828125q-1.53125 2.984375 -3.71875 5.015625q-0.4375 -0.4375 -1.3125 -0.9375q1.03125 -0.734375 1.9375 -1.859375q0.90625 -1.125 1.78125 -2.65625q0.875 -1.53125 1.28125 -2.84375q0.40625 -1.3125 0.765625 -3.0l-2.046875 0q-1.15625 0 -2.40625 0.078125l0 -1.375q1.25 0.0625 2.40625 0.0625l4.953125 0zm-9.609375 0q0.71875 0 1.671875 -0.0625l0 1.296875q-0.953125 -0.0625 -1.671875 -0.0625l-0.515625 0l0 3.5q1.015625 0 2.265625 -0.078125l0 1.3125q-1.3125 -0.078125 -2.265625 -0.078125l0 4.15625q0.65625 -0.140625 2.1875 -0.875q0 0.578125 0.078125 1.390625q-2.1875 0.796875 -3.328125 1.171875q-1.125 0.359375 -2.4375 0.9375q-0.28125 -0.734375 -0.71875 -1.53125q0.5 0 2.90625 -0.65625l0 -4.59375q-1.234375 0 -2.328125 0.15625l0 -1.390625q1.09375 0.078125 2.328125 0.078125l0 -3.5l-0.65625 0q-0.9375 0 -1.890625 0.0625l0 -1.296875q0.953125 0.0625 1.828125 0.0625l2.546875 0zm9.109375 5.03125q2.25 3.0625 3.421875 4.953125q-0.734375 0.4375 -1.390625 0.875q-1.09375 -1.96875 -1.71875 -2.90625q-0.609375 -0.953125 -1.484375 -2.046875q0.65625 -0.359375 1.171875 -0.875z" fill-rule="nonzero"/></g></svg>