<svg version="1.1" viewBox="0.0 0.0 830.0183727034121 411.0787401574803" fill="none" stroke="none" stroke-linecap="square" stroke-miterlimit="10" xmlns:xlink="http://www.w3.org/1999/xlink" xmlns="http://www.w3.org/2000/svg"><clipPath id="p.0"><path d="m0 0l830.0184 0l0 411.07874l-830.0184 0l0 -411.07874z" clip-rule="nonzero"/></clipPath><g clip-path="url(#p.0)"><path fill="#000000" fill-opacity="0.0" d="m0 0l830.0184 0l0 411.07874l-830.0184 0z" fill-rule="evenodd"/><path fill="#3d85c6" d="m142.79265 186.87157l0 0c0 -4.905426 3.9766388 -8.882065 8.882065 -8.882065l129.03903 0c2.3556519 0 4.6148376 0.935791 6.280548 2.6015015c1.6657104 1.6657104 2.6015015 3.9248962 2.6015015 6.2805634l0 35.527206c0 4.905426 -3.9766235 8.882065 -8.88205 8.882065l-129.03903 0c-4.905426 0 -8.882065 -3.9766388 -8.882065 -8.882065z" fill-rule="evenodd"/><path stroke="#073763" stroke-width="1.0" stroke-linejoin="round" stroke-linecap="butt" d="m142.79265 186.87157l0 0c0 -4.905426 3.9766388 -8.882065 8.882065 -8.882065l129.03903 0c2.3556519 0 4.6148376 0.935791 6.280548 2.6015015c1.6657104 1.6657104 2.6015015 3.9248962 2.6015015 6.2805634l0 35.527206c0 4.905426 -3.9766235 8.882065 -8.88205 8.882065l-129.03903 0c-4.905426 0 -8.882065 -3.9766388 -8.882065 -8.882065z" fill-rule="evenodd"/><path fill="#ffffff" d="m186.06923 206.86768q-0.640625 1.671875 -2.796875 4.109375l-1.28125 -1.765625q1.859375 -2.265625 2.65625 -4.3125q-0.984375 -1.4375 -2.375 -3.265625l1.28125 -1.296875q1.328125 1.515625 1.59375 1.90625q0.140625 -0.84375 0.34375 -3.140625l1.71875 0.40625q1.671875 0.609375 0.171875 1.109375q-0.1875 1.546875 -0.546875 3.703125q0.9375 1.28125 1.96875 2.8125l-1.15625 2.015625q-1.171875 -1.703125 -1.578125 -2.28125zm-3.5625 -8.0l0 13.734375l-2.265625 0l0 -15.9375l16.15625 0l0 14.203125q0 1.578125 -1.515625 1.578125l-2.15625 0l-0.46875 -2.1875l2.03125 0q0 0.15625 -0.15625 0.15625l0 -11.546875l-11.625 0zm8.15625 3.859375q0.265625 -1.328125 0.453125 -3.65625l1.625 0.203125q1.84375 0.546875 0.28125 1.1875q-0.1875 1.859375 -0.75 4.234375q1.015625 1.421875 1.953125 3.046875l-1.1875 1.9375q-1.21875 -2.03125 -1.625 -2.640625q-0.859375 2.265625 -2.734375 4.234375l-1.265625 -1.859375q1.640625 -1.71875 2.515625 -4.296875q-1.0 -1.59375 -2.3125 -3.171875l1.28125 -1.390625q1.171875 1.375 1.765625 2.171875z" fill-rule="nonzero"/><path fill="#ffffff" d="m204.3036 202.2583q1.109375 -1.203125 1.59375 -2.046875q0.5 -0.859375 0.953125 -1.890625q0.46875 -1.046875 0.859375 -2.828125q1.171875 0.53125 2.65625 0.765625q-0.75 1.109375 -0.984375 1.578125l5.90625 0q-1.375 2.75 -2.125 3.875q-0.75 1.109375 -1.28125 1.6875q0.5625 0.375 1.828125 0.8125q1.28125 0.421875 2.890625 0.734375q-0.640625 1.015625 -1.125 2.234375q-1.0625 -0.3125 -1.21875 -0.375q-0.078125 0.546875 -0.078125 1.390625l0 2.625q0 1.078125 0.078125 2.625l-2.140625 0l0 -1.375l-3.625 0l0 1.53125l-2.171875 0q0.109375 -1.484375 0.109375 -2.421875l0 -2.921875q0 -0.5625 0 -1.453125q0 0.046875 -1.15625 0.484375q-0.40625 -1.09375 -1.25 -2.0625q1.640625 -0.453125 2.953125 -0.984375q1.3125 -0.53125 1.796875 -0.921875q-0.765625 -0.984375 -1.15625 -1.90625q-0.421875 0.65625 -1.5 2.109375q-0.703125 -0.703125 -1.8125 -1.265625zm-0.46875 -5.046875q-0.78125 1.046875 -1.4375 2.390625q-0.65625 1.328125 -1.21875 2.3125l1.171875 0q0.6875 -1.296875 1.1875 -2.96875q1.140625 0.921875 2.25 1.46875q-0.71875 0.859375 -1.59375 2.40625q-0.859375 1.546875 -1.96875 3.40625q1.375 -0.234375 2.796875 -0.4375q-0.109375 1.359375 0.03125 2.140625q-2.125 0.265625 -3.0625 0.453125q-0.9375 0.171875 -2.515625 0.546875q-0.296875 -1.109375 -0.765625 -2.015625q1.0 -0.421875 1.640625 -1.375q0.65625 -0.953125 1.09375 -1.828125q-1.265625 0.046875 -2.59375 0.609375q-0.34375 -1.03125 -0.75 -2.140625q1.0625 -0.53125 1.890625 -2.234375q0.84375 -1.71875 1.40625 -3.9375q1.203125 0.765625 2.4375 1.203125zm8.28125 12.9375l0 -2.390625l-3.625 0l0 2.390625l3.625 0zm-7.0 -1.515625q0.234375 1.203125 0.234375 2.125q-1.078125 0.203125 -2.5625 0.703125q-1.46875 0.5 -3.21875 1.234375q-0.390625 -1.234375 -0.984375 -2.359375q2.3125 -0.46875 3.5 -0.75q1.1875 -0.296875 3.03125 -0.953125zm5.296875 -6.6875q0.125 -0.125 0.71875 -0.96875q0.59375 -0.84375 0.78125 -1.234375l-2.796875 0q0.5 1.265625 1.296875 2.203125zm2.34375 4.046875q-0.0625 0.140625 -0.984375 -0.296875q-0.921875 -0.453125 -1.5625 -0.90625q-0.65625 0.4375 -1.4375 0.890625q-0.78125 0.4375 -0.859375 0.3125l4.84375 0zm13.5625 -6.34375q0 -1.953125 -0.078125 -3.984375q1.25 0.34375 2.609375 0.453125q-0.390625 1.546875 -0.328125 3.53125l4.03125 0q-0.234375 1.09375 -0.375 2.59375l-0.515625 8.09375q-0.171875 1.421875 -1.015625 1.703125q-0.84375 0.296875 -2.515625 0.671875q-0.390625 -1.25 -1.03125 -2.390625q2.109375 -0.09375 2.28125 -0.125q0.171875 -0.046875 0.21875 -0.71875l0.484375 -7.90625l-1.640625 0q-0.0625 2.96875 -1.03125 5.953125q-0.96875 2.984375 -3.671875 5.671875q-0.625 -0.828125 -2.65625 -1.5q2.34375 -1.234375 3.671875 -3.828125q1.34375 -2.609375 1.484375 -6.296875q-0.984375 0 -2.765625 0.09375l0 -2.09375q1.78125 0.078125 2.84375 0.078125zm-7.140625 1.03125q0 -3.109375 -0.078125 -4.671875l2.375 0q-0.078125 1.5625 -0.078125 4.671875q0.984375 0 2.328125 -0.109375l0 2.125q-1.34375 -0.109375 -2.328125 -0.109375l0 7.640625q0 1.03125 0.078125 3.0l-2.375 0q0.078125 -1.96875 0.078125 -3.0l0 -7.640625q-1.0625 0 -2.328125 0.109375l0 -2.125q1.265625 0.109375 2.328125 0.109375zm6.734375 2.9375q-0.765625 1.03125 -1.828125 4.484375q-1.046875 -0.421875 -2.125 -0.546875q1.171875 -3.09375 1.359375 -4.546875q1.0 0.375 2.59375 0.609375zm7.5 -0.78125q1.296875 2.75 1.703125 4.265625q-1.140625 0.203125 -2.078125 0.8125q-0.578125 -2.0 -1.515625 -4.171875q1.0 -0.34375 1.890625 -0.90625z" fill-rule="nonzero"/><path fill="#ffffff" d="m242.97548 205.24268l0 2.265625l3.375 0l0 -2.265625l-3.375 0zm3.375 4.234375l-3.375 0l0 1.109375l-2.265625 0l0 -7.3125l7.90625 0l0 6.71875l-2.265625 0l0 -0.515625zm-6.890625 -9.546875l10.34375 0l0 2.203125l-10.34375 0l0 -2.203125zm10.75 -1.140625l-10.859375 0l0 14.171875l-2.265625 0l0 -16.359375l15.390625 0l0 14.71875q0 1.421875 -1.421875 1.421875l-2.390625 0l-0.46875 -2.1875l2.109375 0q0 0.09375 -0.09375 0.09375l0 -11.859375z" fill-rule="nonzero"/><path fill="#6aa84f" d="m552.9816 186.87157l0 0c0 -4.905426 3.9766235 -8.882065 8.88208 -8.882065l129.039 0c2.3556519 0 4.614868 0.935791 6.2805786 2.6015015c1.6657104 1.6657104 2.6015015 3.9248962 2.6015015 6.2805634l0 35.527206c0 4.905426 -3.9766235 8.882065 -8.88208 8.882065l-129.039 0c-4.9054565 0 -8.88208 -3.9766388 -8.88208 -8.882065z" fill-rule="evenodd"/><path stroke="#274e13" stroke-width="1.0" stroke-linejoin="round" stroke-linecap="butt" d="m552.9816 186.87157l0 0c0 -4.905426 3.9766235 -8.882065 8.88208 -8.882065l129.039 0c2.3556519 0 4.614868 0.935791 6.2805786 2.6015015c1.6657104 1.6657104 2.6015015 3.9248962 2.6015015 6.2805634l0 35.527206c0 4.905426 -3.9766235 8.882065 -8.88208 8.882065l-129.039 0c-4.9054565 0 -8.88208 -3.9766388 -8.88208 -8.882065z" fill-rule="evenodd"/><path fill="#ffffff" d="m602.5863 206.22705q0.640625 -1.265625 0.84375 -4.84375l-1.703125 0q0.203125 3.578125 0.859375 4.84375zm3.109375 -4.84375q-0.125 4.328125 -1.6875 7.0q0.96875 1.203125 3.421875 2.46875l-1.390625 2.34375q-2.78125 -1.828125 -3.5 -2.875q-1.4375 1.625 -5.421875 3.203125l-1.078125 -2.1875q4.140625 -1.6875 5.1875 -3.046875q-1.1875 -2.28125 -1.140625 -3.640625q0.09375 0.09375 -0.625 1.046875l-1.859375 -1.4375q2.375 -3.484375 2.859375 -8.640625l2.046875 0.484375q1.28125 0.828125 -0.03125 1.140625q-0.1875 1.078125 -0.421875 1.953125l4.921875 0l0 2.1875l-1.28125 0zm-6.984375 -3.59375q-0.390625 0.953125 -1.234375 2.0l-1.828125 -1.03125q0.796875 -1.28125 1.453125 -2.890625l1.78125 0.859375q0.890625 0.890625 -0.171875 1.0625zm-4.453125 9.875q0.59375 0.171875 1.171875 0.4375q0.328125 -0.390625 0.546875 -1.15625l-1.390625 0q-0.203125 0.453125 -0.328125 0.71875zm-1.484375 2.625l-1.890625 -1.078125q0.96875 -1.4375 1.40625 -2.265625l-2.5625 0l0 -1.96875l3.40625 0q0.328125 -0.703125 0.65625 -1.703125l1.875 0.5q0.9375 0.9375 -0.1875 1.0625l-0.0625 0.140625l4.0 0l0 1.96875l-1.203125 0q-0.3125 1.265625 -0.828125 1.984375q0.25 0.109375 1.34375 0.75l-1.046875 1.875q-1.15625 -0.71875 -1.546875 -0.890625q-1.828125 1.84375 -5.53125 2.328125l-0.8125 -2.09375q3.28125 -0.328125 4.28125 -1.203125q-0.234375 -0.109375 -0.75 -0.296875l-0.546875 0.890625zm0.953125 -14.875l1.59375 0q1.625 0.171875 0.453125 1.03125l0 2.59375l3.78125 0l0 1.96875l-2.65625 0q0.21875 0.265625 2.234375 1.328125l-1.25 1.9375q-1.640625 -0.984375 -2.109375 -1.53125l0 1.09375l-2.046875 0l0 -0.6875q-0.53125 0.671875 -2.96875 2.0625l-1.484375 -1.8125q2.671875 -1.375 3.546875 -2.390625l-2.953125 0l0 -1.96875l3.859375 0l0 -3.625zm-1.84375 4.375q-0.6875 -1.453125 -1.796875 -2.5625l1.875 -1.1875q1.15625 1.171875 1.75 2.5l-1.828125 1.25zm22.921875 -3.9375l10.5 0l0 5.453125l-3.328125 0l0 1.375l4.15625 0l0 1.96875l-4.15625 0l0 1.453125l2.890625 0l0 6.9375l-2.046875 0l0 -0.8125l-3.671875 0l0 1.03125l-2.046875 0l0 -7.15625l2.609375 0l0 -1.453125l-2.859375 0l0 0.796875q0 5.125 -2.546875 7.765625l-1.65625 -1.671875q2.15625 -2.171875 2.15625 -6.390625l0 -9.296875zm8.015625 12.21875l-3.671875 0l0 2.1875l3.671875 0l0 -2.1875zm-3.109375 -5.390625l0 -1.375l-2.859375 0l0 1.375l2.859375 0zm-2.859375 -3.34375l6.1875 0l0 -1.515625l-6.1875 0l0 1.515625zm-1.90625 6.234375l-1.953125 0.671875l0 5.515625q0 1.578125 -1.578125 1.578125l-1.8125 0l-0.34375 -2.1875l1.5625 0q0 0.09375 -0.09375 0.09375l0 -4.28125l-0.828125 0.265625q-0.15625 1.046875 -1.0625 0.125l-0.671875 -2.28125l2.5625 -0.53125l0 -3.15625l-2.078125 0l0 -2.1875l2.078125 0l0 -3.859375l1.828125 0q1.609375 0.21875 0.4375 1.03125l0 2.828125l1.921875 0l0 2.1875l-1.921875 0l0 2.65625l1.734375 -0.5l0.21875 2.03125zm17.34375 -8.53125l4.296875 0l0 1.96875l-2.46875 0l-0.09375 0.859375l3.3125 0l0 1.96875l-3.515625 0l0.03125 -0.125q1.703125 0.5625 3.546875 1.671875l-1.140625 2.03125q-1.59375 -1.109375 -3.1875 -1.921875q-1.140625 1.78125 -4.6875 2.71875l-0.78125 -2.140625q3.8125 -1.09375 4.03125 -2.234375l-3.6875 0l0 -1.96875l3.96875 0l0.078125 -0.859375l-0.6875 0q-0.453125 0.671875 -1.546875 1.6875l-1.625 -1.28125q1.78125 -1.890625 2.625 -4.21875l1.84375 0.390625q0.9375 0.921875 -0.140625 1.09375l-0.171875 0.359375zm6.96875 1.671875l0 3.15625l2.859375 0l0 -3.15625l-2.859375 0zm-8.125 5.96875l11.09375 0l0 8.140625l-2.265625 0l0 -0.515625l-6.5625 0l0 0.890625l-2.265625 0l0 -8.515625zm2.265625 1.96875l0 0.859375l6.5625 0l0 -0.859375l-6.5625 0zm0 2.828125l0 0.84375l6.5625 0l0 -0.84375l-6.5625 0zm3.828125 -12.734375l6.9375 0l0 7.6875l-2.046875 0l0 -0.59375l-2.859375 0l0 0.8125l-2.03125 0l0 -7.90625zm16.5 0.109375q1.640625 1.828125 2.96875 4.0625l-2.0625 1.1875l-0.65625 -1.0l-6.078125 0.625q-0.15625 0.984375 -1.078125 0.0625l-0.578125 -2.375l2.234375 0l1.5 -4.0625l2.3125 0.53125q0.921875 0.921875 -0.171875 1.09375l-1.328125 2.3125l2.03125 -0.125l-0.9375 -1.265625l1.84375 -1.046875zm-3.625 7.0625l0 0.46875l2.703125 0l0 -0.46875l-2.703125 0zm0 2.671875l0 0.46875l2.703125 0l0 -0.46875l-2.703125 0zm4.96875 -4.875l0 9.75q0 1.578125 -1.578125 1.578125l-1.59375 0l-0.34375 -2.1875l1.421875 0q0 0.171875 -0.171875 0.15625l0 -1.75l-2.703125 0l0 3.859375l-2.265625 0l0 -11.40625l7.234375 0zm2.890625 2.90625q1.625 0.171875 0.453125 1.03125l0 1.171875l4.015625 -1.484375l0.9375 1.625q0.203125 1.390625 -0.875 0.765625l-4.078125 1.0625l0 1.78125q0 0.125 0.046875 0.125l2.96875 0q0.1875 0 0.203125 -0.1875l0.3125 -1.65625l2.3125 0.4375l-0.359375 2.09375q-0.28125 1.515625 -1.640625 1.515625l-4.390625 0q-1.71875 0 -1.71875 -1.65625l0 -6.625l1.8125 0zm5.109375 -5.625q0.203125 1.40625 -0.859375 0.796875l-3.796875 1.0625l0 1.484375q0 0.125 0.046875 0.125l2.96875 0q0.109375 0 0.140625 -0.25l0.1875 -1.765625l2.328125 0.453125l-0.1875 1.984375q-0.171875 1.765625 -1.796875 1.765625l-4.234375 0q-1.71875 0 -1.71875 -1.65625l0 -6.984375l1.8125 0q1.625 0.171875 0.453125 1.03125l0 1.796875l3.53125 -1.515625l1.125 1.671875z" fill-rule="nonzero"/><path fill="#000000" fill-opacity="0.0" d="m361.37534 54.301838l109.60629 0l0 61.763783l-109.60629 0z" fill-rule="evenodd"/><path fill="#000000" d="m392.33472 77.14371q1.03125 -2.015625 1.25 -6.09375l-2.515625 0q0.21875 4.078125 1.265625 6.09375zm2.734375 -6.09375q-0.140625 4.609375 -1.78125 7.421875q1.1875 1.484375 3.34375 2.59375l-0.96875 1.640625q-2.375 -1.5625 -3.328125 -2.96875q-1.71875 1.9375 -5.28125 3.34375l-0.734375 -1.484375q3.859375 -1.5625 5.125 -3.203125q-1.265625 -2.4375 -1.421875 -4.890625q-0.4375 1.109375 -0.890625 1.703125l-1.25 -0.96875q2.21875 -3.265625 2.671875 -8.078125l1.546875 0.359375q0.453125 0.296875 -0.21875 0.453125q-0.21875 1.328125 -0.59375 2.671875l5.046875 0l0 1.40625l-1.265625 0zm-6.890625 -3.5625q-0.453125 1.109375 -1.046875 1.859375l-1.1875 -0.671875q0.59375 -0.96875 1.109375 -2.21875l1.34375 0.65625q0.296875 0.296875 -0.21875 0.375zm-4.75 10.46875q1.03125 0.296875 1.84375 0.671875q0.59375 -0.671875 0.96875 -2.015625l-2.15625 0q-0.296875 0.671875 -0.65625 1.34375zm-1.046875 1.859375l-1.1875 -0.671875q0.75 -1.109375 1.484375 -2.53125l-2.8125 0l0 -1.1875l3.265625 0q0.4375 -0.953125 0.65625 -1.625l1.421875 0.375q0.296875 0.296875 -0.234375 0.359375l-0.4375 0.890625l4.234375 0l0 1.1875l-1.125 0q-0.359375 1.484375 -1.109375 2.53125q0.671875 0.296875 1.40625 0.734375l-0.65625 1.1875q-0.828125 -0.515625 -1.484375 -0.8125q-1.9375 1.9375 -5.203125 2.375l-0.515625 -1.328125q2.890625 -0.296875 4.453125 -1.640625q-0.8125 -0.375 -1.640625 -0.671875l-0.515625 0.828125zm1.484375 -13.953125l1.1875 0q0.59375 0.0625 0.078125 0.4375l0 3.1875l3.78125 0l0 1.1875l-3.109375 0q0.8125 0.96875 2.515625 1.859375l-0.8125 1.265625q-1.265625 -0.75 -2.375 -2.078125l0 1.78125l-1.265625 0l0 -1.40625q-1.1875 1.484375 -3.265625 2.671875l-0.96875 -1.1875q2.3125 -1.1875 3.796875 -2.90625l-3.421875 0l0 -1.1875l3.859375 0l0 -3.625zm-2.078125 3.40625q-0.515625 -1.109375 -1.328125 -1.921875l1.1875 -0.75q0.890625 0.890625 1.328125 1.859375l-1.1875 0.8125zm23.15625 -2.96875l9.71875 0l0 4.671875l-3.328125 0l0 2.15625l4.15625 0l0 1.1875l-4.15625 0l0 2.234375l2.890625 0l0 6.15625l-1.265625 0l0 -0.8125l-4.453125 0l0 1.03125l-1.265625 0l0 -6.375l2.609375 0l0 -2.234375l-3.640625 0l0 1.1875q0 4.96875 -2.15625 7.203125l-1.109375 -1.109375q2.0 -2.015625 2.0 -6.390625l0 -8.90625zm8.015625 11.4375l-4.453125 0l0 2.96875l4.453125 0l0 -2.96875zm-3.109375 -4.609375l0 -2.15625l-3.640625 0l0 2.15625l3.640625 0zm-3.640625 -3.34375l6.96875 0l0 -2.296875l-6.96875 0l0 2.296875zm-1.9375 5.578125l-1.921875 0.65625l0 5.796875q0 1.1875 -1.1875 1.1875l-1.484375 0l-0.21875 -1.40625l1.109375 0q0.296875 0 0.296875 -0.296875l0 -4.828125l-1.5625 0.515625q-0.078125 0.515625 -0.375 0.21875l-0.515625 -1.78125l2.453125 -0.515625l0 -3.859375l-2.078125 0l0 -1.40625l2.078125 0l0 -3.859375l1.40625 0q0.59375 0.078125 0.078125 0.4375l0 3.421875l1.921875 0l0 1.40625l-1.921875 0l0 3.5625l1.78125 -0.515625l0.140625 1.265625z" fill-rule="nonzero"/><path fill="#000000" d="m426.14722 73.28433l0 -2.1875q0 -1.171875 -0.078125 -1.96875l1.671875 0q-0.140625 0.578125 -0.140625 2.03125l0 2.125l2.625 0q1.53125 0 2.25 -0.078125l0 1.609375q-0.71875 -0.078125 -2.25 -0.078125l-2.625 0l0 5.96875l3.203125 0q1.828125 0 2.765625 -0.0625l0 1.53125q-0.9375 -0.078125 -2.6875 -0.078125l-7.4375 0q-1.890625 0 -2.6875 0.078125l0 -1.53125q1.078125 0.0625 2.6875 0.0625l2.703125 0l0 -5.96875l-1.6875 0q-1.890625 0 -2.546875 0.078125l0 -1.609375q1.171875 0.078125 2.546875 0.078125l1.6875 0zm4.65625 -6.484375q1.609375 0 2.484375 -0.078125l0 1.453125q-0.734375 -0.078125 -2.484375 -0.078125l-10.046875 0l0 6.5q0 2.46875 -0.546875 4.515625q-0.546875 2.03125 -1.578125 4.0q-0.578125 -0.578125 -1.53125 -0.9375q1.25 -1.828125 1.6875 -3.46875q0.4375 -1.640625 0.5 -3.671875l0 -5.46875q-0.0625 -1.53125 -0.140625 -2.765625l11.65625 0zm-0.796875 9.03125q1.15625 1.53125 1.890625 2.6875q-0.796875 0.4375 -1.453125 0.875q-0.734375 -1.53125 -1.609375 -2.765625q0.65625 -0.359375 1.171875 -0.796875zm12.015625 5.3125q2.1875 -0.140625 4.671875 -0.578125l0 -2.84375l-2.484375 0l0 0.65625l-1.375 0q0.0625 -2.1875 0.0625 -3.125l0 -2.40625l3.796875 0l0 -1.828125l-3.203125 0q0.0625 -1.171875 0.0625 -2.265625q0 -1.15625 -0.0625 -2.171875l7.796875 0q-0.078125 1.015625 -0.078125 2.171875q0 1.09375 0.078125 2.265625l-3.28125 0l0 1.828125l3.9375 0q-0.078125 0.875 -0.078125 2.328125q0 1.453125 0.078125 2.546875l-3.9375 0l0 2.703125l2.46875 -0.4375q-0.28125 -0.4375 -0.578125 -0.953125q0.734375 -0.21875 1.234375 -0.515625q1.3125 2.125 2.046875 3.4375q-0.734375 0.28125 -1.3125 0.71875q-0.296875 -0.71875 -0.875 -1.75q-0.875 0.15625 -3.5 0.703125q-2.625 0.546875 -4.734375 1.125q-0.21875 -0.953125 -0.734375 -1.609375zm-5.09375 0.15625q1.890625 0 2.328125 -0.21875q0.4375 -0.21875 0.515625 -0.8125l0.28125 -4.4375l-3.421875 0q0.15625 -1.453125 0.1875 -2.65625q0.03125 -1.203125 0.03125 -2.375l3.578125 0l0 -2.84375l-1.53125 0q-1.3125 0 -2.484375 0.078125l0 -1.234375q1.25 0.0625 2.484375 0.0625l2.90625 0q-0.0625 1.171875 -0.0625 2.484375q0 1.234375 0.0625 2.546875l-3.484375 0l-0.15625 2.84375l3.359375 0q-0.15625 1.3125 -0.21875 2.328125l-0.21875 3.71875q-0.15625 1.171875 -1.140625 1.5625q-0.96875 0.40625 -2.28125 0.625q-0.21875 -0.953125 -0.734375 -1.671875zm12.96875 -11.375l0 -2.265625l-5.03125 0l0 2.265625l5.03125 0zm-3.203125 6.703125l0 -2.6875l-2.484375 0l0 2.6875l2.484375 0zm3.78125 0l0 -2.6875l-2.46875 0l0 2.6875l2.46875 0z" fill-rule="nonzero"/><path fill="#000000" fill-opacity="0.0" d="m361.37534 321.69815l109.60629 0l0 61.763794l-109.60629 0z" fill-rule="evenodd"/><path fill="#000000" d="m385.5691 343.49316q-0.890625 2.296875 -2.671875 4.3125l-0.8125 -1.125q1.703125 -2.078125 2.59375 -4.375q-1.109375 -1.625 -2.296875 -3.1875l0.75 -0.75q1.03125 1.1875 1.84375 2.3125q0.296875 -1.78125 0.453125 -3.640625l1.265625 0.296875q0.59375 0.21875 -0.078125 0.4375q-0.21875 1.78125 -0.59375 4.09375q1.03125 1.40625 1.921875 2.734375l-0.734375 1.265625q-0.8125 -1.1875 -1.640625 -2.375zm-3.859375 -7.5625l0 13.734375l-1.484375 0l0 -15.15625l15.375 0l0 13.8125q0 1.1875 -1.125 1.1875l-1.84375 0l-0.296875 -1.40625l1.546875 0q0.234375 0 0.234375 -0.234375l0 -11.9375l-12.40625 0zm8.765625 5.1875q0.4375 -2.21875 0.59375 -4.15625l1.1875 0.15625q0.734375 0.21875 0 0.515625q-0.21875 2.078125 -0.8125 4.59375q1.109375 1.5625 1.921875 2.96875l-0.734375 1.1875q-0.890625 -1.484375 -1.71875 -2.734375q-1.109375 2.890625 -2.59375 4.453125l-0.8125 -1.1875q1.484375 -1.5625 2.453125 -4.390625q-1.125 -1.78125 -2.234375 -3.109375l0.75 -0.8125q0.890625 1.03125 2.0 2.515625z" fill-rule="nonzero"/><path fill="#000000" d="m404.52222 339.5869q0.796875 -0.875 1.296875 -1.75q0.515625 -0.875 0.984375 -1.9375q0.484375 -1.0625 0.78125 -2.4375q0.796875 0.359375 1.75 0.515625q-0.4375 0.640625 -0.953125 1.671875l5.90625 0q-1.09375 2.1875 -1.828125 3.28125q-0.734375 1.09375 -1.53125 1.96875q0.953125 0.65625 2.265625 1.09375q1.3125 0.4375 2.40625 0.65625q-0.375 0.578125 -0.734375 1.515625q-0.734375 -0.21875 -1.3125 -0.421875q-0.140625 1.015625 -0.140625 1.890625l0 2.625q0 1.09375 0.0625 2.25l-1.375 0l0 -1.375l-4.375 0l0 1.53125l-1.390625 0q0.078125 -1.09375 0.078125 -2.046875l0 -2.921875q0 -0.578125 -0.078125 -1.953125q-0.4375 0.203125 -1.234375 0.5q-0.296875 -0.796875 -0.796875 -1.375q1.09375 -0.296875 2.4375 -0.84375q1.34375 -0.546875 2.15625 -1.203125q-0.953125 -1.234375 -1.609375 -2.765625q-0.796875 1.234375 -1.609375 2.328125q-0.4375 -0.4375 -1.15625 -0.796875zm-1.6875 -4.75q-0.5 0.65625 -1.15625 2.015625q-0.65625 1.34375 -1.53125 2.875l2.046875 0q0.796875 -1.53125 1.15625 -2.703125q0.734375 0.59375 1.453125 0.953125q-0.4375 0.515625 -1.3125 2.078125q-0.875 1.5625 -2.390625 4.109375q2.171875 -0.359375 3.125 -0.5q-0.078125 0.9375 0 1.375q-1.75 0.21875 -2.703125 0.40625q-0.9375 0.1875 -2.171875 0.46875q-0.21875 -0.796875 -0.515625 -1.375q0.734375 -0.296875 1.421875 -1.3125q0.6875 -1.015625 1.421875 -2.484375q-1.96875 0.078125 -2.984375 0.515625q-0.21875 -0.65625 -0.515625 -1.453125q0.875 -0.4375 1.75 -2.21875q0.875 -1.796875 1.3125 -3.546875q0.796875 0.515625 1.59375 0.796875zm9.265625 13.125l0 -3.140625l-4.375 0l0 3.140625l4.375 0zm-7.65625 -1.390625q0.140625 0.734375 0.140625 1.3125q-0.796875 0.15625 -2.296875 0.671875q-1.484375 0.5 -2.875 1.078125q-0.28125 -0.875 -0.65625 -1.59375q1.828125 -0.375 3.03125 -0.65625q1.203125 -0.296875 2.65625 -0.8125zm5.546875 -6.625q0.4375 -0.4375 1.046875 -1.3125q0.625 -0.875 1.0625 -1.828125l-3.9375 0q0.734375 1.828125 1.828125 3.140625zm3.484375 3.71875q-1.015625 -0.4375 -1.921875 -0.875q-0.90625 -0.4375 -1.71875 -1.015625q-0.875 0.578125 -1.640625 1.015625q-0.765625 0.4375 -1.703125 0.875l6.984375 0zm11.890625 -6.484375q0 -1.390625 -0.078125 -3.203125l1.53125 0q-0.078125 1.8125 -0.078125 3.125l0 3.71875l3.859375 0q1.390625 0 2.78125 -0.078125l0 1.3125q-1.53125 -0.0625 -2.703125 -0.0625l-1.234375 0q0.515625 2.6875 1.8125 4.265625q1.3125 1.5625 2.921875 2.359375q-0.796875 0.578125 -1.09375 1.234375q-1.828125 -1.015625 -3.171875 -3.09375q-1.34375 -2.078125 -1.703125 -4.765625l-1.46875 0l0 6.046875q0.734375 -0.4375 1.90625 -1.3125l0.4375 1.453125q-1.03125 0.578125 -1.828125 1.125q-0.796875 0.546875 -1.609375 1.203125q-0.359375 -0.578125 -0.875 -1.234375q0.65625 -0.515625 0.59375 -1.453125l0 -5.828125q-1.171875 0 -2.046875 0.0625l0 -1.3125q0.875 0.078125 2.046875 0.078125l0 -3.640625zm-2.125 -2.34375q-0.0625 1.25 -0.0625 2.5625q0 1.234375 0.0625 2.546875l-4.0 0l-0.140625 2.625l4.0 0q-0.078125 1.8125 -0.21875 3.53125q-0.140625 1.71875 -0.25 2.484375q-0.109375 0.765625 -0.921875 1.09375q-0.796875 0.328125 -2.390625 0.46875q-0.078125 -0.65625 -0.59375 -1.609375q1.6875 0.078125 2.265625 -0.140625q0.578125 -0.21875 0.65625 -4.65625l-4.078125 0q0.21875 -2.34375 0.28125 -4.96875l3.9375 0l0 -2.765625l-1.8125 0q-1.171875 0 -2.34375 0.078125l0 -1.3125q1.171875 0.0625 2.265625 0.0625l3.34375 0zm9.046875 0.4375q-1.828125 2.625 -3.71875 4.75q-0.578125 -0.65625 -1.015625 -0.953125q1.96875 -1.96875 3.421875 -4.65625q0.578125 0.421875 1.3125 0.859375z" fill-rule="nonzero"/><path fill="#000000" d="m436.83472 348.10254q5.875 -2.015625 6.234375 -8.984375l-5.34375 0l0 -1.640625l5.421875 0l0 -3.78125l1.640625 0q0.734375 0.15625 0.0625 0.59375l0 3.1875l6.53125 0q-0.140625 5.9375 -0.296875 8.90625q-0.140625 2.984375 -2.21875 2.984375l-2.96875 0l-0.296875 -1.640625l2.515625 0q1.1875 0 1.265625 -1.1875q0.15625 -2.15625 0.296875 -7.421875l-4.890625 0q0 8.015625 -7.125 10.765625l-0.828125 -1.78125z" fill-rule="nonzero"/><path fill="#cfe2f3" d="m624.4147 171.37796l-40.148254 -33.685043l16.84253 0c-23.20337 -59.490265 -104.26254 -101.05512 -197.07614 -101.05512l33.685028 0l0 0c92.8136 0 173.87274 41.564857 197.07617 101.05512l16.84253 0z" fill-rule="evenodd"/><path fill="#a5b4c2" d="m420.87534 37.099888l0 0c-105.51871 5.8000107 -186.69685 64.18581 -186.69685 134.27808l-33.685043 0l0 0c0 -37.67337 23.825562 -73.62617 65.69861 -99.1393c41.873016 -25.513119 97.96884 -38.256176 154.68329 -35.138775z" fill-rule="evenodd"/><path fill="#000000" fill-opacity="0.0" d="m420.87534 37.099888l0 0c-105.51871 5.8000107 -186.69685 64.18581 -186.69685 134.27808l-33.685043 0l0 0c0 -74.41494 91.127686 -134.74017 203.53937 -134.74017l33.685028 0l0 0c92.8136 0 173.87274 41.564857 197.07617 101.05512l16.84253 0l-27.221863 33.685043l-40.148254 -33.685043l16.84253 0c-23.20337 -59.490265 -104.26254 -101.05512 -197.07614 -101.05512" fill-rule="evenodd"/><path stroke="#0b5394" stroke-width="1.0" stroke-linejoin="round" stroke-linecap="butt" d="m420.87534 37.099888l0 0c-105.51871 5.8000107 -186.69685 64.18581 -186.69685 134.27808l-33.685043 0l0 0c0 -74.41494 91.127686 -134.74017 203.53937 -134.74017l33.685028 0l0 0c92.8136 0 173.87274 41.564857 197.07617 101.05512l16.84253 0l-27.221863 33.685043l-40.148254 -33.685043l16.84253 0c-23.20337 -59.490265 -104.26254 -101.05512 -197.07614 -101.05512" fill-rule="evenodd"/><path fill="#d0e0e3" d="m221.06036 239.28084l40.148254 33.685043l-16.842514 0c23.203415 59.490265 104.26256 101.055115 197.07616 101.055115l-33.685028 0l0 0c-92.81363 0 -173.87276 -41.56485 -197.07616 -101.055115l-16.84253 0z" fill-rule="evenodd"/><path fill="#a6b3b5" d="m424.59973 373.5589l0 0c105.51874 -5.8000183 186.69684 -64.18579 186.69684 -134.27806l33.68506 0l0 0c0 37.673355 -23.825562 73.626175 -65.69861 99.1393c-41.873047 25.513123 -97.96884 38.256165 -154.68329 35.138763z" fill-rule="evenodd"/><path fill="#000000" fill-opacity="0.0" d="m424.59973 373.5589l0 0c105.51874 -5.8000183 186.69684 -64.18579 186.69684 -134.27806l33.68506 0l0 0c0 74.41493 -91.127686 134.74016 -203.53937 134.74016l-33.685028 0l0 0c-92.81363 0 -173.87276 -41.56485 -197.07616 -101.055115l-16.84253 0l27.221817 -33.685043l40.148254 33.685043l-16.842514 0c23.203415 59.490265 104.26256 101.055115 197.07616 101.055115" fill-rule="evenodd"/><path stroke="#38761d" stroke-width="1.0" stroke-linejoin="round" stroke-linecap="butt" d="m424.59973 373.5589l0 0c105.51874 -5.8000183 186.69684 -64.18579 186.69684 -134.27806l33.68506 0l0 0c0 74.41493 -91.127686 134.74016 -203.53937 134.74016l-33.685028 0l0 0c-92.81363 0 -173.87276 -41.56485 -197.07616 -101.055115l-16.84253 0l27.221817 -33.685043l40.148254 33.685043l-16.842514 0c23.203415 59.490265 104.26256 101.055115 197.07616 101.055115" fill-rule="evenodd"/><path fill="#000000" fill-opacity="0.0" d="m322.95013 174.4462l186.4567 0l0 61.76378l-186.4567 0z" fill-rule="evenodd"/><path fill="#000000" d="m354.20972 214.96307q2.578125 -2.59375 4.453125 -6.484375l2.90625 1.609375q2.375 1.78125 -0.1875 2.046875q-1.375 2.609375 -3.6875 5.390625l-3.484375 -2.5625zm9.328125 -16.796875q-1.0625 -3.671875 -2.484375 -6.5l3.328125 -1.359375q1.5625 2.828125 2.625 6.3125l-3.46875 1.546875zm-5.984375 2.25l0 -12.4375l22.6875 0l0 12.4375l-9.375 0l0 0.8125l11.125 0l0 3.6875l-11.125 0l0 1.0625l13.375 0l0 3.6875l-30.0625 0l0 -3.6875l12.875 0l0 -1.0625l-10.625 0l0 -3.6875l10.625 0l0 -0.8125l-4.09375 0l-5.40625 0zm12.96875 -3.546875q1.703125 -3.234375 2.78125 -6.609375l2.8125 1.15625q2.71875 1.515625 0.0625 2.046875q-0.75 1.828125 -2.296875 4.59375l-3.359375 -1.1875zm9.953125 20.46875q-1.828125 -3.484375 -4.203125 -6.765625l3.0625 -1.90625q2.78125 3.078125 4.625 6.296875l-3.484375 2.375zm-8.78125 -0.359375q-0.625 -3.28125 -2.109375 -7.0l3.5625 -1.125q2.0625 3.671875 2.703125 6.859375l-4.15625 1.265625zm-7.265625 -0.03125q0 -3.46875 -1.03125 -7.28125l3.75 -0.9375q1.34375 4.15625 1.5 7.296875l-4.21875 0.921875zm-3.0625 -20.21875l5.6875 0l0 -5.0625l-5.6875 0l0 5.0625zm15.0625 -5.0625l-5.5625 0l0 5.0625l5.5625 0l0 -5.0625zm17.4375 14.21875q-1.671875 4.859375 -3.5625 9.25q0.734375 1.71875 -1.375 1.375l-2.953125 -2.484375q1.640625 -2.6875 4.671875 -10.40625l3.21875 2.265625zm-2.0 -3.40625q-2.390625 -1.921875 -5.59375 -3.59375l2.03125 -3.15625q2.984375 0.9375 5.765625 3.265625l-2.203125 3.484375zm14.1875 4.0l0 -3.3125l-2.9375 0l0 3.3125l2.9375 0zm3.4375 4.6875l-3.4375 0l0 -1.375l-2.9375 0l0 2.0l-3.4375 0l0 -11.9375l9.8125 0l0 11.3125zm1.375 -13.125l-12.6875 0l0 -3.6875l12.6875 0l0 3.6875zm3.625 16.09375q0 2.40625 -2.28125 2.40625l-3.15625 0l-0.78125 -3.6875l2.5625 0q0 0.15625 -0.15625 0.15625l0 -20.84375l-12.3125 0l0 24.375l-3.8125 0l0 -28.0625l19.9375 0l0 25.65625zm-25.171875 -26.203125q3.15625 1.40625 5.46875 3.890625l-2.25 3.375q-2.109375 -2.28125 -5.25 -3.9375l2.03125 -3.328125zm48.109375 19.953125q-1.96875 -4.046875 -2.328125 -6.1875q-0.09375 0.1875 -2.15625 2.765625l-2.1875 -2.96875q3.84375 -4.78125 5.96875 -13.953125l2.703125 0.84375q2.75 1.03125 0.203125 1.875q-0.546875 2.3125 -0.890625 3.34375l8.5 0l0 3.6875l-2.53125 0q-0.21875 5.78125 -3.0625 10.625q2.34375 2.5625 6.125 4.390625l-1.46875 4.03125q-5.171875 -2.953125 -6.90625 -5.40625q-2.65625 2.984375 -8.46875 5.828125l-1.890625 -3.59375q5.421875 -2.09375 8.390625 -5.28125zm-8.59375 -1.140625q1.34375 1.046875 3.328125 3.640625l-2.484375 3.25q-1.84375 -2.6875 -2.84375 -3.609375q-1.78125 2.703125 -6.984375 6.171875l-1.90625 -3.453125q4.3125 -2.359375 6.296875 -5.171875q-1.09375 -1.203125 -3.203125 -2.828125l2.1875 -2.78125q2.28125 1.796875 3.046875 2.5q0.46875 -0.859375 1.609375 -3.625l2.296875 1.234375q2.28125 1.625 0.015625 1.90625q-0.515625 1.453125 -1.359375 2.765625zm-0.015625 -11.59375q2.59375 1.609375 4.203125 3.71875l-2.3125 3.28125q-1.828125 -2.65625 -4.234375 -4.09375l2.34375 -2.90625zm-10.390625 0.390625l0 -3.6875l5.875 0l0 -4.625l3.078125 0q2.703125 0.34375 0.734375 1.75l0 2.875l5.5 0l0 3.6875l-15.1875 0zm6.765625 1.171875q2.3125 1.65625 -0.359375 1.921875q-1.625 2.421875 -5.375 6.03125l-1.96875 -3.140625q3.453125 -3.171875 5.234375 -6.296875l2.46875 1.484375zm14.375 7.75q1.609375 -3.59375 1.609375 -7.171875l-3.375 0q0.421875 4.40625 1.765625 7.171875z" fill-rule="nonzero"/><path fill="#000000" d="m466.8191 186.24432q1.125 2.90625 1.734375 4.609375l4.03125 0q2.609375 0 6.15625 -0.15625l0 3.625q-3.546875 -0.15625 -6.15625 -0.15625l-15.71875 0q0 6.75 -0.25 9.90625q-0.25 3.15625 -0.953125 6.484375q-0.703125 3.3125 -3.0 7.25q-1.390625 -1.78125 -3.3125 -2.84375q2.0 -2.609375 2.84375 -6.3125q0.859375 -3.71875 0.984375 -8.046875q0.125 -4.34375 -0.015625 -9.75l11.109375 0q-0.1875 -0.875 -1.40625 -3.3125q2.015625 -0.40625 3.953125 -1.296875zm11.09375 11.140625q-1.59375 3.5 -2.53125 6.125q-0.9375 2.609375 -3.3125 8.21875l2.515625 0q1.734375 0 4.53125 -0.171875l0 4.03125q-2.796875 -0.171875 -4.53125 -0.171875l-13.375 0q-2.109375 0 -5.78125 0.15625l0 -4.0q3.546875 0.15625 5.78125 0.15625l6.96875 0q1.671875 -3.46875 3.09375 -7.671875q1.421875 -4.21875 2.21875 -8.296875q2.3125 1.25 4.421875 1.625zm-18.359375 1.0q3.609375 5.6875 5.484375 10.15625q-1.375 0.78125 -3.25 1.90625q-2.78125 -6.234375 -5.34375 -9.953125q1.65625 -1.28125 3.109375 -2.109375zm5.984375 -2.96875q2.890625 5.046875 5.015625 9.875q-1.65625 0.921875 -3.59375 1.890625q-1.71875 -4.90625 -4.5625 -10.015625q1.625 -0.609375 3.140625 -1.75z" fill-rule="nonzero"/><path fill="#000000" fill-opacity="0.0" d="m29.76509 186.44226l109.60629 0l0 38.677155l-109.60629 0z" fill-rule="evenodd"/><path fill="#000000" d="m53.958866 208.23726q-0.890625 2.296875 -2.671875 4.3125l-0.8125 -1.125q1.703125 -2.078125 2.59375 -4.375q-1.109375 -1.625 -2.296875 -3.1875l0.75 -0.75q1.03125 1.1875 1.84375 2.3125q0.296875 -1.78125 0.453125 -3.640625l1.265625 0.296875q0.59375 0.21875 -0.078125 0.4375q-0.21875 1.78125 -0.59375 4.09375q1.03125 1.40625 1.921875 2.734375l-0.734375 1.265625q-0.8125 -1.1875 -1.640625 -2.375zm-3.859375 -7.5625l0 13.734375l-1.484375 0l0 -15.15625l15.375 0l0 13.8125q0 1.1875 -1.125 1.1875l-1.84375 0l-0.296875 -1.40625l1.546875 0q0.234375 0 0.234375 -0.234375l0 -11.9375l-12.40625 0zm8.765625 5.1875q0.4375 -2.21875 0.59375 -4.15625l1.1875 0.15625q0.734375 0.21875 0 0.515625q-0.21875 2.078125 -0.8125 4.59375q1.109375 1.5625 1.921875 2.96875l-0.734375 1.1875q-0.890625 -1.484375 -1.71875 -2.734375q-1.109375 2.890625 -2.59375 4.453125l-0.8125 -1.1875q1.484375 -1.5625 2.453125 -4.390625q-1.125 -1.78125 -2.234375 -3.109375l0.75 -0.8125q0.890625 1.03125 2.0 2.515625z" fill-rule="nonzero"/><path fill="#000000" d="m72.911995 204.33101q0.796875 -0.875 1.296875 -1.75q0.515625 -0.875 0.984375 -1.9375q0.484375 -1.0625 0.78125 -2.4375q0.796875 0.359375 1.75 0.515625q-0.4375 0.640625 -0.953125 1.671875l5.90625 0q-1.09375 2.1875 -1.828125 3.28125q-0.734375 1.09375 -1.53125 1.96875q0.953125 0.65625 2.265625 1.09375q1.3125 0.4375 2.40625 0.65625q-0.375 0.578125 -0.734375 1.515625q-0.734375 -0.21875 -1.3125 -0.421875q-0.140625 1.015625 -0.140625 1.890625l0 2.625q0 1.09375 0.0625 2.25l-1.375 0l0 -1.375l-4.375 0l0 1.53125l-1.390625 0q0.078125 -1.09375 0.078125 -2.046875l0 -2.921875q0 -0.578125 -0.078125 -1.953125q-0.4375 0.203125 -1.234375 0.5q-0.296875 -0.796875 -0.796875 -1.375q1.09375 -0.296875 2.4375 -0.84375q1.34375 -0.546875 2.15625 -1.203125q-0.953125 -1.234375 -1.609375 -2.765625q-0.796875 1.234375 -1.609375 2.328125q-0.4375 -0.4375 -1.15625 -0.796875zm-1.6875 -4.75q-0.5 0.65625 -1.15625 2.015625q-0.65625 1.34375 -1.53125 2.875l2.046875 0q0.796875 -1.53125 1.15625 -2.703125q0.734375 0.59375 1.453125 0.953125q-0.4375 0.515625 -1.3125 2.078125q-0.875 1.5625 -2.390625 4.109375q2.171875 -0.359375 3.125 -0.5q-0.078125 0.9375 0 1.375q-1.75 0.21875 -2.703125 0.40625q-0.9375 0.1875 -2.171875 0.46875q-0.21875 -0.796875 -0.515625 -1.375q0.734375 -0.296875 1.421875 -1.3125q0.6875 -1.015625 1.421875 -2.484375q-1.96875 0.078125 -2.984375 0.515625q-0.21875 -0.65625 -0.515625 -1.453125q0.875 -0.4375 1.75 -2.21875q0.875 -1.796875 1.3125 -3.546875q0.796875 0.515625 1.59375 0.796875zm9.265625 13.125l0 -3.140625l-4.375 0l0 3.140625l4.375 0zm-7.65625 -1.390625q0.140625 0.734375 0.140625 1.3125q-0.796875 0.15625 -2.296875 0.671875q-1.484375 0.5 -2.875 1.078125q-0.28125 -0.875 -0.65625 -1.59375q1.828125 -0.375 3.03125 -0.65625q1.203125 -0.296875 2.65625 -0.8125zm5.546875 -6.625q0.4375 -0.4375 1.046875 -1.3125q0.625 -0.875 1.0625 -1.828125l-3.9375 0q0.734375 1.828125 1.828125 3.140625zm3.484375 3.71875q-1.015625 -0.4375 -1.921875 -0.875q-0.90625 -0.4375 -1.71875 -1.015625q-0.875 0.578125 -1.640625 1.015625q-0.765625 0.4375 -1.703125 0.875l6.984375 0z" fill-rule="nonzero"/><path fill="#000000" d="m97.25574 210.09663q-1.25 -2.59375 -1.625 -4.90625q-0.59375 1.046875 -1.484375 2.15625l-0.8124924 -1.109375q2.1406174 -2.671875 3.3281174 -7.796875l1.1875 0.375q0.59375 0.21875 -0.0625 0.4375q-0.375 1.5625 -0.75 2.671875l5.203125 0l0 1.421875l-1.484375 0q-0.15625 3.703125 -1.9375 6.75q1.640625 1.78125 3.640625 2.75l-0.59375 1.625q-2.59375 -1.484375 -3.859375 -3.265625q-1.859375 2.078125 -4.9062424 3.5625l-0.734375 -1.40625q2.8906174 -1.109375 4.8906174 -3.265625zm-6.0781174 -0.671875q1.03125 0.8125 2.0 2.078125l-0.96875 1.265625q-0.8125 -1.1875 -1.78125 -2.078125q-1.25 1.921875 -3.921875 3.71875l-0.75 -1.34375q2.296875 -1.265625 3.71875 -3.265625q-0.890625 -0.96875 -1.859375 -1.703125l0.8125 -1.046875q1.046875 0.8125 1.859375 1.5625q0.515625 -0.96875 1.03125 -2.234375l0.96875 0.53125q0.515625 0.359375 -0.078125 0.4375q-0.359375 1.046875 -1.03125 2.078125zm0.59375 -6.453125q1.1875 0.734375 1.921875 1.703125l-0.890625 1.265625q-0.8125 -1.1875 -1.921875 -1.859375l0.890625 -1.109375zm-5.859375 -0.671875l0 -1.40625l3.484375 0l0 -2.75l1.40625 0q0.59375 0.078125 0.078125 0.453125l0 2.296875l3.2656174 0l0 1.40625l-8.234367 0zm3.40625 1.40625q0.515625 0.375 -0.21875 0.453125q-1.046875 1.5625 -2.890625 3.34375l-0.75 -1.1875q1.859375 -1.71875 2.75 -3.265625l1.109375 0.65625zm8.765617 5.203125q1.328125 -2.96875 1.328125 -5.5625l-2.8125 0q0.296875 3.109375 1.484375 5.5625z" fill-rule="nonzero"/><path fill="#000000" d="m113.84949 197.98726q0.5 1.3125 0.9375 2.546875l2.625 0q1.53125 0 3.203125 -0.078125l0 1.3125q-1.671875 -0.0625 -3.203125 -0.0625l-9.546875 0q0 4.296875 -0.140625 6.125q-0.140625 1.8125 -0.546875 3.71875q-0.40625 1.890625 -1.421875 3.640625q-0.515625 -0.65625 -1.3125 -1.09375q0.953125 -1.25 1.453125 -3.46875q0.515625 -2.21875 0.578125 -4.765625q0.078125 -2.5625 0.015625 -5.328125l6.546875 0q-0.21875 -1.015625 -0.71875 -2.03125q0.71875 -0.15625 1.53125 -0.515625zm6.109375 6.265625q-0.71875 1.609375 -1.265625 3.140625q-0.546875 1.515625 -2.15625 5.3125l2.046875 0q1.015625 0 2.25 -0.078125l0 1.53125q-1.234375 -0.0625 -2.25 -0.0625l-7.796875 0q-1.25 0 -2.984375 0.0625l0 -1.53125q1.671875 0.078125 2.984375 0.078125l4.296875 0q1.09375 -2.265625 1.921875 -4.734375q0.84375 -2.484375 1.203125 -4.375q0.953125 0.515625 1.75 0.65625zm-10.265625 0.796875q1.890625 3.0 2.84375 5.25q-0.515625 0.296875 -1.25 0.734375q-1.453125 -3.28125 -2.765625 -5.171875q0.65625 -0.515625 1.171875 -0.8125zm3.5 -1.671875q1.453125 2.546875 2.546875 5.03125q-0.65625 0.359375 -1.390625 0.71875q-0.875 -2.46875 -2.328125 -5.09375q0.578125 -0.21875 1.171875 -0.65625z" fill-rule="nonzero"/><path fill="#000000" fill-opacity="0.0" d="m703.1457 185.29659l109.60626 0l0 38.67717l-109.60626 0z" fill-rule="evenodd"/><path fill="#000000" d="m734.16754 200.04471l3.640625 0l0 4.078125l-1.484375 0l0 -2.671875l-13.0625 0l0 2.890625l-1.484375 0l0 -4.296875l10.765625 0l1.5625 -3.265625l1.546875 0.734375q0.296875 0.375 -0.21875 0.453125l-1.265625 2.078125zm-4.515625 -3.1875q1.109375 1.40625 1.484375 2.296875l-1.5625 0.8125q-0.59375 -1.328125 -1.34375 -2.296875l1.421875 -0.8125zm-0.53125 8.53125l1.265625 0.078125l2.15625 -1.265625l-7.875 0l0 -1.1875l9.140625 0l0.21875 -0.21875l1.265625 1.1875q0.21875 0.296875 -0.375 0.296875q-2.234375 1.40625 -4.3125 2.296875l0 0.734375l7.71875 0l0 1.421875l-7.71875 0l0 3.78125q0 1.1875 -1.1875 1.1875l-2.0 0l-0.296875 -1.640625l1.703125 0q0.296875 0 0.296875 -0.296875l0 -3.03125l-7.71875 0l0 -1.421875l7.71875 0l0 -1.921875zm-3.859375 -5.421875q-0.65625 -1.328125 -1.328125 -2.078125l1.40625 -0.8125q0.8125 0.890625 1.484375 2.078125l-1.5625 0.8125z" fill-rule="nonzero"/><path fill="#000000" d="m746.5738 199.60721q-2.109375 0 -4.0 0.078125l0 -1.46875q2.40625 0.078125 3.640625 0.078125l9.109375 0q-0.140625 1.015625 -0.21875 3.140625l-0.296875 9.6875q-0.140625 1.96875 -1.15625 2.328125q-1.015625 0.375 -3.359375 0.515625q-0.21875 -0.875 -0.796875 -1.75q2.109375 0.140625 2.90625 -0.03125q0.8125 -0.1875 0.953125 -1.359375l0.296875 -11.21875l-7.078125 0zm4.96875 6.5625q0 0.796875 0.140625 1.53125q-4.15625 1.53125 -8.671875 3.78125q-0.359375 -0.875 -1.015625 -1.671875q0.9375 -0.21875 3.734375 -1.234375q2.8125 -1.03125 5.8125 -2.40625zm-7.0 -5.109375q3.125 1.828125 4.65625 3.0q-0.28125 0.4375 -1.015625 1.375q-1.3125 -1.234375 -4.515625 -3.125q0.5 -0.65625 0.875 -1.25z" fill-rule="nonzero"/><path fill="#000000" d="m770.6363 208.95096q-1.25 -2.59375 -1.625 -4.90625q-0.59375 1.046875 -1.484375 2.15625l-0.8125 -1.109375q2.140625 -2.671875 3.328125 -7.796875l1.1875 0.375q0.59375 0.21875 -0.0625 0.4375q-0.375 1.5625 -0.75 2.671875l5.203125 0l0 1.421875l-1.484375 0q-0.15625 3.703125 -1.9375 6.75q1.640625 1.78125 3.640625 2.75l-0.59375 1.625q-2.59375 -1.484375 -3.859375 -3.265625q-1.859375 2.078125 -4.90625 3.5625l-0.734375 -1.40625q2.890625 -1.109375 4.890625 -3.265625zm-6.078125 -0.671875q1.03125 0.8125 2.0 2.078125l-0.96875 1.265625q-0.8125 -1.1875 -1.78125 -2.078125q-1.25 1.921875 -3.921875 3.71875l-0.75 -1.34375q2.296875 -1.265625 3.71875 -3.265625q-0.890625 -0.96875 -1.859375 -1.703125l0.8125 -1.046875q1.046875 0.8125 1.859375 1.5625q0.515625 -0.96875 1.03125 -2.234375l0.96875 0.53125q0.515625 0.359375 -0.078125 0.4375q-0.359375 1.046875 -1.03125 2.078125zm0.59375 -6.453125q1.1875 0.734375 1.921875 1.703125l-0.890625 1.265625q-0.8125 -1.1875 -1.921875 -1.859375l0.890625 -1.109375zm-5.859375 -0.671875l0 -1.40625l3.484375 0l0 -2.75l1.40625 0q0.59375 0.078125 0.078125 0.453125l0 2.296875l3.265625 0l0 1.40625l-8.234375 0zm3.40625 1.40625q0.515625 0.375 -0.21875 0.453125q-1.046875 1.5625 -2.890625 3.34375l-0.75 -1.1875q1.859375 -1.71875 2.75 -3.265625l1.109375 0.65625zm8.765625 5.203125q1.328125 -2.96875 1.328125 -5.5625l-2.8125 0q0.296875 3.109375 1.484375 5.5625z" fill-rule="nonzero"/><path fill="#000000" d="m787.23004 196.84158q0.5 1.3125 0.9375 2.546875l2.625 0q1.53125 0 3.203125 -0.078125l0 1.3125q-1.671875 -0.0625 -3.203125 -0.0625l-9.546875 0q0 4.296875 -0.140625 6.125q-0.140625 1.8125 -0.546875 3.71875q-0.40625 1.890625 -1.421875 3.640625q-0.515625 -0.65625 -1.3125 -1.09375q0.953125 -1.25 1.453125 -3.46875q0.515625 -2.21875 0.578125 -4.765625q0.078125 -2.5625 0.015625 -5.328125l6.546875 0q-0.21875 -1.015625 -0.71875 -2.03125q0.71875 -0.15625 1.53125 -0.515625zm6.109375 6.265625q-0.71875 1.609375 -1.265625 3.140625q-0.546875 1.515625 -2.15625 5.3125l2.046875 0q1.015625 0 2.25 -0.078125l0 1.53125q-1.234375 -0.0625 -2.25 -0.0625l-7.796875 0q-1.25 0 -2.984375 0.0625l0 -1.53125q1.671875 0.078125 2.984375 0.078125l4.296875 0q1.09375 -2.265625 1.921875 -4.734375q0.84375 -2.484375 1.203125 -4.375q0.953125 0.515625 1.75 0.65625zm-10.265625 0.796875q1.890625 3.0 2.84375 5.25q-0.515625 0.296875 -1.25 0.734375q-1.453125 -3.28125 -2.765625 -5.171875q0.65625 -0.515625 1.171875 -0.8125zm3.5 -1.671875q1.453125 2.546875 2.546875 5.03125q-0.65625 0.359375 -1.390625 0.71875q-0.875 -2.46875 -2.328125 -5.09375q0.578125 -0.21875 1.171875 -0.65625z" fill-rule="nonzero"/></g></svg>