<svg fill="none" stroke-linecap="square" stroke-miterlimit="10" viewBox="0 0 823.57480315 714.97112861" xmlns="http://www.w3.org/2000/svg" xmlns:xlink="http://www.w3.org/1999/xlink"><clipPath id="a"><path d="m0 0h823.5748v714.9711h-823.5748z"/></clipPath><g clip-path="url(#a)"><path d="m0 0h823.5748v714.9711h-823.5748z" fill="none"/><path d="m130.19118 87.485565h133.67644c17.511963 0 31.708252 20.71067 31.708252 46.258575 0 25.547913-14.196289 46.25859-31.708252 46.25859h-133.67644c-17.511978 0-31.708237-20.710678-31.708237-46.25859 0-25.547905 14.196259-46.258575 31.708237-46.258575z" fill="#cfe2f3" fill-rule="evenodd"/><path d="m130.19118 87.485565h133.67644c17.511963 0 31.708252 20.71067 31.708252 46.258575 0 25.547913-14.196289 46.25859-31.708252 46.25859h-133.67644c-17.511978 0-31.708237-20.710678-31.708237-46.25859 0-25.547905 14.196259-46.258575 31.708237-46.258575z" fill-rule="evenodd" stroke="#000" stroke-linecap="butt" stroke-linejoin="round"/><path d="m178.96689 135.53415q.8125-1.578125 1.0625-6.09375h-2.125q.25 4.515625 1.0625 6.09375zm3.953125-6.09375q-.171875 5.453125-2.125 8.828125 1.21875 1.53125 4.3125 3.125l-1.765625 2.96875q-3.515625-2.3125-4.421875-3.640625-1.8125 2.046875-6.859375 4.046875l-1.375-2.78125q5.25-2.109375 6.5625-3.8125-1.5-2.90625-1.4375-4.609375.125.125-.78125 1.328125l-2.375-1.8125q3.015625-4.40625 3.625-10.953133l2.609375.625q1.609375 1.078125-.046875 1.453125-.234375 1.375-.53125 2.453125h6.21875v2.7812576h-1.609375zm-8.84375-4.5468826q-.484375 1.203125-1.546875 2.53125l-2.328125-1.296875q1-1.640625 1.859375-3.6875l2.234375 1.125q1.140625 1.140625-.21875 1.328125zm-5.609375 12.453133q.734375.21875 1.46875.546875.421875-.484375.6875-1.421875h-1.734375q-.25.5625-.421875.875zm-1.890625 3.328125-2.390625-1.34375q1.21875-1.828125 1.765625-2.859375h-3.234375v-2.5h4.3125q.40625-.90625.828125-2.171875l2.375.625q1.171875 1.1875-.21875 1.375l-.078125.171875h5.03125v2.5h-1.515625q-.390625 1.59375-1.03125 2.484375.3125.140625 1.6875.96875l-1.34375 2.375q-1.4375-.921875-1.9375-1.140625-2.3125 2.3125-7 2.953125l-1.03125-2.671875q4.15625-.421875 5.40625-1.5-.296875-.125-.9375-.359375zm1.203125-18.796883h2.03125q2.046875.25.5625 1.3125v3.28125h4.78125v2.5000076h-3.359375q.265625.328125 2.828125 1.65625l-1.59375 2.453125q-2.078125-1.21875-2.65625-1.921875v1.375h-2.59375v-.859375q-.671875.84375-3.75 2.59375l-1.875-2.296875q3.375-1.75 4.46875-3h-3.71875v-2.5000076h4.875zm-2.328125 5.5625q-.875-1.859375-2.28125-3.28125l2.375-1.484375q1.46875 1.46875 2.234375 3.15625zm28.953125-5h13.28125v6.9062576h-4.21875v1.71875h5.25v2.5h-5.25v1.8125h3.65625v8.78125h-2.59375v-1.03125h-4.625v1.3125h-2.59375v-9.0625h3.28125v-1.8125h-3.59375v1q0 6.484375-3.21875 9.8125l-2.109375-2.125q2.734375-2.734375 2.734375-8.0625v-11.750008zm10.125 15.437508h-4.625v2.75h4.625zm-3.9375-6.8125v-1.71875h-3.59375v1.71875zm-3.59375-4.2187576h7.8125v-1.90625h-7.8125zm-2.390625 7.8750076-2.484375.859375v6.953125q0 2-2 2h-2.296875l-.4375-2.78125h1.984375q0 .125-.125.125v-5.40625l-1.015625.34375q-.1875 1.34375-1.359375.171875l-.84375-2.890625 3.21875-.6875v-3.96875h-2.625v-2.7812576h2.625v-4.875h2.3125q2.046875.25.5625 1.3125v3.5625h2.4375v2.7812576h-2.4375v3.328125l2.171875-.625zm15.75-1.625q4.234375-3.84375 5.328125-10.593758l2.609375.703125q1.765625.5.046875 1.546875-.171875 1.21875-1.109375 3.5156326l.125.03125q1.046875.796875-.015625 1.40625v14.078125h-2.875v-10.484375q-.234375.375-2.296875 2.296875l-1.8125-2.5zm22.046875 4.25-.34375 2.625q-.4375 3.15625-3.21875 3.15625h-6.28125q-2.1875 0-2.1875-2.09375v-18.125008h2.3125q2.546875.25.5625 1.359375v5.9062576q2.8125-1.109375 6.140625-3.6093826l1.6875 2.0156326q1.65625 1.421875-.703125 1.421875-3.953125 2.015625-7.125 3.3125v6.5q0 .25.15625.25h4.96875q.578125 0 .625-.484375l.234375-2.796875 3.171875.5625z" fill="#000"/><path d="m559.5508 87.485565h133.67639c17.512024 0 31.708252 20.71067 31.708252 46.258575 0 25.547913-14.196228 46.25859-31.708252 46.25859h-133.67639c-17.512024 0-31.708252-20.710678-31.708252-46.25859 0-25.547905 14.196228-46.258575 31.708252-46.258575z" fill="#d9d2e9" fill-rule="evenodd"/><path d="m559.5508 87.485565h133.67639c17.512024 0 31.708252 20.71067 31.708252 46.258575 0 25.547913-14.196228 46.25859-31.708252 46.25859h-133.67639c-17.512024 0-31.708252-20.710678-31.708252-46.25859 0-25.547905 14.196228-46.258575 31.708252-46.258575z" fill-rule="evenodd" stroke="#000" stroke-linecap="butt" stroke-linejoin="round"/><path d="m591.7015 140.3154v-2.5h7.03125v-.40625h-1.09375-2v-9.906258h5.96875l-.5625-.359375q2.25-2.125 3.296875-5.71875l2.390625.953125q2.1875.828125-.125 1.453125l.09375-.171875h6.90625v2.5h-3.921875l.734375 1.234375-2.9375.7343826-.890625-1.9687576h-1.0625q-.4375.8125-.859375 1.34375h5.46875v9.906258h-2.53125v.40625h6.46875v2.5h-6.46875v4.03125h-2.875v-4.03125h-3.359375q-.265625 3.203125-7.171875 4.484375l-.875-2.78125q4.84375-.59375 5.09375-1.703125zm6.40625-17.843758q2.1875.828125-.109375 1.453125l.078125-.234375 5.21875-.03125v2.5h-2.578125l.6875 1.265625-3.078125.5937576-.578125-1.8593826h-.75q-1.125 1.9843826-3.140625 3.6406326l-2.109375-2.1093826q2.921875-2.5 4.078125-6.171875zm9.4375 7.5312576h-9.3125v.21875h9.3125zm0 2.5625v-.21875h-9.3125v.21875zm0 2.34375v-.21875h-9.3125v.21875zm-2.8125 2.90625v-.40625h-3.125v.40625zm27.375 1.484375-1.890625-2.390625 2.359375-1.796875q3.53125 3.84375 5.46875 7.5l-2.8125 1.875q-.90625-1.796875-1.359375-2.453125l-10.75 1.046875q-.171875 1.375-1.359375.1875l-.96875-3.28125 3.265625-.09375q1.625-2.828125 2.65625-5.484375h-5.109375v-2.78125h6.1875v-2.84375h-4.59375v-2.7812576h4.59375v-3.75h2.609375q2.171875.4375.546875 1.515625v2.234375h5.0625v2.7812576h-5.0625v2.84375h6.84375v2.78125h-7.484375q-1.390625 3.015625-2.828125 5.296875zm-9.734375-3.265625q-2.0625 4.75-3.40625 7.34375.203125 1.671875-1.265625.6875l-2.296875-1.71875q2.0625-2.609375 4.40625-7.734375zm-2.59375-1.75q-1.75-1.875-4.015625-3.5625l1.921875-2.34375q2.796875 1.78125 4.125 3.484375zm1.0625-5.203125q-2.046875-1.8125076-4.0625-3.2343826l1.9375-2.34375q2.390625 1.484375 4.171875 3.265625zm18.875 4.015625q4.234375-3.84375 5.328125-10.593758l2.609375.703125q1.765625.5.046875 1.546875-.171875 1.21875-1.109375 3.5156326l.125.03125q1.046875.796875-.015625 1.40625v14.078125h-2.875v-10.484375q-.234375.375-2.296875 2.296875l-1.8125-2.5zm22.046875 4.25-.34375 2.625q-.4375 3.15625-3.21875 3.15625h-6.28125q-2.1875 0-2.1875-2.09375v-18.125008h2.3125q2.546875.25.5625 1.359375v5.9062576q2.8125-1.109375 6.140625-3.6093826l1.6875 2.0156326q1.65625 1.421875-.703125 1.421875-3.953125 2.015625-7.125 3.3125v6.5q0 .25.15625.25h4.96875q.578125 0 .625-.484375l.234375-2.796875 3.171875.5625z" fill="#000"/><path d="m344.9497 313.74014h133.67645c17.511963 0 31.708221 20.710693 31.708221 46.258606s-14.196259 46.258575-31.708221 46.258575h-133.67645c-17.511963 0-31.708252-20.710663-31.708252-46.258575 0-25.547913 14.196289-46.258606 31.708252-46.258606z" fill="#d9ead3" fill-rule="evenodd"/><path d="m344.9497 313.74014h133.67645c17.511963 0 31.708221 20.710693 31.708221 46.258606s-14.196259 46.258575-31.708221 46.258575h-133.67645c-17.511963 0-31.708252-20.710663-31.708252-46.258575 0-25.547913 14.196289-46.258606 31.708252-46.258606z" fill-rule="evenodd" stroke="#000" stroke-linecap="butt" stroke-linejoin="round"/><path d="m396.03793 353.9606q-.875 1.046875-1.46875 2.109375-.59375 1.046875-.6875 1.25h2.09375q1.9375 0 3.125-.171875v3.015625q-1.28125-.15625-2.9375-.15625h-13.65625q0 7.125-4.203125 11.203125-.625-1.234375-2.03125-2.125 2.734375-3.046875 3.09375-5.890625.359375-2.859375.140625-5.875h11.28125q1.0625-2.203125 1.765625-4.890625 1.75.8125 3.484375 1.53125zm-6.265625-6.28125q.3125 1.109375.78125 3.078125h4.296875q1.671875 0 3.6875-.125v2.84375q-2.015625-.125-3.40625-.125h-11.34375q-1.390625 0-4.0625.109375v-2.8125q2.765625.109375 3.40625.109375h4.25q-.140625-.578125-.78125-2.375 1.671875-.421875 3.171875-.703125zm-4.4375 4.890625q1.40625 1.890625 2.71875 4.390625-1.421875.5625-2.921875 1.375-1.03125-2.40625-2.46875-4.21875 1.4375-.859375 2.671875-1.546875z" fill="#000"/><path d="m415.75668 358.19498-7.28125.03125v.65625h-2.875v-9.71875h13v9.53125h-2.875zm-7.28125-2.75h7.25v-3.5h-7.25zm10.90625 13.375h-3.5v1.6875h-2.875v-10.9375h9.25v10.65625h-2.875zm-3.5-6.46875v3.6875h3.5v-3.6875zm-10.6875 0v3.6875h3.5v-3.6875zm3.5 6.46875h-3.5v1.6875h-2.875v-10.9375h9.25v10.65625h-2.875zm16.421875-9.46875q4.234375-3.84375 5.328125-10.59375l2.609375.703125q1.765625.5.046875 1.546875-.171875 1.21875-1.109375 3.515625l.125.03125q1.046875.796875-.015625 1.40625v14.078125h-2.875v-10.484375q-.234375.375-2.296875 2.296875zm22.046875 4.25-.34375 2.625q-.4375 3.15625-3.21875 3.15625h-6.28125q-2.1875 0-2.1875-2.09375v-18.125h2.3125q2.546875.25.5625 1.359375v5.90625q2.8125-1.109375 6.140625-3.609375l1.6875 2.015625q1.65625 1.421875-.703125 1.421875-3.953125 2.015625-7.125 3.3125v6.5q0 .25.15625.25h4.96875q.578125 0 .625-.484375l.234375-2.796875z" fill="#000"/><path d="m344.9497 525.4593h133.67645c17.511963 0 31.708221 20.710693 31.708221 46.258606s-14.196259 46.258606-31.708221 46.258606h-133.67645c-17.511963 0-31.708252-20.710693-31.708252-46.258606s14.196289-46.258606 31.708252-46.258606z" fill="#d0e0e3" fill-rule="evenodd"/><path d="m344.9497 525.4593h133.67645c17.511963 0 31.708221 20.710693 31.708221 46.258606s-14.196259 46.258606-31.708221 46.258606h-133.67645c-17.511963 0-31.708252-20.710693-31.708252-46.258606s14.196289-46.258606 31.708252-46.258606z" fill-rule="evenodd" stroke="#000" stroke-linecap="butt" stroke-linejoin="round"/><path d="m407.19418 574.4454h-5.09375v7.125h-2.875v-7.125h-4.640625q-.171875 4.578125-3.375 8l-2.203125-2.203125q2.71875-3.015625 2.71875-6.578125v-12.5h18.34375v18.40625q0 2-2 2h-3.03125l-.6875-3.0625h2.96875q0 .125-.125.125zm-12.59375-5.25v2.46875h4.625v-2.46875zm0-5.25v2.46875h4.625v-2.46875zm7.5 5.25v2.46875h5.09375v-2.46875zm0-5.25v2.46875h5.09375v-2.46875z" fill="#000"/><path d="m434.4598 564.0704q-.109375 2.765625-.109375 5.65625 0 2.796875.125 4.90625h-3.09375v-1.40625h-12.09375q-.328125 2.625-.90625 4.171875-.578125 1.546875-1.25 2.75-.671875 1.1875-1.75 2.671875-1.28125-1.015625-3.0625-1.625 2.359375-2.46875 3.03125-4.125.671875-1.671875.890625-3.15625.234375-1.5.234375-3.25 0-1.78125-.109375-6.59375zm-3.171875 6.46875v-3.78125h-12.03125v3.78125zm-6.03125-11.25q1.359375 2.734375 2.03125 4.609375-1.6875.390625-2.8125 1.03125-.828125-2.5-1.953125-4.5 1.46875-.453125 2.734375-1.140625z" fill="#000"/><path d="m295.57587 133.74414h232.25195" fill="none"/><path d="m313.57584 133.74414h196.25201" fill-rule="evenodd" stroke="#000" stroke-linecap="butt" stroke-linejoin="round" stroke-width="3"/><path d="m313.57584 128.78896-13.614288 4.955185 13.614288 4.9552z" fill="#000" fill-rule="evenodd" stroke="#000" stroke-linecap="butt" stroke-width="3"/><path d="m509.82785 138.69934 13.614288-4.9552-13.614288-4.955185z" fill="#000" fill-rule="evenodd" stroke="#000" stroke-linecap="butt" stroke-width="3"/><path d="m197.0294 180.00273 116.220474 179.99998" fill="none"/><path d="m206.7931 195.12457 96.69307 149.75635" fill-rule="evenodd" stroke="#000" stroke-linecap="butt" stroke-linejoin="round" stroke-width="3"/><path d="m210.95598 192.43672-11.547638-8.7495575 3.2218933 14.125244z" fill="#000" fill-rule="evenodd" stroke="#000" stroke-linecap="butt" stroke-width="3"/><path d="m299.3233 347.56876 11.547638 8.749542-3.2218933-14.125214z" fill="#000" fill-rule="evenodd" stroke="#000" stroke-linecap="butt" stroke-width="3"/><path d="m626.389 180.00273-116.06299 179.99998" fill="none"/><path d="m616.63464 195.1306-96.55432 149.74428" fill-rule="evenodd" stroke="#000" stroke-linecap="butt" stroke-linejoin="round" stroke-width="3"/><path d="m620.79913 197.81586 3.2131958-14.127213-11.542236 8.756683z" fill="#000" fill-rule="evenodd" stroke="#000" stroke-linecap="butt" stroke-width="3"/><path d="m515.91583 342.1896-3.2131958 14.127228 11.542236-8.756683z" fill="#000" fill-rule="evenodd" stroke="#000" stroke-linecap="butt" stroke-width="3"/><path d="m411.78793 406.2467v119.212585" fill="none"/><path d="m411.78793 406.2467v101.212616" fill-rule="evenodd" stroke="#000" stroke-linecap="butt" stroke-linejoin="round" stroke-width="3"/><path d="m406.83273 507.45932 4.9552 13.614288 4.9552-13.614288z" fill="#000" fill-rule="evenodd" stroke="#000" stroke-linecap="butt" stroke-width="3"/><path d="m510.33438 571.7179c27.925995 0 55.844086-52.92914 55.85196-105.85828.00787353-52.929108-27.89447-105.858246-55.78897-105.858246" fill="none"/><path d="m510.3344 571.7179c27.925964 0 55.844055-52.92914 55.85193-105.85828.00396729-26.46457-6.9696655-52.92914-17.431091-72.77756-5.230713-9.924225-11.333374-18.194397-17.871765-23.98352-.8173218-.7236328-1.6414185-1.4085083-2.4714355-2.053009-.20751953-.1611023-.41540527-.31973267-.6236572-.47576904l-.49420166-.36364746" fill-rule="evenodd" stroke="#000" stroke-linecap="butt" stroke-linejoin="round" stroke-width="3"/><path d="m529.00226 361.55463-14.487976-.04147339 11.071777 9.344452z" fill="#000" fill-rule="evenodd" stroke="#000" stroke-linecap="butt" stroke-width="3"/><path d="m35.947506 251.6378h744.9449" fill="none"/><path d="m35.947506 251.6378h744.9449" style="stroke:#666;stroke-width:3;stroke-linejoin:round;stroke-linecap:butt;stroke-dasharray:12 9;fill-rule:evenodd"/><path d="m23.96588 19.971128h123.48294 52.92125 35.280853v32.041992 13.732285 9.154854h-35.280853l14.319794 11.974007-67.24104-11.974007h-123.48294v-9.154854-13.732285z" fill="#cfe2f3" fill-rule="evenodd"/><path d="m23.96588 19.971128h123.48294 52.92125 35.280853v32.041992 13.732285 9.154854h-35.280853l14.319794 11.974007-67.24104-11.974007h-123.48294v-9.154854-13.732285z" fill-rule="evenodd" stroke="#000" stroke-linecap="butt" stroke-linejoin="round"/><path d="m50.684628 40.12132q-2.71875-2.171875-3.375-3.609375-.640625 2.171875-3.5 4.015625l-1.34375-1.796875q3.203125-2.421875 3.390625-5.25h-1.109375q-.640625 3.984375-4.640625 6.828125l-1.296875-1.65625q2.25-1.59375 2.75-2.578125l-.78125-.703125q-.046875.078125-1.015625 1.28125l-1.421875-1.546875q1.921875-2.25 2.296875-7.640625l1.78125.1875q1.734375.53125.125 1.0625l-.0625.5h2.765625q0 1.703125-.125 2.296875h.765625v-4h1.8125q1.625.171875.453125 1.03125v2.96875h3.1875v1.96875h-3.109375q.40625 2.28125 3.671875 4.625zm-8.265625 4.546875q.203125-2.140625-.15625-4.359375l1.96875-.125q.71875 1.96875.546875 4.25zm-.390625-4.015625q-.421875 2.46875-1.8125 4.484375l-1.90625-1.25q1.21875-1.765625 1.828125-4.046875zm.421875-6.203125q-.03125.046875.109375-.515625l-.96875-.625-.140625.390625zm-6.28125-2.859375q1.6875.234375.328125 1.046875.078125 2.578125-.609375 5.171875l-1.859375-1.28125q.578125-2.375.484375-5.234375zm3.375-1.4375.84375 1.578125q.765625 1.53125-.515625 1l-1.375 1.0625v5.03125q.875.609375 1.703125 2.078125l-1.296875 2.0625q-.953125-1.609375-.921875-1.578125-.328125 1.921875-2.421875 4.015625l-1.453125-1.78125q2.34375-2.453125 2.34375-5.5625v-10.546875h1.59375q1.625.171875.453125 1.03125v2.640625zm9.625-1.828125q.953125.625 1.953125 2.125l-1.859375 1.25q-.359375-1.0625-1.6875-2.296875zm-6.96875 2.859375-.09375.4375.9375.5q.015625-.125.125-.9375zm7.421875 13.40625q-.875-2.234375-2.34375-4.078125l1.90625-.84375q1.578125 1.578125 2.65625 3.953125zm-2.765625-4.515625q.90625 1.703125 1.453125 3.953125l-2.359375.4375q-.34375-2.203125-1.109375-4.03125zm5.875.640625q3.296875-2.59375 3.921875-4.640625h-3.28125v-2.1875h3.421875v-6.609375h1.828125q1.578125.203125.4375 1.046875v5.5625h3.046875v2.1875h-3.046875v.359375q1.71875 1.03125 3.140625 2.625l-1.328125 2.203125q-1.5-1.796875-1.8125-2.03125v5.765625h-2.265625v-4.578125q-.265625.5-2.671875 2.453125zm6.015625-7.421875q.875-1.96875 1.65625-4.703125l2.015625.671875q1.3125 1.03125-.0625 1.03125-.65625 1.96875-1.484375 3.90625zm-3.390625-4.265625q1.234375 2.140625 1.6875 4.15625l-2.203125.890625q-.484375-1.875-1.609375-4.15625zm12.671879-1.515625q1.625.171875.453125 1.03125v8.71875l1.875-.484375.6875 2.328125-2.5625.53125v5.359375h-2.265625v-4.8125l-3.9062538.875-.546875-2.328125 4.453129-.90625v-10.3125h1.8125zm-4.328129 2.015625q1.7500038 1.109375 2.8281288 2.28125l-1.515625 1.953125q-.96875-.96875-2.7343788-2.390625zm-.234375 4.09375q1.4531288.859375 2.8437538 2.265625l-1.546875 1.96875q-1.1718788-1.28125-2.7187538-2.390625z" fill="#000"/><path d="m78.680435 34.449444q-.59375.734375-1.046875 1.109375l-.734375-1.265625q2.21875-2.296875 3.484375-6.296875l1.328125.140625q.234375.21875-.140625.453125l-.21875.515625h1.84375l.296875-.375 1.34375.890625-.375.453125-1.265625 2.375h2.015625v11.359375q0 1.25-1.125 1.25h-1.625l-.296875-1.40625h1.484375q.296875 0 .296875-.296875v-3.34375h-4.015625q0 3.046875-1.546875 4.90625l-1.125-.890625q1.421875-1.5625 1.421875-4.90625zm10.984375-1.40625h1.484375q.515625 0 .59375-.453125l.21875-2.515625h-2.234375q-.296875 3.484375-3.484375 4.8125l-.59375-1.25q2.59375-1.046875 2.75-3.5625h-2.375v-1.1875h7.34375l-.375 4.296875q-.0625 1.265625-1.25 1.265625h-1.9375zm1.109375 8.453125v3.5h-1.265625v-3.5h-3.640625v-1.40625h3.640625v-1.703125h-1.625l-.828125 1.328125-1.109375-.8125q1.1875-1.5625 1.484375-3.5625l1.34375.21875q.21875.21875-.15625.453125l-.296875.953125h1.1875v-1.84375h1.1875q.59375.0625.078125.4375v1.40625h2.59375v1.421875h-2.59375v1.703125h3.265625v1.40625zm-9.796875-11.203125q-.296875.8125-1.046875 2.15625h2.015625l.953125-2.15625zm1.484375 8.53125h1.484375v-2.078125h-1.484375zm-1.046875 0v-2.078125h-1.484375v2.078125zm-1.484375-5.1875v1.921875h1.484375v-1.921875zm2.53125 0v1.921875h1.484375v-1.921875zm29.53125-4.015625q.296875.671875-.4375.375-2.828125.59375-5.9375.734375v3.125h7.421875v1.40625h-2.890625v9.578125h-1.484375v-9.578125h-3.046875v3.34375q0 4.234375-2.53125 6.390625l-.953125-1.421875q2-1.859375 2-4.890625v-9.5l1.484375.359375q3.265625-.296875 5.5625-1.328125zm-16.03125 10.25q2.75-3.203125 3.421875-6.765625h-2.828125v-1.40625h2.828125v-3.78125h1.40625q.59375.078125.078125.4375v3.34375h2.75v1.40625h-2.75v2.234375q1.5625.671875 2.75 1.5625l-.671875 1.484375q-.96875-.671875-2.078125-1.421875v7.875h-1.484375v-7.640625q-1.046875 2.671875-2.53125 4.078125zm23.75 5.265625q-1.78125-2-3.703125-3.265625l1.109375-1.484375q2.375 1.40625 3.9375 3.1875zm12.9921875-.59375v-4.671875l-3.703125 1.328125q-.234375.75-.53125.15625l-.734375-1.484375 1.484375-.453125v-9.203125h1.40625q.59375.078125.078125.453125v8.3125l2-.671875v-9.875h1.40625q.59375.078125.078125.453125v15.65625zm6.984375-5.71875q1.25-2.15625 1.625-4.96875h-3.265625q.375 2.96875 1.640625 4.96875zm-5.125-2.21875q2.453125-2.828125 3.40625-8.3125l1.1875.21875q.890625.21875.078125.515625-.296875 1.34375-.890625 3.421875h6.15625v1.40625h-1.78125q-.59375 3.703125-2.140625 6.15625 1.625 1.640625 4 2.671875l-.8125 1.484375q-2.296875-1.109375-4.078125-2.890625-1.78125 2.078125-4.234375 3.125l-.8125-1.34375q2.8125-1.1875 4.15625-2.96875-1.1875-1.859375-1.859375-4.375-.8125 1.328125-1.34375 1.84375zm17.59375-7.875q-.234375.671875-.828125 1.265625h3.640625q.515625-1.1875.75-1.9375l1.484375.296875q.296875.296875-.234375.375l-.59375 1.265625h5.9375v1.1875h-6.15625v.96875h4.96875v1.1875h-4.96875v.953125h4.96875v1.1875h-4.96875v1.125h6.6875v1.1875h-6.6875v1.109375h7.28125v1.40625h-5.796875q2.375 1.703125 6.09375 2.53125l-.53125 1.484375q-4.15625-1.046875-7.046875-3.71875v4.390625h-1.484375v-4.3125q-2.296875 2.375-7.34375 3.859375l-.515625-1.40625q3.78125-.96875 6.375-2.828125h-5.9375v-1.40625h7.421875v-1.109375h-2.59375-2.59375v-5.28125q-.671875.75-1.640625 1.484375l-.8125-1.03125q2.8125-2.296875 3.9375-5.046875l1.40625.4375q.296875.296875-.21875.375zm-1.421875 6.75v1.125h3.9375v-1.125zm0-2.140625v.953125h3.9375v-.953125zm0-2.15625v.96875h3.9375v-.96875zm19.59375 13.953125q-1.78125-2-3.703125-3.265625l1.109375-1.484375q2.375 1.40625 3.9375 3.1875zm10.9140625-12.171875v-4.671875h11.28125v4.671875zm-2.515625 2.078125v-1.1875h16.390625v1.1875zm8.828125 5.484375v.828125h5.421875v1.1875h-5.421875v.890625h7.796875v1.1875h-16.859375v-1.1875h7.796875v-.890625h-5.484375v-1.1875h5.484375v-.828125h-2.515625-2.53125v-4.59375h11.28125v4.59375zm3.703125-2.734375v-.96875h-3.703125v.96875zm-3.703125 1.84375h3.703125v-.953125h-3.703125zm-5.046875-9.5h8.75v-.953125h-8.75zm0 1.9375h8.75v-1.046875h-8.75zm0 5.71875h3.78125v-.96875h-3.78125zm0 1.84375h3.78125v-.953125h-3.78125zm15.0625-3.109375q3.1875-2.890625 4.015625-7.9375l1.625.4375q.515625.15625-.21875.59375-.15625 1.109375-1.046875 3.265625l.453125.15625q.296875.21875-.21875.515625v10.984375h-1.484375v-9.28125q-.890625 1.40625-2.15625 2.59375zm16.484375 3.640625-.234375 1.703125q-.296875 2.15625-2.140625 2.15625h-4.984375q-1.328125 0-1.328125-1.265625v-13.953125h1.40625q.75.078125.078125.4375v5.5q2.8125-1.109375 5.1875-2.890625l1.125 1.328125q.515625.453125-.375.453125-3.1875 1.625-5.9375 2.734375v5.421875q0 .59375.515625.59375h3.9375q.8125 0 .890625-.734375l.140625-1.78125z" fill="#000"/><path d="m46.778378 61.277573q1.03125-2.015625 1.25-6.09375h-2.515625q.21875 4.078125 1.265625 6.09375zm2.734375-6.09375q-.140625 4.609375-1.78125 7.421875 1.1875 1.484375 3.34375 2.59375l-.96875 1.640625q-2.375-1.5625-3.328125-2.96875-1.71875 1.9375-5.28125 3.34375l-.734375-1.484375q3.859375-1.5625 5.125-3.203125-1.265625-2.4375-1.421875-4.890625-.4375 1.109375-.890625 1.703125l-1.25-.96875q2.21875-3.265625 2.671875-8.078125l1.546875.359375q.453125.296875-.21875.453125-.21875 1.328125-.59375 2.671875h5.046875v1.40625zm-6.890625-3.5625q-.453125 1.109375-1.046875 1.859375l-1.1875-.671875q.59375-.96875 1.109375-2.21875l1.34375.65625q.296875.296875-.21875.375zm-4.75 10.46875q1.03125.296875 1.84375.671875.59375-.671875.96875-2.015625h-2.15625q-.296875.671875-.65625 1.34375zm-1.046875 1.859375-1.1875-.671875q.75-1.109375 1.484375-2.53125h-2.8125v-1.1875h3.265625q.4375-.953125.65625-1.625l1.421875.375q.296875.296875-.234375.359375l-.4375.890625h4.234375v1.1875h-1.125q-.359375 1.484375-1.109375 2.53125.671875.296875 1.40625.734375l-.65625 1.1875q-.828125-.515625-1.484375-.8125-1.9375 1.9375-5.203125 2.375l-.515625-1.328125q2.890625-.296875 4.453125-1.640625-.8125-.375-1.640625-.671875zm1.484375-13.953125h1.1875q.59375.0625.078125.4375v3.1875h3.78125v1.1875h-3.109375q.8125.96875 2.515625 1.859375l-.8125 1.265625q-1.265625-.75-2.375-2.078125v1.78125h-1.265625v-1.40625q-1.1875 1.484375-3.265625 2.671875l-.96875-1.1875q2.3125-1.1875 3.796875-2.90625h-3.421875v-1.1875h3.859375zm-2.078125 3.40625q-.515625-1.109375-1.328125-1.921875l1.1875-.75q.890625.890625 1.328125 1.859375zm23.15625-2.96875h9.718754v4.671875h-3.328125v2.15625h4.15625v1.1875h-4.15625v2.234375h2.890625v6.15625h-1.265625v-.8125h-4.453129v1.03125h-1.265625v-6.375h2.6093788v-2.234375h-3.6406288v1.1875q0 4.96875-2.15625 7.203125l-1.109375-1.109375q2-2.015625 2-6.390625zm8.015629 11.4375h-4.453129v2.96875h4.453129zm-3.109375-4.609375v-2.15625h-3.6406288v2.15625zm-3.6406288-3.34375h6.968754v-2.296875h-6.968754zm-1.9375 5.578125-1.921875.65625v5.796875q0 1.1875-1.1875 1.1875h-1.484375l-.21875-1.40625h1.109375q.296875 0 .296875-.296875v-4.828125l-1.5625.515625q-.078125.515625-.375.21875l-.515625-1.78125 2.453125-.515625v-3.859375h-2.078125v-1.40625h2.078125v-3.859375h1.40625q.59375.078125.078125.4375v3.421875h1.921875v1.40625h-1.921875v3.5625l1.78125-.515625z" fill="#000"/><path d="m585.1811 19.971128h35.280823 52.921265 123.48297v32.041992 13.732285 9.154854h-123.48297l-65.25751 11.974007 12.336243-11.974007h-35.280823v-9.154854-13.732285z" fill="#cfe2f3" fill-rule="evenodd"/><path d="m585.1811 19.971128h35.280823 52.921265 123.48297v32.041992 13.732285 9.154854h-123.48297l-65.25751 11.974007 12.336243-11.974007h-35.280823v-9.154854-13.732285z" fill-rule="evenodd" stroke="#000" stroke-linecap="butt" stroke-linejoin="round"/><g fill="#000"><path d="m605.60297 47.183823q-.484375 6.125-1.59375 7.53125-.640625.828125-2.015625.828125h-3.296875l-.34375-2.1875h3.203125q.578125 0 .765625-.34375.5625-.875.8125-3.625h-4.234375l-.15625.78125-2.359375-.328125q.921875-3.953125 1.171875-6.734375h5.53125v-1.59375h-6.828125v-2.1875h9.09375v6.34375h-2.265625l.015625-.390625-3.453125.015625q-.015625.125-.3125 1.890625zm5.546875 8.21875h-2.265625v-16.296875h1.8125q1.625.171875.453125 1.03125zm15.65625-14.96875h4.890625v1.96875h-1.765625q-.578125 1.359375-1.109375 2.125.8125.609375 3.359375 1.34375l-1.46875 2.03125q-2.265625-.875-3.40625-1.75-1.53125 1.1875-3.5625 1.71875l-1.421875-1.765625q2.78125-.796875 3.484375-1.453125-.46875-.5625-.640625-.921875.015625.046875-.609375.921875l-1.71875-1.375q1.59375-2.265625 2.671875-5.171875l1.578125.578125q1.5.75-.015625 1.203125zm.375 2.765625q.375-.484375.46875-.796875h-1.09375q.171875.34375.625.796875zm-11.28125 4.0625q8.03125.078125 12.125-.703125l1.046875 1.03125q1.5 1.515625-.59375 1.203125-1.96875.140625-4.265625.203125v.125h5.703125v1.96875h-5.703125v.109375h7.265625v1.96875h-7.265625v1.3125q0 1.65625-1.515625 1.65625h-2.234375l-.46875-2.1875h2.046875q0 .09375-.09375.09375v-.875h-7.421875v-1.96875h7.421875v-.109375h-6.015625v-1.96875h6.015625v-.03125q-2.359375 0-5.390625 0zm7.828125-5.5625-.40625 3.703125q-.28125 2.203125-2.109375 2.203125h-1.234375l-.140625-.96875h-1.9375v.4375h-2.046875l.21875-2.203125q.171875.15625-.359375.6875l-1.796875-1.09375q1.578125-1.578125 2.734375-3.65625l.3125.171875-.0625.390625h-2.3125v-1.96875h2.3125v-1.421875h1.828125q1.578125.203125.4375 1.046875v.375h.546875v-1.421875h1.828125q1.578125.203125.4375 1.046875v.375h2.59375v1.96875h-2.59375v.59375h-2.265625v-.59375h-.625v.59375l-1.5-.390625q2.203125.328125.140625.515625zm-2.8125 4.03125v-.09375q.390625 0 .4375-.53125l.171875-1.734375h-4.03125l.03125-.046875h3.484375zm-1.9375-.765625v.03125h-1.078125v-.03125z"/><path d="m652.0831 43.574448q-.359375.4375-.84375 1.28125-.46875.828125-.828125 1.5625h2.25q1.53125 0 2.046875-.078125v1.453125q-.578125-.0625-1.890625-.0625h-11q0 5.75-2.78125 8.453125-.28125-.59375-1.09375-1.09375 1.90625-2.125 2.1875-4.40625.296875-2.296875.15625-4.265625h8.59375q.953125-1.96875 1.390625-3.65625.9375.4375 1.8125.8125zm-4.515625-4.59375q.140625.515625.578125 2.328125h3.640625q1.3125 0 2.484375-.078125v1.390625q-1.171875-.078125-2.265625-.078125h-8.8125q-1.09375 0-2.765625.078125v-1.390625q1.75.078125 2.25.078125h3.796875q-.21875-.953125-.578125-1.96875.875-.21875 1.671875-.359375zm-3.28125 3.859375q.875 1.171875 1.671875 2.703125-.71875.28125-1.53125.71875-.65625-1.53125-1.53125-2.625.734375-.4375 1.390625-.796875z"/><path d="m662.1769 41.136948q-.0625.375-.4375 1.71875h3.40625v-3.71875h1.421875q.59375.078125.0625.453125v3.265625h6.09375v1.40625h-6.09375v3.40625h5.203125v1.421875h-5.203125v4.375h7.0625v1.40625h-16.265625v-1.40625h7.71875v-4.375h-4.96875v-1.421875h4.96875v-3.40625h-3.859375q-.890625 2.296875-2.671875 4.078125l-1.109375-1.1875q2.671875-2.59375 3.1875-6.828125l1.5625.375q.453125.140625-.078125.4375zm22.640625 4.53125h-1.40625q-.078125 3.1875-4.15625 4.015625l-.453125-1.421875q2.96875-.65625 3.046875-2.59375h-3.1875v10.328125h-1.484375v-11.734375h4l-.890625-1.9375h-4.15625v-1.40625h7.421875v-1.921875h1.640625q.59375.0625.078125.4375v1.484375h7.34375v1.40625h-3.78125l-1.34375 1.9375h4.3125v10.546875q0 1.03125-.96875 1.03125h-1.9375l-.296875-1.40625h1.421875q.296875 0 .296875-.296875v-8.46875h-4.015625v1.109375q0 .59375.515625.59375h1.34375q.296875 0 .4375-.890625l1.421875.453125q-.15625 1.859375-1.1875 1.859375h-2.75q-1.265625 0-1.265625-1.265625zm2.078125-3.34375h-4.890625l.953125 1.9375h2.671875zm-6.078125 7.359375h7.265625v4.15625h-6.015625v.671875h-1.25zm1.25 1.1875v1.78125h4.75v-1.78125z"/><path d="m702.255 39.715073q-.140625 2.03125-.140625 3.484375v10.71875h2.40625v-11.59375q0-1.15625-.15625-2.609375h1.828125q-.140625 1.15625-.140625 2.46875v11.734375h2.828125q1.171875 0 2.84375-.140625v1.59375q-1.671875-.140625-2.765625-.140625h-11.078125q-1.015625 0-2.90625.140625v-1.59375q1.890625.140625 2.84375.140625h2.6875v-10.78125q0-1.53125-.21875-3.421875zm-5.25 3.640625q.875 2.25 2.40625 6.625-.796875.140625-1.671875.578125-1.3125-4.21875-2.328125-6.546875.71875-.296875 1.59375-.65625zm14.0625.4375q-.9375 2.46875-2.625 6.921875-.71875-.4375-1.515625-.65625 1.515625-2.84375 2.328125-6.859375.796875.296875 1.8125.59375z"/><path d="m723.9581 42.027573h4.3125v4.984375h2.140625v1.625h-5.78125q1.78125 3.421875 6.15625 5.34375l-.96875 1.5625q-4.375-2.234375-6.234375-5.9375-.734375 4.296875-5.640625 6.234375l-.59375-1.484375q4.390625-1.484375 4.984375-5.71875h-4.234375v-1.625h4.375v-3.34375h-3.109375v-1.640625h3.109375v-2.96875h1.40625q.59375.078125.078125.453125zm2.828125 4.984375v-3.34375h-2.828125v3.34375zm-10.984375-6.171875q1.703125.96875 2.8125 2.375l-1.1875 1.421875q-1.1875-1.421875-2.890625-2.609375zm-2.234375 12.171875q2.078125-1.84375 3.78125-4.453125l.96875 1.265625q-1.625 2.53125-3.40625 4.234375-.234375 1.1875-.59375.21875zm35.328125 2.53125q-3.9375-.96875-6.96875-4.015625v4.46875h-1.484375v-4.46875q-2.015625 2.453125-6.609375 4.09375l-.75-1.640625q4.828125-1.40625 7.359375-4.53125v-.890625h-3.71875v2.671875h-1.484375v-3.859375h5.203125v-1.1875h-7.28125v-1.1875h7.28125v-1.546875h1.40625q.59375.0625.078125.4375v1.109375h7.265625v1.1875h-7.265625v1.1875h5.40625v2.90625q0 1.03125-.890625 1.03125h-1.484375l-.296875-1.40625h.890625q.296875 0 .296875-.296875v-1.046875h-3.921875v.96875q2.296875 2.890625 7.421875 4.234375zm-5.265625-15.890625q-.296875.75-.515625 1.265625h6.078125v1.1875h-3.484375l.8125 1.5625-1.625.4375-.671875-2h-1.640625q-.59375 1.046875-.890625 1.265625l-1.1875-.8125.453125-.453125h-2.59375l.8125 1.703125-1.640625.453125-.59375-2.15625h-1.25q-.671875 1.109375-1.78125 2.234375l-1.046875-1.125q1.9375-1.546875 2.53125-4.375l1.484375.453125q.296875.296875-.234375.359375-.21875.671875-.4375 1.265625h4.890625v.96875q1.046875-1.640625 1.34375-3.046875l1.40625.453125q.296875.296875-.21875.359375z"/></g><path d="m75.937004 400.4462h123.48295 52.92125 35.280838v9.154846l33.9162-11.173492-33.9162 24.905792v32.041992h-35.280838-52.92125-123.48295v-32.041992-13.7323z" fill="#cfe2f3" fill-rule="evenodd"/><path d="m75.937004 400.4462h123.48295 52.92125 35.280838v9.154846l33.9162-11.173492-33.9162 24.905792v32.041992h-35.280838-52.92125-123.48295v-32.041992-13.7323z" fill-rule="evenodd" stroke="#000" stroke-linecap="butt" stroke-linejoin="round"/><path d="m92.280754 434.987q.296875 0 .296875-.3125v-3.1875h-4.15625q0 3.125-1.40625 4.90625l-1.03125-1.046875q1.1875-1.703125 1.1875-4.078125v-5.796875q-.375.53125-.96875 1.046875l-.8125-1.109375q2.515625-2.453125 3.328125-6.09375l1.484375.21875q.296875.296875-.21875.375l-.21875.671875h2.078125l.21875-.375 1.109375.671875q.53125.296875-.0625.375l-1.1875 2.296875h1.921875v11.796875q0 1.046875-1.03125 1.046875h-1.34375l-.21875-1.40625zm9.28125 1.1875q-.140625-.75-.296875-1.265625-2.890625.375-6.078125.734375-.078125.671875-.375.234375l-.515625-1.71875 3.5625-.21875v-4.234375h-1.484375v1.34375h-1.265625v-7.796875h2.75v-3.640625h1.1875q.59375.078125.0625.453125v3.1875h2.96875v7.046875h-1.25v-.59375h-1.71875v4.15625l1.859375-.140625q-.21875-.828125-.671875-2.078125l1.265625-.296875q.890625 1.703125 1.5625 4.53125zm-.734375-7.65625v-4.078125h-1.71875v4.078125zm-2.96875 0v-4.078125h-1.484375v4.078125zm-5.28125 1.78125v-2.15625h-1.40625v2.15625zm-2.671875-2.15625h-1.484375v2.15625h1.484375zm-1.484375-1.1875h1.484375v-2.21875h-1.484375zm4.15625 0v-2.21875h-1.40625v2.21875zm-1.25-5.1875h-1.9375q-.375.96875-.890625 1.78125h1.9375zm18.171875 10.09375q4.390625-1.34375 5.203125-7.28125h-5.125v-1.40625h5.125v-3.484375h1.40625q.59375.140625.078125.515625v2.96875h5.421875v1.40625h-5.34375q1.484375 5.5 5.9375 7.203125l-1.1875 1.640625q-3.9375-2.015625-5.28125-6.6875-.953125 4.96875-5.265625 6.75zm-1.78125-2h-2.671875v-1.421875h4.15625v4.390625q1.78125 1.546875 4.828125 1.546875h8.015625l-.4375 1.421875h-7.578125q-3.5625 0-5.484375-1.78125-1.046875 1.109375-2.53125 2.375l-1.03125-1.640625q1.484375-.734375 2.734375-1.921875zm-1.40625-5.9375q1.484375.65625 2.890625 1.625l-.8125 1.40625q-1.265625-.890625-2.890625-1.703125zm.671875-3.9375q1.484375.59375 2.890625 1.625l-.8125 1.421875q-1.265625-.890625-2.890625-1.71875zm31.312508 10.234375h-4.8125v5.65625h-1.484375v-5.65625h-4.4531326q-.15625 3.859375-2.3125 6.171875l-1.1875-1.1875q2.015625-2.234375 2.015625-5.203125v-9.5h13.718758v14.171875q0 1.203125-1.1875 1.203125h-2.078125l-.359375-1.640625h1.84375q.296875 0 .296875-.296875v-3.71875zm-10.750008-4.15625v2.75h4.4531326v-2.75zm0-4.15625v2.75h4.4531326v-2.75zm5.9375076 4.15625v2.75h4.8125v-2.75zm0-4.15625v2.75h4.8125v-2.75z" fill="#000"/><path d="m158.76514 423.01825q-.0625 1.75-.0625 4.015625 0 2.1875.0625 3.421875h-1.59375v-1.09375h-10.140625q-.28125 2.328125-.71875 3.5-.4375 1.171875-.953125 2.078125-.5.90625-1.09375 1.71875-.71875-.59375-1.59375-.875 1.453125-1.53125 2-2.875.546875-1.359375.71875-2.5625.1875-1.203125.1875-2.578125 0-1.390625-.0625-4.75zm-1.671875 5.03125v-3.71875h-10.125v3.71875zm-5.25-8.59375q.875 1.75 1.25 2.765625-.953125.21875-1.46875.515625-.5-1.53125-1.15625-2.703125.71875-.21875 1.375-.578125z" fill="#000"/><path d="m162.45264 432.89325h1.703125v1.640625l-.890625 2h-.8125l.734375-2h-.734375zm16.023438-6.15625v1.046875q0 5.484375-2.8125 8.09375l-1.1875-1.203125q2.515625-2.8125 2.515625-6.828125v-7.046875h12.84375v1.40625h-11.359375v3.125h8.46875l.4375-.375 1.265625.96875q.515625.21875-.140625.515625-1.1875 3.9375-2.96875 5.71875 1.546875 1.265625 5.484375 2.296875l-.8125 1.78125q-3.640625-1.109375-5.859375-2.890625-2.609375 2.15625-5.875 3.046875l-.65625-1.71875q3.328125-.8125 5.265625-2.4375-2.234375-2.375-3.125-5.5zm5.796875 4.453125q1.5625-1.625 2.453125-4.453125h-5.203125q.8125 2.453125 2.75 4.453125z" fill="#000"/><path d="m204.89795 424.987v1.25h2.6875q1.171875 0 2.328125-.078125v1.234375q-1.09375-.0625-2.328125-.0625h-6.34375q-1.375 0-2.40625.0625v-1.234375q1.171875.078125 2.34375.078125h2.40625v-1.25h-3.71875q.140625-1.15625.140625-1.890625 0-.796875-.140625-1.828125h3.71875q0-.640625-.078125-1.453125h1.53125q-.140625.953125-.140625 1.453125h3.859375q-.078125 1.09375-.078125 1.90625 0 .71875.078125 1.8125zm2.46875 7.734375v-3.140625h-6.046875v3.421875h-1.453125q.140625-.9375.140625-2.40625 0-1.453125-.140625-2.109375h8.890625q-.078125.65625-.078125 2.109375 0 1.390625.078125 2.125zm-10.859375-6.125q-.140625.953125-.140625 1.890625v4.953125q.515625-.4375.9375-.9375.4375-.515625.875-.875.296875.4375.8125 1.15625-.65625.4375-1.53125 1.3125l-1.828125 1.828125q-.5-.65625-1.015625-1.234375.515625-.953125.4375-1.96875v-4.234375q0-.9375-.078125-1.890625zm-1.015625-2.765625q-.359375.578125-.65625 1.234375-.296875.65625-.65625 1.53125-.734375-.65625-1.390625-.875.4375-.65625.875-1.375.4375-.734375.765625-1.5.328125-.765625.515625-1.5625.1875-.8125.328125-1.609375.296875.21875.734375.375.4375.140625 1.078125.28125-.5.578125-.765625 1.171875-.25.578125-.46875 1.234375h3.359375q-.21875.578125-.4375 1.421875-.21875.828125-.59375 2-.71875-.21875-1.453125-.296875.296875-.578125.46875-1.078125.1875-.515625.328125-.953125zm9.84375 6.546875q-.375.515625-.375 1.3125 0 .8125-.328125 1.6875-.328125.875-1.390625 1.75-1.046875.875-3.53125 1.75-.21875-.4375-.515625-.8125-.28125-.359375-.71875-.65625 3.9375-.578125 4.515625-2.0625.59375-1.5.59375-3.1875.65625.078125 1.75.21875zm3.34375 6.203125q-.65625-.65625-1.75-1.359375-1.09375-.6875-2.03125-1.265625.4375-.515625.875-.875.9375.4375 1.8125.953125.875.5 2.328125 1.375-.71875.59375-1.234375 1.171875zm-1.3125-12.6875v-1.53125h-2.46875v1.53125zm-3.78125 0v-1.53125h-2.34375v1.53125zm17.265625 1.828125q0-1.75-.078125-2.765625h1.6875q-.15625 1.015625-.15625 2.765625 1.53125 0 2.765625-.078125v1.46875q-1.234375-.078125-2.765625-.078125v6.5625q0 1.09375-.734375 1.34375-.71875.25-2.328125.625-.140625-.953125-.578125-1.609375 1.234375-.078125 1.703125-.21875.484375-.140625.484375-1.09375v-4.734375q-1.09375 2.1875-2.265625 3.46875-1.15625 1.265625-2.90625 2.359375-.578125-.65625-1.3125-1.171875 1.75-.875 3.125-2.25 1.390625-1.390625 2.265625-3.28125h-1.890625q-1.171875 0-2.765625.078125v-1.46875q1.15625.078125 2.6875.078125zm7.0625-5.25q-.0625 1.453125-.0625 2.921875v10.703125q0 1.609375-.8125 1.890625-.796875.296875-2.390625.453125-.15625-.875-.59375-1.6875 1.453125.078125 1.890625.015625.4375-.078125.4375-1.03125v-11.953125h-4.4375q-1.75 0-3.140625.078125v-1.453125q1.390625.0625 3.140625.0625zm-13.765625 2.921875q-.140625 1.234375-.140625 1.96875v11h-1.53125q.0625-1.53125.0625-2.84375v-7.71875q0-1.3125-.0625-2.40625zm1.09375-3.9375q.875 1.015625 1.96875 2.546875-.65625.296875-1.46875.875-.71875-1.390625-1.890625-2.625.734375-.359375 1.390625-.796875zm29.359375 1.234375q1.09375 0 2.484375-.0625v1.375q-1.234375-.078125-2.484375-.078125h-1.375q-.65625 2.34375-.875 3.21875v8.890625q0 1.453125.078125 2.625h-1.53125q.0625-1.09375.0625-2.625v-5.828125q-1.53125 2.984375-3.71875 5.015625-.4375-.4375-1.3125-.9375 1.03125-.734375 1.9375-1.859375.90625-1.125 1.78125-2.65625.875-1.53125 1.28125-2.84375.40625-1.3125.765625-3h-2.046875q-1.15625 0-2.40625.078125v-1.375q1.25.0625 2.40625.0625zm-9.609375 0q.71875 0 1.671875-.0625v1.296875q-.953125-.0625-1.671875-.0625h-.515625v3.5q1.015625 0 2.265625-.078125v1.3125q-1.3125-.078125-2.265625-.078125v4.15625q.65625-.140625 2.1875-.875 0 .578125.078125 1.390625-2.1875.796875-3.328125 1.171875-1.125.359375-2.4375.9375-.28125-.734375-.71875-1.53125.5 0 2.90625-.65625v-4.59375q-1.234375 0-2.328125.15625v-1.390625q1.09375.078125 2.328125.078125v-3.5h-.65625q-.9375 0-1.890625.0625v-1.296875q.953125.0625 1.828125.0625zm9.109375 5.03125q2.25 3.0625 3.421875 4.953125-.734375.4375-1.390625.875-1.09375-1.96875-1.71875-2.90625-.609375-.953125-1.484375-2.046875.65625-.359375 1.171875-.875z" fill="#000"/></g></svg>