<svg fill="none" stroke-linecap="square" stroke-miterlimit="10" viewBox="0 0 830.0183727 411.07874016" xmlns="http://www.w3.org/2000/svg" xmlns:xlink="http://www.w3.org/1999/xlink"><clipPath id="a"><path d="m0 0h830.0184v411.07874h-830.0184z"/></clipPath><g clip-path="url(#a)"><path d="m0 0h830.0184v411.07874h-830.0184z" fill="none"/><path d="m142.79265 186.87157c0-4.905426 3.9766388-8.882065 8.882065-8.882065h129.03903c2.3556519 0 4.6148376.935791 6.280548 2.6015015 1.6657104 1.6657104 2.6015015 3.9248962 2.6015015 6.2805634v35.527206c0 4.905426-3.9766235 8.882065-8.88205 8.882065h-129.03903c-4.905426 0-8.882065-3.9766388-8.882065-8.882065z" fill="#3d85c6" fill-rule="evenodd"/><path d="m142.79265 186.87157c0-4.905426 3.9766388-8.882065 8.882065-8.882065h129.03903c2.3556519 0 4.6148376.935791 6.280548 2.6015015 1.6657104 1.6657104 2.6015015 3.9248962 2.6015015 6.2805634v35.527206c0 4.905426-3.9766235 8.882065-8.88205 8.882065h-129.03903c-4.905426 0-8.882065-3.9766388-8.882065-8.882065z" fill-rule="evenodd" stroke="#073763" stroke-linecap="butt" stroke-linejoin="round"/><path d="m186.06923 206.86768q-.640625 1.671875-2.796875 4.109375l-1.28125-1.765625q1.859375-2.265625 2.65625-4.3125-.984375-1.4375-2.375-3.265625l1.28125-1.296875q1.328125 1.515625 1.59375 1.90625.140625-.84375.34375-3.140625l1.71875.40625q1.671875.609375.171875 1.109375-.1875 1.546875-.546875 3.703125.9375 1.28125 1.96875 2.8125l-1.15625 2.015625q-1.171875-1.703125-1.578125-2.28125zm-3.5625-8v13.734375h-2.265625v-15.9375h16.15625v14.203125q0 1.578125-1.515625 1.578125h-2.15625l-.46875-2.1875h2.03125q0 .15625-.15625.15625v-11.546875zm8.15625 3.859375q.265625-1.328125.453125-3.65625l1.625.203125q1.84375.546875.28125 1.1875-.1875 1.859375-.75 4.234375 1.015625 1.421875 1.953125 3.046875l-1.1875 1.9375q-1.21875-2.03125-1.625-2.640625-.859375 2.265625-2.734375 4.234375l-1.265625-1.859375q1.640625-1.71875 2.515625-4.296875-1-1.59375-2.3125-3.171875l1.28125-1.390625q1.171875 1.375 1.765625 2.171875z" fill="#fff"/><path d="m204.3036 202.2583q1.109375-1.203125 1.59375-2.046875.5-.859375.953125-1.890625.46875-1.046875.859375-2.828125 1.171875.53125 2.65625.765625-.75 1.109375-.984375 1.578125h5.90625q-1.375 2.75-2.125 3.875-.75 1.109375-1.28125 1.6875.5625.375 1.828125.8125 1.28125.421875 2.890625.734375-.640625 1.015625-1.125 2.234375-1.0625-.3125-1.21875-.375-.078125.546875-.078125 1.390625v2.625q0 1.078125.078125 2.625h-2.140625v-1.375h-3.625v1.53125h-2.171875q.109375-1.484375.109375-2.421875v-2.921875q0-.5625 0-1.453125 0 .046875-1.15625.484375-.40625-1.09375-1.25-2.0625 1.640625-.453125 2.953125-.984375 1.3125-.53125 1.796875-.921875-.765625-.984375-1.15625-1.90625-.421875.65625-1.5 2.109375-.703125-.703125-1.8125-1.265625zm-.46875-5.046875q-.78125 1.046875-1.4375 2.390625-.65625 1.328125-1.21875 2.3125h1.171875q.6875-1.296875 1.1875-2.96875 1.140625.921875 2.25 1.46875-.71875.859375-1.59375 2.40625-.859375 1.546875-1.96875 3.40625 1.375-.234375 2.796875-.4375-.109375 1.359375.03125 2.140625-2.125.265625-3.0625.453125-.9375.171875-2.515625.546875-.296875-1.109375-.765625-2.015625 1-.421875 1.640625-1.375.65625-.953125 1.09375-1.828125-1.265625.046875-2.59375.609375-.34375-1.03125-.75-2.140625 1.0625-.53125 1.890625-2.234375.84375-1.71875 1.40625-3.9375 1.203125.765625 2.4375 1.203125zm8.28125 12.9375v-2.390625h-3.625v2.390625zm-7-1.515625q.234375 1.203125.234375 2.125-1.078125.203125-2.5625.703125-1.46875.5-3.21875 1.234375-.390625-1.234375-.984375-2.359375 2.3125-.46875 3.5-.75 1.1875-.296875 3.03125-.953125zm5.296875-6.6875q.125-.125.71875-.96875.59375-.84375.78125-1.234375h-2.796875q.5 1.265625 1.296875 2.203125zm2.34375 4.046875q-.0625.140625-.984375-.296875-.921875-.453125-1.5625-.90625-.65625.4375-1.4375.890625-.78125.4375-.859375.3125zm13.5625-6.34375q0-1.953125-.078125-3.984375 1.25.34375 2.609375.453125-.390625 1.546875-.328125 3.53125h4.03125q-.234375 1.09375-.375 2.59375l-.515625 8.09375q-.171875 1.421875-1.015625 1.703125-.84375.296875-2.515625.671875-.390625-1.25-1.03125-2.390625 2.109375-.09375 2.28125-.125.171875-.046875.21875-.71875l.484375-7.90625h-1.640625q-.0625 2.96875-1.03125 5.953125-.96875 2.984375-3.671875 5.671875-.625-.828125-2.65625-1.5 2.34375-1.234375 3.671875-3.828125 1.34375-2.609375 1.484375-6.296875-.984375 0-2.765625.09375v-2.09375q1.78125.078125 2.84375.078125zm-7.140625 1.03125q0-3.109375-.078125-4.671875h2.375q-.078125 1.5625-.078125 4.671875.984375 0 2.328125-.109375v2.125q-1.34375-.109375-2.328125-.109375v7.640625q0 1.03125.078125 3h-2.375q.078125-1.96875.078125-3v-7.640625q-1.0625 0-2.328125.109375v-2.125q1.265625.109375 2.328125.109375zm6.734375 2.9375q-.765625 1.03125-1.828125 4.484375-1.046875-.421875-2.125-.546875 1.171875-3.09375 1.359375-4.546875 1 .375 2.59375.609375zm7.5-.78125q1.296875 2.75 1.703125 4.265625-1.140625.203125-2.078125.8125-.578125-2-1.515625-4.171875 1-.34375 1.890625-.90625z" fill="#fff"/><path d="m242.97548 205.24268v2.265625h3.375v-2.265625zm3.375 4.234375h-3.375v1.109375h-2.265625v-7.3125h7.90625v6.71875h-2.265625zm-6.890625-9.546875h10.34375v2.203125h-10.34375zm10.75-1.140625h-10.859375v14.171875h-2.265625v-16.359375h15.390625v14.71875q0 1.421875-1.421875 1.421875h-2.390625l-.46875-2.1875h2.109375q0 .09375-.09375.09375z" fill="#fff"/><path d="m552.9816 186.87157c0-4.905426 3.9766235-8.882065 8.88208-8.882065h129.039c2.3556519 0 4.614868.935791 6.2805786 2.6015015 1.6657104 1.6657104 2.6015015 3.9248962 2.6015015 6.2805634v35.527206c0 4.905426-3.9766235 8.882065-8.88208 8.882065h-129.039c-4.9054565 0-8.88208-3.9766388-8.88208-8.882065z" fill="#6aa84f" fill-rule="evenodd"/><path d="m552.9816 186.87157c0-4.905426 3.9766235-8.882065 8.88208-8.882065h129.039c2.3556519 0 4.614868.935791 6.2805786 2.6015015 1.6657104 1.6657104 2.6015015 3.9248962 2.6015015 6.2805634v35.527206c0 4.905426-3.9766235 8.882065-8.88208 8.882065h-129.039c-4.9054565 0-8.88208-3.9766388-8.88208-8.882065z" fill-rule="evenodd" stroke="#274e13" stroke-linecap="butt" stroke-linejoin="round"/><path d="m602.5863 206.22705q.640625-1.265625.84375-4.84375h-1.703125q.203125 3.578125.859375 4.84375zm3.109375-4.84375q-.125 4.328125-1.6875 7 .96875 1.203125 3.421875 2.46875l-1.390625 2.34375q-2.78125-1.828125-3.5-2.875-1.4375 1.625-5.421875 3.203125l-1.078125-2.1875q4.140625-1.6875 5.1875-3.046875-1.1875-2.28125-1.140625-3.640625.09375.09375-.625 1.046875l-1.859375-1.4375q2.375-3.484375 2.859375-8.640625l2.046875.484375q1.28125.828125-.03125 1.140625-.1875 1.078125-.421875 1.953125h4.921875v2.1875zm-6.984375-3.59375q-.390625.953125-1.234375 2l-1.828125-1.03125q.796875-1.28125 1.453125-2.890625l1.78125.859375q.890625.890625-.171875 1.0625zm-4.453125 9.875q.59375.171875 1.171875.4375.328125-.390625.546875-1.15625h-1.390625q-.203125.453125-.328125.71875zm-1.484375 2.625-1.890625-1.078125q.96875-1.4375 1.40625-2.265625h-2.5625v-1.96875h3.40625q.328125-.703125.65625-1.703125l1.875.5q.9375.9375-.1875 1.0625l-.0625.140625h4v1.96875h-1.203125q-.3125 1.265625-.828125 1.984375.25.109375 1.34375.75l-1.046875 1.875q-1.15625-.71875-1.546875-.890625-1.828125 1.84375-5.53125 2.328125l-.8125-2.09375q3.28125-.328125 4.28125-1.203125-.234375-.109375-.75-.296875zm.953125-14.875h1.59375q1.625.171875.453125 1.03125v2.59375h3.78125v1.96875h-2.65625q.21875.265625 2.234375 1.328125l-1.25 1.9375q-1.640625-.984375-2.109375-1.53125v1.09375h-2.046875v-.6875q-.53125.671875-2.96875 2.0625l-1.484375-1.8125q2.671875-1.375 3.546875-2.390625h-2.953125v-1.96875h3.859375zm-1.84375 4.375q-.6875-1.453125-1.796875-2.5625l1.875-1.1875q1.15625 1.171875 1.75 2.5zm22.921875-3.9375h10.5v5.453125h-3.328125v1.375h4.15625v1.96875h-4.15625v1.453125h2.890625v6.9375h-2.046875v-.8125h-3.671875v1.03125h-2.046875v-7.15625h2.609375v-1.453125h-2.859375v.796875q0 5.125-2.546875 7.765625l-1.65625-1.671875q2.15625-2.171875 2.15625-6.390625zm8.015625 12.21875h-3.671875v2.1875h3.671875zm-3.109375-5.390625v-1.375h-2.859375v1.375zm-2.859375-3.34375h6.1875v-1.515625h-6.1875zm-1.90625 6.234375-1.953125.671875v5.515625q0 1.578125-1.578125 1.578125h-1.8125l-.34375-2.1875h1.5625q0 .09375-.09375.09375v-4.28125l-.828125.265625q-.15625 1.046875-1.0625.125l-.671875-2.28125 2.5625-.53125v-3.15625h-2.078125v-2.1875h2.078125v-3.859375h1.828125q1.609375.21875.4375 1.03125v2.828125h1.921875v2.1875h-1.921875v2.65625l1.734375-.5zm17.34375-8.53125h4.296875v1.96875h-2.46875l-.09375.859375h3.3125v1.96875h-3.515625l.03125-.125q1.703125.5625 3.546875 1.671875l-1.140625 2.03125q-1.59375-1.109375-3.1875-1.921875-1.140625 1.78125-4.6875 2.71875l-.78125-2.140625q3.8125-1.09375 4.03125-2.234375h-3.6875v-1.96875h3.96875l.078125-.859375h-.6875q-.453125.671875-1.546875 1.6875l-1.625-1.28125q1.78125-1.890625 2.625-4.21875l1.84375.390625q.9375.921875-.140625 1.09375zm6.96875 1.671875v3.15625h2.859375v-3.15625zm-8.125 5.96875h11.09375v8.140625h-2.265625v-.515625h-6.5625v.890625h-2.265625zm2.265625 1.96875v.859375h6.5625v-.859375zm0 2.828125v.84375h6.5625v-.84375zm3.828125-12.734375h6.9375v7.6875h-2.046875v-.59375h-2.859375v.8125h-2.03125zm16.5.109375q1.640625 1.828125 2.96875 4.0625l-2.0625 1.1875-.65625-1-6.078125.625q-.15625.984375-1.078125.0625l-.578125-2.375h2.234375l1.5-4.0625 2.3125.53125q.921875.921875-.171875 1.09375l-1.328125 2.3125 2.03125-.125-.9375-1.265625zm-3.625 7.0625v.46875h2.703125v-.46875zm0 2.671875v.46875h2.703125v-.46875zm4.96875-4.875v9.75q0 1.578125-1.578125 1.578125h-1.59375l-.34375-2.1875h1.421875q0 .171875-.171875.15625v-1.75h-2.703125v3.859375h-2.265625v-11.40625zm2.890625 2.90625q1.625.171875.453125 1.03125v1.171875l4.015625-1.484375.9375 1.625q.203125 1.390625-.875.765625l-4.078125 1.0625v1.78125q0 .125.046875.125h2.96875q.1875 0 .203125-.1875l.3125-1.65625 2.3125.4375-.359375 2.09375q-.28125 1.515625-1.640625 1.515625h-4.390625q-1.71875 0-1.71875-1.65625v-6.625zm5.109375-5.625q.203125 1.40625-.859375.796875l-3.796875 1.0625v1.484375q0 .125.046875.125h2.96875q.109375 0 .140625-.25l.1875-1.765625 2.328125.453125-.1875 1.984375q-.171875 1.765625-1.796875 1.765625h-4.234375q-1.71875 0-1.71875-1.65625v-6.984375h1.8125q1.625.171875.453125 1.03125v1.796875l3.53125-1.515625z" fill="#fff"/><path d="m361.37534 54.301838h109.60629v61.763783h-109.60629z" fill="none"/><path d="m392.33472 77.14371q1.03125-2.015625 1.25-6.09375h-2.515625q.21875 4.078125 1.265625 6.09375zm2.734375-6.09375q-.140625 4.609375-1.78125 7.421875 1.1875 1.484375 3.34375 2.59375l-.96875 1.640625q-2.375-1.5625-3.328125-2.96875-1.71875 1.9375-5.28125 3.34375l-.734375-1.484375q3.859375-1.5625 5.125-3.203125-1.265625-2.4375-1.421875-4.890625-.4375 1.109375-.890625 1.703125l-1.25-.96875q2.21875-3.265625 2.671875-8.078125l1.546875.359375q.453125.296875-.21875.453125-.21875 1.328125-.59375 2.671875h5.046875v1.40625zm-6.890625-3.5625q-.453125 1.109375-1.046875 1.859375l-1.1875-.671875q.59375-.96875 1.109375-2.21875l1.34375.65625q.296875.296875-.21875.375zm-4.75 10.46875q1.03125.296875 1.84375.671875.59375-.671875.96875-2.015625h-2.15625q-.296875.671875-.65625 1.34375zm-1.046875 1.859375-1.1875-.671875q.75-1.109375 1.484375-2.53125h-2.8125v-1.1875h3.265625q.4375-.953125.65625-1.625l1.421875.375q.296875.296875-.234375.359375l-.4375.890625h4.234375v1.1875h-1.125q-.359375 1.484375-1.109375 2.53125.671875.296875 1.40625.734375l-.65625 1.1875q-.828125-.515625-1.484375-.8125-1.9375 1.9375-5.203125 2.375l-.515625-1.328125q2.890625-.296875 4.453125-1.640625-.8125-.375-1.640625-.671875zm1.484375-13.953125h1.1875q.59375.0625.078125.4375v3.1875h3.78125v1.1875h-3.109375q.8125.96875 2.515625 1.859375l-.8125 1.265625q-1.265625-.75-2.375-2.078125v1.78125h-1.265625v-1.40625q-1.1875 1.484375-3.265625 2.671875l-.96875-1.1875q2.3125-1.1875 3.796875-2.90625h-3.421875v-1.1875h3.859375zm-2.078125 3.40625q-.515625-1.109375-1.328125-1.921875l1.1875-.75q.890625.890625 1.328125 1.859375zm23.15625-2.96875h9.71875v4.671875h-3.328125v2.15625h4.15625v1.1875h-4.15625v2.234375h2.890625v6.15625h-1.265625v-.8125h-4.453125v1.03125h-1.265625v-6.375h2.609375v-2.234375h-3.640625v1.1875q0 4.96875-2.15625 7.203125l-1.109375-1.109375q2-2.015625 2-6.390625zm8.015625 11.4375h-4.453125v2.96875h4.453125zm-3.109375-4.609375v-2.15625h-3.640625v2.15625zm-3.640625-3.34375h6.96875v-2.296875h-6.96875zm-1.9375 5.578125-1.921875.65625v5.796875q0 1.1875-1.1875 1.1875h-1.484375l-.21875-1.40625h1.109375q.296875 0 .296875-.296875v-4.828125l-1.5625.515625q-.078125.515625-.375.21875l-.515625-1.78125 2.453125-.515625v-3.859375h-2.078125v-1.40625h2.078125v-3.859375h1.40625q.59375.078125.078125.4375v3.421875h1.921875v1.40625h-1.921875v3.5625l1.78125-.515625z" fill="#000"/><path d="m426.14722 73.28433v-2.1875q0-1.171875-.078125-1.96875h1.671875q-.140625.578125-.140625 2.03125v2.125h2.625q1.53125 0 2.25-.078125v1.609375q-.71875-.078125-2.25-.078125h-2.625v5.96875h3.203125q1.828125 0 2.765625-.0625v1.53125q-.9375-.078125-2.6875-.078125h-7.4375q-1.890625 0-2.6875.078125v-1.53125q1.078125.0625 2.6875.0625h2.703125v-5.96875h-1.6875q-1.890625 0-2.546875.078125v-1.609375q1.171875.078125 2.546875.078125zm4.65625-6.484375q1.609375 0 2.484375-.078125v1.453125q-.734375-.078125-2.484375-.078125h-10.046875v6.5q0 2.46875-.546875 4.515625-.546875 2.03125-1.578125 4-.578125-.578125-1.53125-.9375 1.25-1.828125 1.6875-3.46875.4375-1.640625.5-3.671875v-5.46875q-.0625-1.53125-.140625-2.765625zm-.796875 9.03125q1.15625 1.53125 1.890625 2.6875-.796875.4375-1.453125.875-.734375-1.53125-1.609375-2.765625.65625-.359375 1.171875-.796875zm12.015625 5.3125q2.1875-.140625 4.671875-.578125v-2.84375h-2.484375v.65625h-1.375q.0625-2.1875.0625-3.125v-2.40625h3.796875v-1.828125h-3.203125q.0625-1.171875.0625-2.265625 0-1.15625-.0625-2.171875h7.796875q-.078125 1.015625-.078125 2.171875 0 1.09375.078125 2.265625h-3.28125v1.828125h3.9375q-.078125.875-.078125 2.328125 0 1.453125.078125 2.546875h-3.9375v2.703125l2.46875-.4375q-.28125-.4375-.578125-.953125.734375-.21875 1.234375-.515625 1.3125 2.125 2.046875 3.4375-.734375.28125-1.3125.71875-.296875-.71875-.875-1.75-.875.15625-3.5.703125-2.625.546875-4.734375 1.125-.21875-.953125-.734375-1.609375zm-5.09375.15625q1.890625 0 2.328125-.21875.4375-.21875.515625-.8125l.28125-4.4375h-3.421875q.15625-1.453125.1875-2.65625.03125-1.203125.03125-2.375h3.578125v-2.84375h-1.53125q-1.3125 0-2.484375.078125v-1.234375q1.25.0625 2.484375.0625h2.90625q-.0625 1.171875-.0625 2.484375 0 1.234375.0625 2.546875h-3.484375l-.15625 2.84375h3.359375q-.15625 1.3125-.21875 2.328125l-.21875 3.71875q-.15625 1.171875-1.140625 1.5625-.96875.40625-2.28125.625-.21875-.953125-.734375-1.671875zm12.96875-11.375v-2.265625h-5.03125v2.265625zm-3.203125 6.703125v-2.6875h-2.484375v2.6875zm3.78125 0v-2.6875h-2.46875v2.6875z" fill="#000"/><path d="m361.37534 321.69815h109.60629v61.763794h-109.60629z" fill="none"/><path d="m385.5691 343.49316q-.890625 2.296875-2.671875 4.3125l-.8125-1.125q1.703125-2.078125 2.59375-4.375-1.109375-1.625-2.296875-3.1875l.75-.75q1.03125 1.1875 1.84375 2.3125.296875-1.78125.453125-3.640625l1.265625.296875q.59375.21875-.078125.4375-.21875 1.78125-.59375 4.09375 1.03125 1.40625 1.921875 2.734375l-.734375 1.265625q-.8125-1.1875-1.640625-2.375zm-3.859375-7.5625v13.734375h-1.484375v-15.15625h15.375v13.8125q0 1.1875-1.125 1.1875h-1.84375l-.296875-1.40625h1.546875q.234375 0 .234375-.234375v-11.9375zm8.765625 5.1875q.4375-2.21875.59375-4.15625l1.1875.15625q.734375.21875 0 .515625-.21875 2.078125-.8125 4.59375 1.109375 1.5625 1.921875 2.96875l-.734375 1.1875q-.890625-1.484375-1.71875-2.734375-1.109375 2.890625-2.59375 4.453125l-.8125-1.1875q1.484375-1.5625 2.453125-4.390625-1.125-1.78125-2.234375-3.109375l.75-.8125q.890625 1.03125 2 2.515625z" fill="#000"/><path d="m404.52222 339.5869q.796875-.875 1.296875-1.75.515625-.875.984375-1.9375.484375-1.0625.78125-2.4375.796875.359375 1.75.515625-.4375.640625-.953125 1.671875h5.90625q-1.09375 2.1875-1.828125 3.28125-.734375 1.09375-1.53125 1.96875.953125.65625 2.265625 1.09375 1.3125.4375 2.40625.65625-.375.578125-.734375 1.515625-.734375-.21875-1.3125-.421875-.140625 1.015625-.140625 1.890625v2.625q0 1.09375.0625 2.25h-1.375v-1.375h-4.375v1.53125h-1.390625q.078125-1.09375.078125-2.046875v-2.921875q0-.578125-.078125-1.953125-.4375.203125-1.234375.5-.296875-.796875-.796875-1.375 1.09375-.296875 2.4375-.84375 1.34375-.546875 2.15625-1.203125-.953125-1.234375-1.609375-2.765625-.796875 1.234375-1.609375 2.328125-.4375-.4375-1.15625-.796875zm-1.6875-4.75q-.5.65625-1.15625 2.015625-.65625 1.34375-1.53125 2.875h2.046875q.796875-1.53125 1.15625-2.703125.734375.59375 1.453125.953125-.4375.515625-1.3125 2.078125-.875 1.5625-2.390625 4.109375 2.171875-.359375 3.125-.5-.078125.9375 0 1.375-1.75.21875-2.703125.40625-.9375.1875-2.171875.46875-.21875-.796875-.515625-1.375.734375-.296875 1.421875-1.3125.6875-1.015625 1.421875-2.484375-1.96875.078125-2.984375.515625-.21875-.65625-.515625-1.453125.875-.4375 1.75-2.21875.875-1.796875 1.3125-3.546875.796875.515625 1.59375.796875zm9.265625 13.125v-3.140625h-4.375v3.140625zm-7.65625-1.390625q.140625.734375.140625 1.3125-.796875.15625-2.296875.671875-1.484375.5-2.875 1.078125-.28125-.875-.65625-1.59375 1.828125-.375 3.03125-.65625 1.203125-.296875 2.65625-.8125zm5.546875-6.625q.4375-.4375 1.046875-1.3125.625-.875 1.0625-1.828125h-3.9375q.734375 1.828125 1.828125 3.140625zm3.484375 3.71875q-1.015625-.4375-1.921875-.875-.90625-.4375-1.71875-1.015625-.875.578125-1.640625 1.015625-.765625.4375-1.703125.875zm11.890625-6.484375q0-1.390625-.078125-3.203125h1.53125q-.078125 1.8125-.078125 3.125v3.71875h3.859375q1.390625 0 2.78125-.078125v1.3125q-1.53125-.0625-2.703125-.0625h-1.234375q.515625 2.6875 1.8125 4.265625 1.3125 1.5625 2.921875 2.359375-.796875.578125-1.09375 1.234375-1.828125-1.015625-3.171875-3.09375-1.34375-2.078125-1.703125-4.765625h-1.46875v6.046875q.734375-.4375 1.90625-1.3125l.4375 1.453125q-1.03125.578125-1.828125 1.125-.796875.546875-1.609375 1.203125-.359375-.578125-.875-1.234375.65625-.515625.59375-1.453125v-5.828125q-1.171875 0-2.046875.0625v-1.3125q.875.078125 2.046875.078125zm-2.125-2.34375q-.0625 1.25-.0625 2.5625 0 1.234375.0625 2.546875h-4l-.140625 2.625h4q-.078125 1.8125-.21875 3.53125-.140625 1.71875-.25 2.484375-.109375.765625-.921875 1.09375-.796875.328125-2.390625.46875-.078125-.65625-.59375-1.609375 1.6875.078125 2.265625-.140625.578125-.21875.65625-4.65625h-4.078125q.21875-2.34375.28125-4.96875h3.9375v-2.765625h-1.8125q-1.171875 0-2.34375.078125v-1.3125q1.171875.0625 2.265625.0625zm9.046875.4375q-1.828125 2.625-3.71875 4.75-.578125-.65625-1.015625-.953125 1.96875-1.96875 3.421875-4.65625.578125.421875 1.3125.859375z" fill="#000"/><path d="m436.83472 348.10254q5.875-2.015625 6.234375-8.984375h-5.34375v-1.640625h5.421875v-3.78125h1.640625q.734375.15625.0625.59375v3.1875h6.53125q-.140625 5.9375-.296875 8.90625-.140625 2.984375-2.21875 2.984375h-2.96875l-.296875-1.640625h2.515625q1.1875 0 1.265625-1.1875.15625-2.15625.296875-7.421875h-4.890625q0 8.015625-7.125 10.765625z" fill="#000"/><path d="m624.4147 171.37796-40.148254-33.685043h16.84253c-23.20337-59.490265-104.26254-101.05512-197.07614-101.05512h33.685028c92.8136 0 173.87274 41.564857 197.07617 101.05512h16.84253z" fill="#cfe2f3" fill-rule="evenodd"/><path d="m420.87534 37.099888c-105.51871 5.8000107-186.69685 64.18581-186.69685 134.27808h-33.685043c0-37.67337 23.825562-73.62617 65.69861-99.1393 41.873016-25.513119 97.96884-38.256176 154.68329-35.138775z" fill="#a5b4c2" fill-rule="evenodd"/><path d="m420.87534 37.099888c-105.51871 5.8000107-186.69685 64.18581-186.69685 134.27808h-33.685043c0-74.41494 91.127686-134.74017 203.53937-134.74017h33.685028c92.8136 0 173.87274 41.564857 197.07617 101.05512h16.84253l-27.221863 33.685043-40.148254-33.685043h16.84253c-23.20337-59.490265-104.26254-101.05512-197.07614-101.05512" fill="none"/><path d="m420.87534 37.099888c-105.51871 5.8000107-186.69685 64.18581-186.69685 134.27808h-33.685043c0-74.41494 91.127686-134.74017 203.53937-134.74017h33.685028c92.8136 0 173.87274 41.564857 197.07617 101.05512h16.84253l-27.221863 33.685043-40.148254-33.685043h16.84253c-23.20337-59.490265-104.26254-101.05512-197.07614-101.05512" fill-rule="evenodd" stroke="#0b5394" stroke-linecap="butt" stroke-linejoin="round"/><path d="m221.06036 239.28084 40.148254 33.685043h-16.842514c23.203415 59.490265 104.26256 101.055115 197.07616 101.055115h-33.685028c-92.81363 0-173.87276-41.56485-197.07616-101.055115h-16.84253z" fill="#d0e0e3" fill-rule="evenodd"/><path d="m424.59973 373.5589c105.51874-5.8000183 186.69684-64.18579 186.69684-134.27806h33.68506c0 37.673355-23.825562 73.626175-65.69861 99.1393-41.873047 25.513123-97.96884 38.256165-154.68329 35.138763z" fill="#a6b3b5" fill-rule="evenodd"/><path d="m424.59973 373.5589c105.51874-5.8000183 186.69684-64.18579 186.69684-134.27806h33.68506c0 74.41493-91.127686 134.74016-203.53937 134.74016h-33.685028c-92.81363 0-173.87276-41.56485-197.07616-101.055115h-16.84253l27.221817-33.685043 40.148254 33.685043h-16.842514c23.203415 59.490265 104.26256 101.055115 197.07616 101.055115" fill="none"/><path d="m424.59973 373.5589c105.51874-5.8000183 186.69684-64.18579 186.69684-134.27806h33.68506c0 74.41493-91.127686 134.74016-203.53937 134.74016h-33.685028c-92.81363 0-173.87276-41.56485-197.07616-101.055115h-16.84253l27.221817-33.685043 40.148254 33.685043h-16.842514c23.203415 59.490265 104.26256 101.055115 197.07616 101.055115" fill-rule="evenodd" stroke="#38761d" stroke-linecap="butt" stroke-linejoin="round"/><path d="m322.95013 174.4462h186.4567v61.76378h-186.4567z" fill="none"/><path d="m354.20972 214.96307q2.578125-2.59375 4.453125-6.484375l2.90625 1.609375q2.375 1.78125-.1875 2.046875-1.375 2.609375-3.6875 5.390625zm9.328125-16.796875q-1.0625-3.671875-2.484375-6.5l3.328125-1.359375q1.5625 2.828125 2.625 6.3125zm-5.984375 2.25v-12.4375h22.6875v12.4375h-9.375v.8125h11.125v3.6875h-11.125v1.0625h13.375v3.6875h-30.0625v-3.6875h12.875v-1.0625h-10.625v-3.6875h10.625v-.8125h-4.09375zm12.96875-3.546875q1.703125-3.234375 2.78125-6.609375l2.8125 1.15625q2.71875 1.515625.0625 2.046875-.75 1.828125-2.296875 4.59375zm9.953125 20.46875q-1.828125-3.484375-4.203125-6.765625l3.0625-1.90625q2.78125 3.078125 4.625 6.296875zm-8.78125-.359375q-.625-3.28125-2.109375-7l3.5625-1.125q2.0625 3.671875 2.703125 6.859375zm-7.265625-.03125q0-3.46875-1.03125-7.28125l3.75-.9375q1.34375 4.15625 1.5 7.296875zm-3.0625-20.21875h5.6875v-5.0625h-5.6875zm15.0625-5.0625h-5.5625v5.0625h5.5625zm17.4375 14.21875q-1.671875 4.859375-3.5625 9.25.734375 1.71875-1.375 1.375l-2.953125-2.484375q1.640625-2.6875 4.671875-10.40625zm-2-3.40625q-2.390625-1.921875-5.59375-3.59375l2.03125-3.15625q2.984375.9375 5.765625 3.265625zm14.1875 4v-3.3125h-2.9375v3.3125zm3.4375 4.6875h-3.4375v-1.375h-2.9375v2h-3.4375v-11.9375h9.8125zm1.375-13.125h-12.6875v-3.6875h12.6875zm3.625 16.09375q0 2.40625-2.28125 2.40625h-3.15625l-.78125-3.6875h2.5625q0 .15625-.15625.15625v-20.84375h-12.3125v24.375h-3.8125v-28.0625h19.9375zm-25.171875-26.203125q3.15625 1.40625 5.46875 3.890625l-2.25 3.375q-2.109375-2.28125-5.25-3.9375zm48.109375 19.953125q-1.96875-4.046875-2.328125-6.1875-.09375.1875-2.15625 2.765625l-2.1875-2.96875q3.84375-4.78125 5.96875-13.953125l2.703125.84375q2.75 1.03125.203125 1.875-.546875 2.3125-.890625 3.34375h8.5v3.6875h-2.53125q-.21875 5.78125-3.0625 10.625 2.34375 2.5625 6.125 4.390625l-1.46875 4.03125q-5.171875-2.953125-6.90625-5.40625-2.65625 2.984375-8.46875 5.828125l-1.890625-3.59375q5.421875-2.09375 8.390625-5.28125zm-8.59375-1.140625q1.34375 1.046875 3.328125 3.640625l-2.484375 3.25q-1.84375-2.6875-2.84375-3.609375-1.78125 2.703125-6.984375 6.171875l-1.90625-3.453125q4.3125-2.359375 6.296875-5.171875-1.09375-1.203125-3.203125-2.828125l2.1875-2.78125q2.28125 1.796875 3.046875 2.5.46875-.859375 1.609375-3.625l2.296875 1.234375q2.28125 1.625.015625 1.90625-.515625 1.453125-1.359375 2.765625zm-.015625-11.59375q2.59375 1.609375 4.203125 3.71875l-2.3125 3.28125q-1.828125-2.65625-4.234375-4.09375zm-10.390625.390625v-3.6875h5.875v-4.625h3.078125q2.703125.34375.734375 1.75v2.875h5.5v3.6875zm6.765625 1.171875q2.3125 1.65625-.359375 1.921875-1.625 2.421875-5.375 6.03125l-1.96875-3.140625q3.453125-3.171875 5.234375-6.296875zm14.375 7.75q1.609375-3.59375 1.609375-7.171875h-3.375q.421875 4.40625 1.765625 7.171875z" fill="#000"/><path d="m466.8191 186.24432q1.125 2.90625 1.734375 4.609375h4.03125q2.609375 0 6.15625-.15625v3.625q-3.546875-.15625-6.15625-.15625h-15.71875q0 6.75-.25 9.90625-.25 3.15625-.953125 6.484375-.703125 3.3125-3 7.25-1.390625-1.78125-3.3125-2.84375 2-2.609375 2.84375-6.3125.859375-3.71875.984375-8.046875.125-4.34375-.015625-9.75h11.109375q-.1875-.875-1.40625-3.3125 2.015625-.40625 3.953125-1.296875zm11.09375 11.140625q-1.59375 3.5-2.53125 6.125-.9375 2.609375-3.3125 8.21875h2.515625q1.734375 0 4.53125-.171875v4.03125q-2.796875-.171875-4.53125-.171875h-13.375q-2.109375 0-5.78125.15625v-4q3.546875.15625 5.78125.15625h6.96875q1.671875-3.46875 3.09375-7.671875 1.421875-4.21875 2.21875-8.296875 2.3125 1.25 4.421875 1.625zm-18.359375 1q3.609375 5.6875 5.484375 10.15625-1.375.78125-3.25 1.90625-2.78125-6.234375-5.34375-9.953125 1.65625-1.28125 3.109375-2.109375zm5.984375-2.96875q2.890625 5.046875 5.015625 9.875-1.65625.921875-3.59375 1.890625-1.71875-4.90625-4.5625-10.015625 1.625-.609375 3.140625-1.75z" fill="#000"/><path d="m29.76509 186.44226h109.60629v38.677155h-109.60629z" fill="none"/><g fill="#000"><path d="m53.958866 208.23726q-.890625 2.296875-2.671875 4.3125l-.8125-1.125q1.703125-2.078125 2.59375-4.375-1.109375-1.625-2.296875-3.1875l.75-.75q1.03125 1.1875 1.84375 2.3125.296875-1.78125.453125-3.640625l1.265625.296875q.59375.21875-.078125.4375-.21875 1.78125-.59375 4.09375 1.03125 1.40625 1.921875 2.734375l-.734375 1.265625q-.8125-1.1875-1.640625-2.375zm-3.859375-7.5625v13.734375h-1.484375v-15.15625h15.375v13.8125q0 1.1875-1.125 1.1875h-1.84375l-.296875-1.40625h1.546875q.234375 0 .234375-.234375v-11.9375zm8.765625 5.1875q.4375-2.21875.59375-4.15625l1.1875.15625q.734375.21875 0 .515625-.21875 2.078125-.8125 4.59375 1.109375 1.5625 1.921875 2.96875l-.734375 1.1875q-.890625-1.484375-1.71875-2.734375-1.109375 2.890625-2.59375 4.453125l-.8125-1.1875q1.484375-1.5625 2.453125-4.390625-1.125-1.78125-2.234375-3.109375l.75-.8125q.890625 1.03125 2 2.515625z"/><path d="m72.911995 204.33101q.796875-.875 1.296875-1.75.515625-.875.984375-1.9375.484375-1.0625.78125-2.4375.796875.359375 1.75.515625-.4375.640625-.953125 1.671875h5.90625q-1.09375 2.1875-1.828125 3.28125-.734375 1.09375-1.53125 1.96875.953125.65625 2.265625 1.09375 1.3125.4375 2.40625.65625-.375.578125-.734375 1.515625-.734375-.21875-1.3125-.421875-.140625 1.015625-.140625 1.890625v2.625q0 1.09375.0625 2.25h-1.375v-1.375h-4.375v1.53125h-1.390625q.078125-1.09375.078125-2.046875v-2.921875q0-.578125-.078125-1.953125-.4375.203125-1.234375.5-.296875-.796875-.796875-1.375 1.09375-.296875 2.4375-.84375 1.34375-.546875 2.15625-1.203125-.953125-1.234375-1.609375-2.765625-.796875 1.234375-1.609375 2.328125-.4375-.4375-1.15625-.796875zm-1.6875-4.75q-.5.65625-1.15625 2.015625-.65625 1.34375-1.53125 2.875h2.046875q.796875-1.53125 1.15625-2.703125.734375.59375 1.453125.953125-.4375.515625-1.3125 2.078125-.875 1.5625-2.390625 4.109375 2.171875-.359375 3.125-.5-.078125.9375 0 1.375-1.75.21875-2.703125.40625-.9375.1875-2.171875.46875-.21875-.796875-.515625-1.375.734375-.296875 1.421875-1.3125.6875-1.015625 1.421875-2.484375-1.96875.078125-2.984375.515625-.21875-.65625-.515625-1.453125.875-.4375 1.75-2.21875.875-1.796875 1.3125-3.546875.796875.515625 1.59375.796875zm9.265625 13.125v-3.140625h-4.375v3.140625zm-7.65625-1.390625q.140625.734375.140625 1.3125-.796875.15625-2.296875.671875-1.484375.5-2.875 1.078125-.28125-.875-.65625-1.59375 1.828125-.375 3.03125-.65625 1.203125-.296875 2.65625-.8125zm5.546875-6.625q.4375-.4375 1.046875-1.3125.625-.875 1.0625-1.828125h-3.9375q.734375 1.828125 1.828125 3.140625zm3.484375 3.71875q-1.015625-.4375-1.921875-.875-.90625-.4375-1.71875-1.015625-.875.578125-1.640625 1.015625-.765625.4375-1.703125.875z"/><path d="m97.25574 210.09663q-1.25-2.59375-1.625-4.90625-.59375 1.046875-1.484375 2.15625l-.8124924-1.109375q2.1406174-2.671875 3.3281174-7.796875l1.1875.375q.59375.21875-.0625.4375-.375 1.5625-.75 2.671875h5.203125v1.421875h-1.484375q-.15625 3.703125-1.9375 6.75 1.640625 1.78125 3.640625 2.75l-.59375 1.625q-2.59375-1.484375-3.859375-3.265625-1.859375 2.078125-4.9062424 3.5625l-.734375-1.40625q2.8906174-1.109375 4.8906174-3.265625zm-6.0781174-.671875q1.03125.8125 2 2.078125l-.96875 1.265625q-.8125-1.1875-1.78125-2.078125-1.25 1.921875-3.921875 3.71875l-.75-1.34375q2.296875-1.265625 3.71875-3.265625-.890625-.96875-1.859375-1.703125l.8125-1.046875q1.046875.8125 1.859375 1.5625.515625-.96875 1.03125-2.234375l.96875.53125q.515625.359375-.078125.4375-.359375 1.046875-1.03125 2.078125zm.59375-6.453125q1.1875.734375 1.921875 1.703125l-.890625 1.265625q-.8125-1.1875-1.921875-1.859375zm-5.859375-.671875v-1.40625h3.484375v-2.75h1.40625q.59375.078125.078125.453125v2.296875h3.2656174v1.40625h-8.234367zm3.40625 1.40625q.515625.375-.21875.453125-1.046875 1.5625-2.890625 3.34375l-.75-1.1875q1.859375-1.71875 2.75-3.265625zm8.765617 5.203125q1.328125-2.96875 1.328125-5.5625h-2.8125q.296875 3.109375 1.484375 5.5625z"/><path d="m113.84949 197.98726q.5 1.3125.9375 2.546875h2.625q1.53125 0 3.203125-.078125v1.3125q-1.671875-.0625-3.203125-.0625h-9.546875q0 4.296875-.140625 6.125-.140625 1.8125-.546875 3.71875-.40625 1.890625-1.421875 3.640625-.515625-.65625-1.3125-1.09375.953125-1.25 1.453125-3.46875.515625-2.21875.578125-4.765625.078125-2.5625.015625-5.328125h6.546875q-.21875-1.015625-.71875-2.03125.71875-.15625 1.53125-.515625zm6.109375 6.265625q-.71875 1.609375-1.265625 3.140625-.546875 1.515625-2.15625 5.3125h2.046875q1.015625 0 2.25-.078125v1.53125q-1.234375-.0625-2.25-.0625h-7.796875q-1.25 0-2.984375.0625v-1.53125q1.671875.078125 2.984375.078125h4.296875q1.09375-2.265625 1.921875-4.734375.84375-2.484375 1.203125-4.375.953125.515625 1.75.65625zm-10.265625.796875q1.890625 3 2.84375 5.25-.515625.296875-1.25.734375-1.453125-3.28125-2.765625-5.171875.65625-.515625 1.171875-.8125zm3.5-1.671875q1.453125 2.546875 2.546875 5.03125-.65625.359375-1.390625.71875-.875-2.46875-2.328125-5.09375.578125-.21875 1.171875-.65625z"/></g><path d="m703.1457 185.29659h109.60626v38.67717h-109.60626z" fill="none"/><path d="m734.16754 200.04471h3.640625v4.078125h-1.484375v-2.671875h-13.0625v2.890625h-1.484375v-4.296875h10.765625l1.5625-3.265625 1.546875.734375q.296875.375-.21875.453125zm-4.515625-3.1875q1.109375 1.40625 1.484375 2.296875l-1.5625.8125q-.59375-1.328125-1.34375-2.296875zm-.53125 8.53125 1.265625.078125 2.15625-1.265625h-7.875v-1.1875h9.140625l.21875-.21875 1.265625 1.1875q.21875.296875-.375.296875-2.234375 1.40625-4.3125 2.296875v.734375h7.71875v1.421875h-7.71875v3.78125q0 1.1875-1.1875 1.1875h-2l-.296875-1.640625h1.703125q.296875 0 .296875-.296875v-3.03125h-7.71875v-1.421875h7.71875zm-3.859375-5.421875q-.65625-1.328125-1.328125-2.078125l1.40625-.8125q.8125.890625 1.484375 2.078125z" fill="#000"/><path d="m746.5738 199.60721q-2.109375 0-4 .078125v-1.46875q2.40625.078125 3.640625.078125h9.109375q-.140625 1.015625-.21875 3.140625l-.296875 9.6875q-.140625 1.96875-1.15625 2.328125-1.015625.375-3.359375.515625-.21875-.875-.796875-1.75 2.109375.140625 2.90625-.03125.8125-.1875.953125-1.359375l.296875-11.21875zm4.96875 6.5625q0 .796875.140625 1.53125-4.15625 1.53125-8.671875 3.78125-.359375-.875-1.015625-1.671875.9375-.21875 3.734375-1.234375 2.8125-1.03125 5.8125-2.40625zm-7-5.109375q3.125 1.828125 4.65625 3-.28125.4375-1.015625 1.375-1.3125-1.234375-4.515625-3.125.5-.65625.875-1.25z" fill="#000"/><path d="m770.6363 208.95096q-1.25-2.59375-1.625-4.90625-.59375 1.046875-1.484375 2.15625l-.8125-1.109375q2.140625-2.671875 3.328125-7.796875l1.1875.375q.59375.21875-.0625.4375-.375 1.5625-.75 2.671875h5.203125v1.421875h-1.484375q-.15625 3.703125-1.9375 6.75 1.640625 1.78125 3.640625 2.75l-.59375 1.625q-2.59375-1.484375-3.859375-3.265625-1.859375 2.078125-4.90625 3.5625l-.734375-1.40625q2.890625-1.109375 4.890625-3.265625zm-6.078125-.671875q1.03125.8125 2 2.078125l-.96875 1.265625q-.8125-1.1875-1.78125-2.078125-1.25 1.921875-3.921875 3.71875l-.75-1.34375q2.296875-1.265625 3.71875-3.265625-.890625-.96875-1.859375-1.703125l.8125-1.046875q1.046875.8125 1.859375 1.5625.515625-.96875 1.03125-2.234375l.96875.53125q.515625.359375-.078125.4375-.359375 1.046875-1.03125 2.078125zm.59375-6.453125q1.1875.734375 1.921875 1.703125l-.890625 1.265625q-.8125-1.1875-1.921875-1.859375zm-5.859375-.671875v-1.40625h3.484375v-2.75h1.40625q.59375.078125.078125.453125v2.296875h3.265625v1.40625zm3.40625 1.40625q.515625.375-.21875.453125-1.046875 1.5625-2.890625 3.34375l-.75-1.1875q1.859375-1.71875 2.75-3.265625zm8.765625 5.203125q1.328125-2.96875 1.328125-5.5625h-2.8125q.296875 3.109375 1.484375 5.5625z" fill="#000"/><path d="m787.23004 196.84158q.5 1.3125.9375 2.546875h2.625q1.53125 0 3.203125-.078125v1.3125q-1.671875-.0625-3.203125-.0625h-9.546875q0 4.296875-.140625 6.125-.140625 1.8125-.546875 3.71875-.40625 1.890625-1.421875 3.640625-.515625-.65625-1.3125-1.09375.953125-1.25 1.453125-3.46875.515625-2.21875.578125-4.765625.078125-2.5625.015625-5.328125h6.546875q-.21875-1.015625-.71875-2.03125.71875-.15625 1.53125-.515625zm6.109375 6.265625q-.71875 1.609375-1.265625 3.140625-.546875 1.515625-2.15625 5.3125h2.046875q1.015625 0 2.25-.078125v1.53125q-1.234375-.0625-2.25-.0625h-7.796875q-1.25 0-2.984375.0625v-1.53125q1.671875.078125 2.984375.078125h4.296875q1.09375-2.265625 1.921875-4.734375.84375-2.484375 1.203125-4.375.953125.515625 1.75.65625zm-10.265625.796875q1.890625 3 2.84375 5.25-.515625.296875-1.25.734375-1.453125-3.28125-2.765625-5.171875.65625-.515625 1.171875-.8125zm3.5-1.671875q1.453125 2.546875 2.546875 5.03125-.65625.359375-1.390625.71875-.875-2.46875-2.328125-5.09375.578125-.21875 1.171875-.65625z" fill="#000"/></g></svg>