<svg enable-background="new 0 0 800 414" viewBox="0 0 800 414" xmlns="http://www.w3.org/2000/svg"><path d="m211.4 14.7v-4.8h-5.4v4.7h-1.5v-10.6h1.5v4.5h5.4v-4.5h1.5v10.6h-1.5z" fill="#999"/><path d="m223 11c0 2.2-1.5 3.8-3.7 3.8s-3.7-1.6-3.7-3.8 1.5-3.8 3.7-3.8 3.7 1.6 3.7 3.8zm-1.5 0c0-1.7-1.1-2.6-2.2-2.6s-2.3 1-2.3 2.6c0 1.7 1 2.6 2.2 2.6s2.3-.9 2.3-2.6z" fill="#999"/><path d="m232.3 11c0 2.2-1.5 3.8-3.7 3.8s-3.7-1.6-3.7-3.8 1.5-3.8 3.7-3.8 3.7 1.6 3.7 3.8zm-1.4 0c0-1.7-1.1-2.6-2.2-2.6s-2.2.9-2.2 2.6 1.1 2.6 2.2 2.6 2.2-.9 2.2-2.6z" fill="#999"/><path d="m238.3 10.5 3.1 4.2h-1.8l-2.4-3.2-1 1v2.2h-1.4v-10.9h1.4v6.8l3.1-3.2h1.9z" fill="#999"/><path d="m244.1 12.3c.1.8.7 1.3 1.7 1.3.8 0 1.2-.4 1.2-1 0-.4-.3-.8-.9-.9l-1.2-.3c-1.1-.2-1.8-1-1.8-2 0-1.2 1.2-2.3 2.6-2.3 2 0 2.6 1.3 2.7 1.9l-1.2.5c-.1-.4-.4-1.2-1.5-1.2-.7 0-1.2.5-1.2 1 0 .4.3.8.8.9l1.2.3c1.3.3 2 1.1 2 2.1s-.9 2.2-2.6 2.2c-2 0-2.8-1.3-2.9-2.1z" fill="#999"/><path d="m261.8 12.6c-.4 1.3-1.6 2.3-3.2 2.3-1.9 0-3.6-1.4-3.6-3.9 0-2.3 1.6-3.8 3.4-3.8 2.2 0 3.5 1.5 3.5 3.8v.4h-5.4c0 1.3 1 2.2 2.2 2.2s1.8-.6 2-1.5zm-1.4-2.3c0-1-.7-1.8-2-1.8-1.2 0-1.9.9-2 1.8z" fill="#999"/><path d="m266 11-2.6-3.5h1.7l1.8 2.5 1.7-2.5h1.7l-2.6 3.5c.4.6 2.2 3.1 2.7 3.7h-1.7l-1.9-2.7-1.8 2.7h-1.7z" fill="#999"/><path d="m278.6 12.6c-.4 1.3-1.6 2.3-3.2 2.3-1.9 0-3.6-1.4-3.6-3.9 0-2.3 1.6-3.8 3.4-3.8 2.2 0 3.5 1.5 3.5 3.8v.4h-5.4c0 1.3 1 2.2 2.2 2.2s1.8-.6 2-1.5zm-1.4-2.3c0-1-.7-1.8-2-1.8-1.2 0-1.9.9-2 1.8z" fill="#999"/><path d="m282 11c0 1.6 1 2.5 2.2 2.5 1.3 0 1.8-.9 2-1.5l1.2.5c-.3 1-1.4 2.2-3.3 2.2-2.1 0-3.6-1.6-3.6-3.8s1.6-3.8 3.6-3.8c1.9 0 2.9 1.2 3.2 2.3l-1.3.5c-.2-.7-.7-1.5-1.9-1.5-1 .1-2.1 1-2.1 2.6z" fill="#999"/><path d="m292.4 14.9c-1.7 0-2.7-1.3-2.7-2.9v-4.6h1.4v4.3c0 1 .4 1.9 1.6 1.9 1.1 0 1.7-.8 1.7-1.8v-4.4h1.4v5.9c0 .6 0 1.1.1 1.3h-1.4c0-.2-.1-.6-.1-.9-.2.8-1.1 1.2-2 1.2z" fill="#999"/><path d="m300.9 7.4h1.6v1.3h-1.6v3.8c0 .7.3 1 1 1 .2 0 .4 0 .6-.1v1.2c-.1 0-.5.1-1 .1-1.2 0-2-.8-2-2.1v-4h-1.4v-1.2h.4c.8 0 1.1-.5 1.1-1.1v-1.1h1.3z" fill="#999"/><path d="m305.8 3.7c.6 0 1 .4 1 1s-.4 1-1 1-1-.5-1-1c0-.6.4-1 1-1zm-.7 11v-7.3h1.4v7.2h-1.4z" fill="#999"/><path d="m311.1 14.7h-1.4v-7.3h1.4v1c.5-.9 1.4-1.2 2.2-1.2 1.7 0 2.6 1.2 2.6 2.9v4.6h-1.4v-4.3c0-1-.4-1.8-1.7-1.8-1.1 0-1.7.9-1.7 2z" fill="#999"/><path d="m319.7 14.7c.1 1 .9 1.8 2 1.8 1.5 0 2.2-.8 2.2-2.3v-1c-.3.7-1.1 1.2-2.2 1.2-1.9 0-3.3-1.5-3.3-3.5 0-1.9 1.3-3.5 3.3-3.5 1.1 0 1.9.4 2.2 1.1v-1h1.4v6.7c0 1.8-.9 3.6-3.6 3.6-1.8 0-3.1-1.1-3.3-2.7zm4.2-3.9c0-1.4-.8-2.3-2.1-2.3-1.2 0-2.1.9-2.1 2.3s.8 2.3 2.1 2.3 2.1-.9 2.1-2.3z" fill="#999"/><path d="m337.8 13.6c-.3.7-1.1 1.3-2.2 1.3-2.1 0-3.4-1.7-3.4-3.8 0-2 1.4-3.8 3.4-3.8 1.3 0 2 .6 2.2 1.2v-4.7h1.4v9.5c0 .7.1 1.2.1 1.3h-1.4c0-.2-.1-.5-.1-1zm-2.1 0c1.3 0 2.1-1.1 2.1-2.6s-.8-2.5-2.1-2.5-2.1 1-2.1 2.5.8 2.6 2.1 2.6z" fill="#999"/><path d="m344.9 14.9c-1.7 0-2.7-1.3-2.7-2.9v-4.6h1.4v4.3c0 1 .4 1.9 1.6 1.9 1.1 0 1.7-.8 1.7-1.8v-4.4h1.4v5.9c0 .6 0 1.1.1 1.3h-1.4c0-.2-.1-.6-.1-.9-.3.8-1.2 1.2-2 1.2z" fill="#999"/><path d="m355.5 8.9c-.2 0-.4 0-.6 0-1.2 0-2 .6-2 2.2v3.6h-1.4v-7.3h1.4v1.3c.5-1.1 1.4-1.4 2.2-1.4h.5v1.6z" fill="#999"/><path d="m358.4 3.7c.6 0 1 .4 1 1s-.4 1-1 1-1-.5-1-1c0-.6.5-1 1-1zm-.7 11v-7.3h1.4v7.2h-1.4z" fill="#999"/><path d="m363.7 14.7h-1.4v-7.3h1.4v1c.5-.9 1.4-1.2 2.2-1.2 1.7 0 2.6 1.2 2.6 2.9v4.6h-1.4v-4.3c0-1-.4-1.8-1.7-1.8-1.1 0-1.7.9-1.7 2z" fill="#999"/><path d="m372.3 14.7c.1 1 .9 1.8 2 1.8 1.5 0 2.2-.8 2.2-2.3v-1c-.3.7-1.1 1.2-2.2 1.2-1.9 0-3.3-1.5-3.3-3.5 0-1.9 1.3-3.5 3.3-3.5 1.1 0 1.9.4 2.2 1.1v-1h1.4v6.7c0 1.8-.9 3.6-3.6 3.6-1.8 0-3.1-1.1-3.3-2.7zm4.2-3.9c0-1.4-.8-2.3-2.1-2.3-1.2 0-2.1.9-2.1 2.3s.8 2.3 2.1 2.3 2.1-.9 2.1-2.3z" fill="#999"/><path d="m387.3 7.4h1.6v1.3h-1.6v3.8c0 .7.3 1 1 1 .2 0 .4 0 .6-.1v1.2c-.1 0-.5.1-1 .1-1.2 0-2-.8-2-2.1v-4h-1.4v-1.2h.4c.8 0 1.1-.5 1.1-1.1v-1.1h1.3z" fill="#999"/><path d="m392.9 14.7h-1.4v-10.9h1.4v4.5c.5-.8 1.4-1.1 2.2-1.1 1.7 0 2.6 1.2 2.6 2.9v4.6h-1.4v-4.3c0-1-.4-1.8-1.7-1.8-1.1 0-1.6.8-1.7 1.9z" fill="#999"/><path d="m406.9 12.6c-.4 1.3-1.6 2.3-3.2 2.3-1.9 0-3.6-1.4-3.6-3.9 0-2.3 1.6-3.8 3.4-3.8 2.2 0 3.5 1.5 3.5 3.8v.4h-5.4c0 1.3 1 2.2 2.2 2.2s1.8-.6 2-1.5zm-1.4-2.3c0-1-.7-1.8-2-1.8-1.2 0-1.9.9-2 1.8z" fill="#999"/><path d="m414.9 11c0 1.6 1 2.5 2.2 2.5 1.3 0 1.8-.9 2-1.5l1.2.5c-.3 1-1.4 2.2-3.3 2.2-2.1 0-3.6-1.6-3.6-3.8s1.6-3.8 3.6-3.8c1.9 0 2.9 1.2 3.2 2.3l-1.2.6c-.2-.7-.7-1.5-1.9-1.5s-2.2.9-2.2 2.5z" fill="#999"/><path d="m429.4 11c0 2.2-1.5 3.8-3.7 3.8s-3.7-1.6-3.7-3.8 1.5-3.8 3.7-3.8 3.7 1.6 3.7 3.8zm-1.4 0c0-1.7-1.1-2.6-2.2-2.6s-2.2.9-2.2 2.6 1 2.6 2.2 2.6 2.2-.9 2.2-2.6z" fill="#999"/><path d="m432 14.7v-7.3h1.3v1c.4-.8 1.4-1.2 2.2-1.2.9 0 1.8.4 2.2 1.4.6-1 1.5-1.4 2.4-1.4 1.3 0 2.5.9 2.5 2.7v4.7h-1.4v-4.5c0-.9-.5-1.6-1.5-1.6s-1.7.8-1.7 1.8v4.4h-1.4v-4.5c0-.9-.4-1.6-1.5-1.6-1 0-1.7.8-1.7 1.8v4.3z" fill="#999"/><path d="m445.6 14.7v-7.3h1.3v1c.4-.8 1.4-1.2 2.2-1.2.9 0 1.8.4 2.2 1.4.6-1 1.5-1.4 2.4-1.4 1.3 0 2.5.9 2.5 2.7v4.7h-1.4v-4.5c0-.9-.5-1.6-1.5-1.6s-1.7.8-1.7 1.8v4.4h-1.4v-4.5c0-.9-.4-1.6-1.5-1.6-1 0-1.7.8-1.7 1.8v4.3z" fill="#999"/><path d="m459.9 3.7c.6 0 1 .4 1 1s-.4 1-1 1-1-.5-1-1c0-.6.4-1 1-1zm-.7 11v-7.3h1.4v7.2h-1.4z" fill="#999"/><path d="m465.6 7.4h1.6v1.3h-1.6v3.8c0 .7.3 1 1 1 .2 0 .4 0 .6-.1v1.2c-.1 0-.5.1-1 .1-1.2 0-2-.8-2-2.1v-4h-1.4v-1.2h.4c.8 0 1.1-.5 1.1-1.1v-1.1h1.3z" fill="#999"/><path d="m475.2 11c0 1.6 1 2.5 2.2 2.5 1.3 0 1.8-.9 2-1.5l1.2.5c-.3 1-1.4 2.2-3.3 2.2-2.1 0-3.6-1.6-3.6-3.8s1.6-3.8 3.6-3.8c1.9 0 2.9 1.2 3.2 2.3l-1.3.5c-.2-.7-.7-1.5-1.9-1.5-1.1.1-2.1 1-2.1 2.6z" fill="#999"/><path d="m487 8.9c-.2 0-.4 0-.6 0-1.2 0-2 .6-2 2.2v3.6h-1.4v-7.3h1.4v1.3c.5-1.1 1.4-1.4 2.2-1.4h.5v1.6z" fill="#999"/><path d="m495.5 12.6c-.4 1.3-1.6 2.3-3.2 2.3-1.9 0-3.6-1.4-3.6-3.9 0-2.3 1.6-3.8 3.4-3.8 2.2 0 3.5 1.5 3.5 3.8v.4h-5.4c0 1.3 1 2.2 2.2 2.2s1.8-.6 2-1.5zm-1.4-2.3c0-1-.7-1.8-2-1.8-1.2 0-1.9.9-2 1.8z" fill="#999"/><path d="m499.8 10.5 1.9-.3c.4-.1.6-.3.6-.5 0-.7-.5-1.3-1.6-1.3-1 0-1.5.6-1.6 1.5l-1.4-.3c.2-1.4 1.4-2.3 3-2.3 2.2 0 3 1.2 3 2.6v3.6c0 .6.1 1 .1 1.2h-1.4c0-.2-.1-.5-.1-1-.3.5-1 1.2-2.3 1.2-1.5 0-2.4-1-2.4-2.2 0-1.3 1-2 2.2-2.2zm2.5 1.1v-.3l-2.2.3c-.6.1-1 .4-1 1.1 0 .5.4 1 1.2 1 1.1 0 2-.6 2-2.1z" fill="#999"/><path d="m508.6 7.4h1.6v1.3h-1.6v3.8c0 .7.3 1 1 1 .2 0 .4 0 .6-.1v1.2c-.1 0-.5.1-1 .1-1.2 0-2-.8-2-2.1v-4h-1.4v-1.2h.4c.8 0 1.1-.5 1.1-1.1v-1.1h1.3z" fill="#999"/><path d="m513.4 3.7c.6 0 1 .4 1 1s-.4 1-1 1-1-.5-1-1c0-.6.5-1 1-1zm-.7 11v-7.3h1.4v7.2h-1.4z" fill="#999"/><path d="m524.1 11c0 2.2-1.5 3.8-3.7 3.8s-3.7-1.6-3.7-3.8 1.5-3.8 3.7-3.8 3.7 1.6 3.7 3.8zm-1.5 0c0-1.7-1.1-2.6-2.2-2.6s-2.2.9-2.2 2.6 1 2.6 2.2 2.6 2.2-.9 2.2-2.6z" fill="#999"/><path d="m528 14.7h-1.4v-7.3h1.4v1c.5-.9 1.4-1.2 2.2-1.2 1.7 0 2.6 1.2 2.6 2.9v4.6h-1.4v-4.3c0-1-.4-1.8-1.7-1.8-1.1 0-1.7.9-1.7 2z" fill="#999"/><path d="m540.3 17.5v-10.1h1.4v1.1c.4-.7 1.2-1.3 2.4-1.3 2.2 0 3.3 1.7 3.3 3.8s-1.2 3.8-3.4 3.8c-1.1 0-1.9-.5-2.3-1.2v3.8h-1.4zm3.5-9c-1.3 0-2.1 1.1-2.1 2.5 0 1.5.9 2.5 2.1 2.5 1.3 0 2.1-1.1 2.1-2.5s-.8-2.5-2.1-2.5z" fill="#999"/><path d="m553.9 8.9c-.2 0-.4 0-.6 0-1.2 0-2 .6-2 2.2v3.6h-1.4v-7.3h1.4v1.3c.5-1.1 1.4-1.4 2.2-1.4h.5v1.6z" fill="#999"/><path d="m562.9 11c0 2.2-1.5 3.8-3.7 3.8s-3.7-1.6-3.7-3.8 1.5-3.8 3.7-3.8 3.7 1.6 3.7 3.8zm-1.4 0c0-1.7-1.1-2.6-2.2-2.6s-2.3 1-2.3 2.6c0 1.7 1.1 2.6 2.2 2.6s2.3-.9 2.3-2.6z" fill="#999"/><path d="m566.3 11c0 1.6 1 2.5 2.2 2.5 1.3 0 1.8-.9 2-1.5l1.2.5c-.3 1-1.4 2.2-3.3 2.2-2.1 0-3.6-1.6-3.6-3.8s1.6-3.8 3.6-3.8c1.9 0 2.9 1.2 3.2 2.3l-1.3.5c-.2-.7-.7-1.5-1.9-1.5-1.1.1-2.1 1-2.1 2.6z" fill="#999"/><path d="m580.4 12.6c-.4 1.3-1.6 2.3-3.2 2.3-1.9 0-3.6-1.4-3.6-3.9 0-2.3 1.6-3.8 3.4-3.8 2.2 0 3.5 1.5 3.5 3.8v.4h-5.4c0 1.3 1 2.2 2.2 2.2s1.8-.6 2-1.5zm-1.5-2.3c0-1-.7-1.8-2-1.8-1.2 0-1.9.9-2 1.8z" fill="#999"/><path d="m583.6 12.3c.1.8.7 1.3 1.7 1.3.8 0 1.2-.4 1.2-1 0-.4-.3-.8-.9-.9l-1.2-.3c-1.1-.2-1.8-1-1.8-2 0-1.2 1.2-2.3 2.6-2.3 2 0 2.6 1.3 2.7 1.9l-1.2.5c-.1-.4-.4-1.2-1.5-1.2-.7 0-1.2.5-1.2 1 0 .4.3.8.8.9l1.2.3c1.3.3 2 1.1 2 2.1s-.9 2.2-2.6 2.2c-2 0-2.8-1.3-2.9-2.1z" fill="#999"/><path d="m591.1 12.3c.1.8.7 1.3 1.7 1.3.8 0 1.2-.4 1.2-1 0-.4-.3-.8-.9-.9l-1.2-.3c-1.1-.2-1.8-1-1.8-2 0-1.2 1.2-2.3 2.6-2.3 2 0 2.6 1.3 2.7 1.9l-1.2.5c-.1-.4-.4-1.2-1.5-1.2-.7 0-1.2.5-1.2 1 0 .4.3.8.8.9l1.2.3c1.3.3 2 1.1 2 2.1s-.9 2.2-2.6 2.2c-2 0-2.8-1.3-2.9-2.1z" fill="#999"/><path d="m165.7 254.3h600.3v134.5h-600.3z" fill="#fff"/><path d="m380 61.7h324v132.5h-324z" fill="#fff"/><path d="m89.7 138.9v-4.7h-5.4v4.7h-1.5v-10.6h1.5v4.5h5.4v-4.5h1.5v10.6z" fill="#999"/><path d="m101.3 135.3c0 2.2-1.5 3.8-3.7 3.8s-3.7-1.6-3.7-3.8 1.5-3.8 3.7-3.8 3.7 1.6 3.7 3.8zm-1.4 0c0-1.7-1.1-2.6-2.2-2.6s-2.2.9-2.2 2.6 1 2.6 2.2 2.6 2.2-.9 2.2-2.6z" fill="#999"/><path d="m110.6 135.3c0 2.2-1.5 3.8-3.7 3.8s-3.7-1.6-3.7-3.8 1.5-3.8 3.7-3.8 3.7 1.6 3.7 3.8zm-1.4 0c0-1.7-1.1-2.6-2.2-2.6s-2.2.9-2.2 2.6 1.1 2.6 2.2 2.6 2.2-.9 2.2-2.6z" fill="#999"/><path d="m116.6 134.8 3.1 4.2h-1.8l-2.4-3.2-1 1v2.2h-1.4v-10.9h1.4v6.8l3.1-3.2h1.9z" fill="#999"/><path d="m122.4 136.6c.1.8.7 1.3 1.7 1.3.8 0 1.2-.4 1.2-1 0-.4-.3-.8-.9-.9l-1.2-.3c-1.1-.2-1.8-1-1.8-2 0-1.2 1.2-2.3 2.6-2.3 2 0 2.6 1.3 2.7 1.9l-1.2.5c-.1-.4-.4-1.2-1.5-1.2-.7 0-1.2.5-1.2 1 0 .4.3.8.8.9l1.2.3c1.3.3 2 1.1 2 2.1s-.9 2.2-2.6 2.2c-2 0-2.8-1.3-2.9-2.1z" fill="#999"/><path d="m35.2 321v-7h1.5v7c0 1.6.9 2.5 2.4 2.5s2.4-.9 2.4-2.5v-7h1.5v7c0 2.5-1.7 3.9-3.8 3.9s-4-1.4-4-3.9z" fill="#999"/><path d="m46.6 322.3c.1.8.7 1.3 1.7 1.3.8 0 1.2-.4 1.2-1 0-.4-.3-.8-.9-.9l-1.2-.3c-1.1-.2-1.8-1-1.8-2 0-1.2 1.2-2.3 2.6-2.3 2 0 2.6 1.3 2.7 1.9l-1.2.5c-.1-.4-.4-1.2-1.5-1.2-.7 0-1.2.5-1.2 1 0 .4.3.8.8.9l1.2.3c1.3.3 2 1.1 2 2.1s-.9 2.2-2.6 2.2c-2 0-2.8-1.3-2.9-2.1z" fill="#999"/><path d="m59.7 322.6c-.4 1.3-1.6 2.3-3.2 2.3-1.9 0-3.6-1.4-3.6-3.9 0-2.3 1.6-3.8 3.4-3.8 2.2 0 3.5 1.5 3.5 3.8v.4h-5.4c0 1.3 1 2.2 2.2 2.2s1.8-.6 2-1.5zm-1.4-2.3c0-1-.7-1.8-2-1.8-1.2 0-1.9.9-2 1.8z" fill="#999"/><path d="m66.3 318.8c-.2 0-.4 0-.6 0-1.2 0-2 .6-2 2.2v3.6h-1.4v-7.2h1.4v1.3c.5-1.1 1.4-1.4 2.2-1.4h.5v1.5z" fill="#999"/><path d="m79.4 321.6h-4.7l-1.1 3h-1.6l4.2-10.6h1.8l4.2 10.6h-1.6zm-4.1-1.3h3.7l-1.8-4.8z" fill="#999"/><path d="m85 321c0 1.6 1 2.5 2.2 2.5 1.3 0 1.8-.9 2-1.5l1.2.5c-.3 1-1.4 2.2-3.3 2.2-2.1 0-3.6-1.6-3.6-3.8s1.6-3.8 3.6-3.8c1.9 0 2.9 1.2 3.2 2.3l-1.3.5c-.2-.7-.7-1.5-1.9-1.5-1.1.1-2.1.9-2.1 2.6z" fill="#999"/><path d="m94.7 317.4h1.6v1.3h-1.6v3.8c0 .7.3 1 1 1 .2 0 .4 0 .6-.1v1.2c-.1 0-.5.1-1 .1-1.2 0-2-.8-2-2.1v-4h-1.4v-1.3h.4c.8 0 1.1-.5 1.1-1.1v-1.2h1.3z" fill="#999"/><path d="m99.6 313.6c.6 0 1 .4 1 1s-.4 1-1 1-1-.5-1-1 .5-1 1-1zm-.7 11v-7.2h1.4v7.2z" fill="#999"/><path d="m110.2 321c0 2.2-1.5 3.8-3.7 3.8s-3.7-1.6-3.7-3.8 1.5-3.8 3.7-3.8 3.7 1.6 3.7 3.8zm-1.4 0c0-1.7-1.1-2.6-2.2-2.6s-2.2.9-2.2 2.6 1 2.6 2.2 2.6 2.2-.9 2.2-2.6z" fill="#999"/><path d="m114.2 324.6h-1.4v-7.2h1.4v1c.5-.9 1.4-1.2 2.2-1.2 1.7 0 2.6 1.2 2.6 2.9v4.6h-1.4v-4.3c0-1-.4-1.8-1.7-1.8-1.1 0-1.7.9-1.7 2z" fill="#999"/><path d="m122.6 322.3c.1.8.7 1.3 1.7 1.3.8 0 1.2-.4 1.2-1 0-.4-.3-.8-.9-.9l-1.2-.3c-1.1-.2-1.8-1-1.8-2 0-1.2 1.2-2.3 2.6-2.3 2 0 2.6 1.3 2.7 1.9l-1.2.5c-.1-.4-.4-1.2-1.5-1.2-.7 0-1.2.5-1.2 1 0 .4.3.8.8.9l1.2.3c1.3.3 2 1.1 2 2.1s-.9 2.2-2.6 2.2c-2 0-2.8-1.3-2.9-2.1z" fill="#999"/><circle cx="463.5" cy="153.4" r="21" style="fill:#b18be8;stroke:#404040;stroke-width:4;stroke-linecap:round;stroke-linejoin:round;stroke-miterlimit:10"/><path d="m256.3 317.7h-38c-1.1 0-2-.9-2-2v-38c0-1.1.9-2 2-2h38c1.1 0 2 .9 2 2v38c0 1.1-.9 2-2 2z" fill="#b3e3ff" stroke="#404040" stroke-miterlimit="10" stroke-width="4"/><path d="m408.2 317.7h-38c-1.1 0-2-.9-2-2v-38c0-1.1.9-2 2-2h38c1.1 0 2 .9 2 2v38c0 1.1-.9 2-2 2z" fill="#b3e3ff" stroke="#404040" stroke-miterlimit="10" stroke-width="4"/><path d="m345.7 296.7h-67.5" style="fill:none;stroke:#404040;stroke-width:4;stroke-linecap:round;stroke-linejoin:round;stroke-miterlimit:10"/><path d="m337 285.8 10.9 10.9-10.9 10.9" style="fill:none;stroke:#404040;stroke-width:4;stroke-linecap:round;stroke-linejoin:round;stroke-miterlimit:10"/><path d="m559.7 317.7h-38c-1.1 0-2-.9-2-2v-38c0-1.1.9-2 2-2h38c1.1 0 2 .9 2 2v38c0 1.1-.9 2-2 2z" fill="#b3e3ff" stroke="#404040" stroke-miterlimit="10" stroke-width="4"/><path d="m497.2 296.7h-67.5" style="fill:none;stroke:#404040;stroke-width:4;stroke-linecap:round;stroke-linejoin:round;stroke-miterlimit:10"/><path d="m488.5 285.8 10.9 10.9-10.9 10.9" style="fill:none;stroke:#404040;stroke-width:4;stroke-linecap:round;stroke-linejoin:round;stroke-miterlimit:10"/><path d="m711.7 317.7h-38c-1.1 0-2-.9-2-2v-38c0-1.1.9-2 2-2h38c1.1 0 2 .9 2 2v38c0 1.1-.9 2-2 2z" fill="#b3e3ff" stroke="#404040" stroke-miterlimit="10" stroke-width="4"/><path d="m649.3 296.7h-67.5" style="fill:none;stroke:#404040;stroke-width:4;stroke-linecap:round;stroke-linejoin:round;stroke-miterlimit:10"/><path d="m640.6 285.8 10.8 10.9-10.8 10.9" style="fill:none;stroke:#404040;stroke-width:4;stroke-linecap:round;stroke-linejoin:round;stroke-miterlimit:10"/><path d="m237.4 301.8v-6.9h-2.4v-1c1.3 0 2.3-.8 2.5-1.8h1.3v9.7z" fill="#404040"/><path d="m385.9 295.4c0-.1 0-.3 0-.4 0-1.7 1.2-3.1 3.4-3.1 2.1 0 3.3 1.4 3.3 3 0 1.3-.7 2.3-1.8 3l-1.9 1.2c-.6.4-1.1.8-1.2 1.4h5v1.4h-6.8c0-1.6.7-2.8 2.3-3.9l1.6-1.1c.9-.6 1.3-1.3 1.3-2 0-.9-.6-1.7-1.8-1.7-1.3 0-1.9.9-1.9 2v.4z" fill="#404040"/><path d="m539.5 296 2.9-2.6h-4.6v-1.4h6.6v1.3l-2.8 2.6c1.4 0 3 1 3 3 0 1.6-1.3 3.1-3.5 3.1s-3.5-1.5-3.6-3.1l1.4-.3c.1 1.3 1 2.1 2.2 2.1 1.3 0 2.1-.8 2.1-1.8 0-1.3-1-1.8-2-1.8-.3 0-.6.1-.9.2z" fill="#404040"/><path d="m688.9 297.9 4.2-5.8h2v6.2h1.7v1.4h-1.7v2.2h-1.4v-2.2h-4.8zm4.8-4.5-3.4 4.8h3.4z" fill="#404040"/><path d="m463.5 228.5v-54.1" style="fill:none;stroke:#404040;stroke-width:4;stroke-linecap:round;stroke-linejoin:round;stroke-miterlimit:10"/><circle cx="615.5" cy="151.4" r="21" style="fill:#b18be8;stroke:#404040;stroke-width:4;stroke-linecap:round;stroke-linejoin:round;stroke-miterlimit:10"/><path d="m615.5 226.5v-54.1" style="fill:none;stroke:#404040;stroke-width:4;stroke-linecap:round;stroke-linejoin:round;stroke-miterlimit:10"/><g fill="#404040"><path d="m223.2 339.3c-.1-.8-.8-1.8-2.2-1.8-1.2 0-2.1.8-2.1 1.8 0 .8.5 1.4 1.4 1.5l1.6.3c1.8.4 2.8 1.5 2.8 3 0 1.6-1.4 3.1-3.7 3.1-2.6 0-3.8-1.6-4-3.2l1.4-.4c.1 1.2.9 2.3 2.5 2.3 1.5 0 2.2-.8 2.2-1.7 0-.8-.5-1.4-1.6-1.6l-1.5-.3c-1.5-.3-2.6-1.3-2.6-2.9 0-1.7 1.5-3.2 3.5-3.2 2.4 0 3.4 1.5 3.6 2.6z"/><path d="m229 339.8h1.6v1.3h-1.6v3.8c0 .7.3 1 1 1 .2 0 .4 0 .6-.1v1.2c-.1 0-.5.1-1 .1-1.2 0-2-.8-2-2.1v-4h-1.4v-1.3h.4c.8 0 1.1-.5 1.1-1.1v-1.2h1.3z"/><path d="m234.9 342.9 1.9-.3c.4-.1.6-.3.6-.5 0-.7-.5-1.3-1.6-1.3-1 0-1.5.6-1.6 1.5l-1.4-.3c.2-1.4 1.4-2.3 3-2.3 2.2 0 3 1.2 3 2.6v3.6c0 .6.1 1 .1 1.2h-1.4c0-.2-.1-.5-.1-1-.3.5-1 1.2-2.3 1.2-1.5 0-2.4-1-2.4-2.2 0-1.3 1-2 2.2-2.2zm2.5 1.1v-.3l-2.2.3c-.6.1-1.1.4-1.1 1.1 0 .5.4 1 1.2 1 1.2 0 2.1-.6 2.1-2.1z"/><path d="m242.6 347.1c.1 1 .9 1.8 2 1.8 1.5 0 2.2-.8 2.2-2.3v-1c-.3.7-1.1 1.2-2.2 1.2-1.9 0-3.3-1.5-3.3-3.5 0-1.9 1.3-3.5 3.3-3.5 1.1 0 1.9.4 2.2 1.1v-1h1.4v6.7c0 1.8-.9 3.6-3.6 3.6-1.8 0-3.1-1.1-3.3-2.7zm4.3-3.9c0-1.4-.8-2.3-2.1-2.3-1.2 0-2.1.9-2.1 2.3s.8 2.3 2.1 2.3c1.2 0 2.1-.9 2.1-2.3z"/><path d="m257.5 345c-.4 1.3-1.6 2.3-3.2 2.3-1.9 0-3.6-1.4-3.6-3.9 0-2.3 1.6-3.8 3.4-3.8 2.2 0 3.5 1.5 3.5 3.8v.4h-5.4c0 1.3 1 2.2 2.2 2.2s1.8-.6 2-1.5zm-1.4-2.3c0-1-.7-1.8-2-1.8-1.2 0-1.9.9-2 1.8z"/><path d="m206 359.7c0-3.6 2.6-5.5 5.3-5.5 2.4 0 4.1 1.3 4.7 3.4l-1.4.5c-.4-1.6-1.6-2.5-3.3-2.5-1.9 0-3.8 1.4-3.8 4.2s1.8 4.2 3.8 4.2c1.8 0 3-1.1 3.4-2.5l1.3.5c-.6 2-2.2 3.4-4.7 3.4-2.8-.1-5.3-2.1-5.3-5.7z"/><path d="m219.8 365.1h-1.4v-10.9h1.4v4.5c.5-.8 1.4-1.1 2.2-1.1 1.7 0 2.6 1.2 2.6 2.9v4.6h-1.4v-4.3c0-1-.4-1.8-1.7-1.8-1.1 0-1.6.8-1.7 1.9z"/><path d="m229.3 360.9 1.9-.3c.4-.1.6-.3.6-.5 0-.7-.5-1.3-1.6-1.3-1 0-1.5.6-1.6 1.5l-1.4-.3c.2-1.4 1.4-2.3 3-2.3 2.2 0 3 1.2 3 2.6v3.6c0 .6.1 1 .1 1.2h-1.4c0-.2-.1-.5-.1-1-.3.5-1 1.2-2.3 1.2-1.5 0-2.4-1-2.4-2.2 0-1.3 1-2 2.2-2.2zm2.5 1.1v-.3l-2.2.3c-.6.1-1.1.4-1.1 1.1 0 .5.4 1 1.2 1 1.2 0 2.1-.6 2.1-2.1z"/><path d="m237.6 365.1h-1.4v-7.2h1.4v1c.5-.9 1.4-1.2 2.2-1.2 1.7 0 2.6 1.2 2.6 2.9v4.6h-1.4v-4.3c0-1-.4-1.8-1.7-1.8-1.1 0-1.7.9-1.7 2z"/><path d="m246.2 365.1c.1 1 .9 1.8 2 1.8 1.5 0 2.2-.8 2.2-2.3v-1c-.3.7-1.1 1.2-2.2 1.2-1.9 0-3.3-1.5-3.3-3.5 0-1.9 1.3-3.5 3.3-3.5 1.1 0 1.9.4 2.2 1.1v-1h1.4v6.7c0 1.8-.9 3.6-3.6 3.6-1.8 0-3.1-1.1-3.3-2.7zm4.2-3.9c0-1.4-.8-2.3-2.1-2.3-1.2 0-2.1.9-2.1 2.3s.8 2.3 2.1 2.3 2.1-.9 2.1-2.3z"/><path d="m261 363c-.4 1.3-1.6 2.3-3.2 2.3-1.9 0-3.6-1.4-3.6-3.9 0-2.3 1.6-3.8 3.4-3.8 2.2 0 3.5 1.5 3.5 3.8v.4h-5.4c0 1.3 1 2.2 2.2 2.2s1.8-.6 2-1.5zm-1.4-2.3c0-1-.7-1.8-2-1.8-1.2 0-1.9.9-2 1.8z"/><path d="m264.2 362.7c.1.8.7 1.3 1.7 1.3.8 0 1.2-.4 1.2-1 0-.4-.3-.8-.9-.9l-1.2-.3c-1.1-.2-1.8-1-1.8-2 0-1.2 1.2-2.3 2.6-2.3 2 0 2.6 1.3 2.7 1.9l-1.2.5c-.1-.4-.4-1.2-1.5-1.2-.7 0-1.2.5-1.2 1 0 .4.3.8.8.9l1.2.3c1.3.3 2 1.1 2 2.1s-.9 2.2-2.6 2.2c-2 0-2.8-1.3-2.9-2.1z"/><path d="m360.8 341.7c0-3.6 2.6-5.5 5.3-5.5 2.4 0 4.1 1.3 4.7 3.4l-1.4.5c-.4-1.6-1.6-2.5-3.3-2.5-1.9 0-3.8 1.4-3.8 4.2s1.8 4.2 3.8 4.2c1.8 0 3-1.1 3.4-2.5l1.3.5c-.6 2-2.2 3.4-4.7 3.4-2.8-.2-5.3-2.2-5.3-5.7z"/><path d="m379.8 343.4c0 2.2-1.5 3.8-3.7 3.8s-3.7-1.6-3.7-3.8 1.5-3.8 3.7-3.8 3.7 1.6 3.7 3.8zm-1.4 0c0-1.7-1.1-2.6-2.2-2.6s-2.2.9-2.2 2.6 1.1 2.6 2.2 2.6 2.2-.9 2.2-2.6z"/><path d="m382.3 347v-7.2h1.3v1c.5-.8 1.4-1.2 2.2-1.2.9 0 1.8.4 2.2 1.4.6-1 1.5-1.4 2.4-1.4 1.3 0 2.5.9 2.5 2.7v4.7h-1.4v-4.5c0-.9-.5-1.6-1.5-1.6s-1.7.8-1.7 1.8v4.4h-1.3v-4.5c0-.9-.4-1.6-1.5-1.6-1 0-1.7.8-1.7 1.8v4.3h-1.5z"/><path d="m396 347v-7.2h1.3v1c.5-.8 1.4-1.2 2.2-1.2.9 0 1.8.4 2.2 1.4.6-1 1.5-1.4 2.4-1.4 1.3 0 2.5.9 2.5 2.7v4.7h-1.4v-4.5c0-.9-.5-1.6-1.5-1.6s-1.7.8-1.7 1.8v4.4h-1.4v-4.5c0-.9-.4-1.6-1.5-1.6-1 0-1.7.8-1.7 1.8v4.3h-1.4z"/><path d="m410.2 336c.6 0 1 .4 1 1s-.4 1-1 1-1-.5-1-1 .5-1 1-1zm-.6 11v-7.2h1.4v7.2z"/><path d="m416 339.8h1.6v1.3h-1.6v3.8c0 .7.3 1 1 1 .2 0 .4 0 .6-.1v1.2c-.1 0-.5.1-1 .1-1.2 0-2-.8-2-2.1v-4h-1.4v-1.3h.4c.8 0 1.1-.5 1.1-1.1v-1.2h1.3z"/><path d="m357.9 359.7c0-3.6 2.6-5.5 5.3-5.5 2.4 0 4.1 1.3 4.7 3.4l-1.4.5c-.4-1.6-1.6-2.5-3.3-2.5-1.9 0-3.8 1.4-3.8 4.2s1.8 4.2 3.8 4.2c1.8 0 3-1.1 3.4-2.5l1.3.5c-.6 2-2.2 3.4-4.7 3.4-2.8-.2-5.3-2.2-5.3-5.7z"/><path d="m371.7 365h-1.4v-10.9h1.4v4.5c.5-.8 1.4-1.1 2.2-1.1 1.7 0 2.6 1.2 2.6 2.9v4.6h-1.4v-4.3c0-1-.4-1.8-1.7-1.8-1.1 0-1.6.8-1.7 1.9z"/><path d="m381.2 360.9 1.9-.3c.4-.1.6-.3.6-.5 0-.7-.5-1.3-1.6-1.3-1 0-1.5.6-1.6 1.5l-1.4-.3c.2-1.4 1.4-2.3 3-2.3 2.2 0 3 1.2 3 2.6v3.6c0 .6.1 1 .1 1.2h-1.4c0-.2-.1-.5-.1-1-.3.5-1 1.2-2.3 1.2-1.5 0-2.4-1-2.4-2.2 0-1.3 1-2 2.2-2.2zm2.5 1v-.3l-2.2.3c-.6.1-1.1.4-1.1 1.1 0 .5.4 1 1.2 1 1.2 0 2.1-.5 2.1-2.1z"/><path d="m389.5 365h-1.4v-7.2h1.4v1c.5-.9 1.4-1.2 2.2-1.2 1.7 0 2.6 1.2 2.6 2.9v4.6h-1.4v-4.3c0-1-.4-1.8-1.7-1.8-1.1 0-1.7.9-1.7 2z"/><path d="m398.1 365.1c.1 1 .9 1.8 2 1.8 1.5 0 2.2-.8 2.2-2.3v-1c-.3.7-1.1 1.2-2.2 1.2-1.9 0-3.3-1.5-3.3-3.5 0-1.9 1.3-3.5 3.3-3.5 1.1 0 1.9.4 2.2 1.1v-1h1.4v6.7c0 1.8-.9 3.6-3.6 3.6-1.8 0-3.1-1.1-3.3-2.7zm4.2-3.9c0-1.4-.8-2.3-2.1-2.3-1.2 0-2.1.9-2.1 2.3s.8 2.3 2.1 2.3 2.1-.9 2.1-2.3z"/><path d="m412.9 363c-.4 1.3-1.6 2.3-3.2 2.3-1.9 0-3.6-1.4-3.6-3.9 0-2.3 1.6-3.8 3.4-3.8 2.2 0 3.5 1.5 3.5 3.8v.4h-5.4c0 1.3 1 2.2 2.2 2.2s1.8-.6 2-1.5zm-1.4-2.3c0-1-.7-1.8-2-1.8-1.2 0-1.9.9-2 1.8z"/><path d="m416.1 362.7c.1.8.7 1.3 1.7 1.3.8 0 1.2-.4 1.2-1 0-.4-.3-.8-.9-.9l-1.2-.3c-1.1-.2-1.8-1-1.8-2 0-1.2 1.2-2.3 2.6-2.3 2 0 2.6 1.3 2.7 1.9l-1.2.5c-.1-.4-.4-1.2-1.5-1.2-.7 0-1.2.5-1.2 1 0 .4.3.8.8.9l1.2.3c1.3.3 2 1.1 2 2.1s-.9 2.2-2.6 2.2c-2 0-2.8-1.3-2.9-2.1z"/><path d="m491.2 347v-10.6h6.5v1.4h-5v3.3h4.5v1.4h-4.5v3.3h5v1.4h-6.5z"/><path d="m501.7 347h-1.4v-7.2h1.4v1c.5-.9 1.4-1.2 2.2-1.2 1.7 0 2.6 1.2 2.6 2.9v4.6h-1.4v-4.3c0-1-.4-1.8-1.7-1.8-1.1 0-1.7.9-1.7 2z"/><path d="m511.4 339.8h1.6v1.3h-1.6v3.8c0 .7.3 1 1 1 .2 0 .4 0 .6-.1v1.2c-.1 0-.5.1-1 .1-1.2 0-2-.8-2-2.1v-4h-1.4v-1.3h.4c.8 0 1.1-.5 1.1-1.1v-1.2h1.3z"/><path d="m521.8 345c-.4 1.3-1.6 2.3-3.2 2.3-1.9 0-3.6-1.4-3.6-3.9 0-2.3 1.6-3.8 3.4-3.8 2.2 0 3.5 1.5 3.5 3.8v.4h-5.4c0 1.3 1 2.2 2.2 2.2s1.8-.6 2-1.5zm-1.4-2.3c0-1-.7-1.8-2-1.8-1.2 0-1.9.9-2 1.8z"/><path d="m528.4 341.2c-.2 0-.4 0-.6 0-1.2 0-2 .6-2 2.2v3.6h-1.4v-7.2h1.4v1.3c.5-1.1 1.4-1.4 2.2-1.4h.5v1.5z"/><path d="m534.6 341.7c0-3.6 2.6-5.5 5.3-5.5 2.4 0 4.1 1.3 4.7 3.4l-1.4.5c-.4-1.6-1.6-2.5-3.3-2.5-1.9 0-3.8 1.4-3.8 4.2s1.8 4.2 3.8 4.2c1.8 0 3-1.1 3.4-2.5l1.3.5c-.6 2-2.2 3.4-4.7 3.4-2.8-.2-5.3-2.2-5.3-5.7z"/><path d="m553.6 343.4c0 2.2-1.5 3.8-3.7 3.8s-3.7-1.6-3.7-3.8 1.5-3.8 3.7-3.8 3.7 1.6 3.7 3.8zm-1.4 0c0-1.7-1.1-2.6-2.2-2.6s-2.2.9-2.2 2.6 1.1 2.6 2.2 2.6 2.2-.9 2.2-2.6z"/><path d="m556.2 347v-7.2h1.3v1c.5-.8 1.4-1.2 2.2-1.2.9 0 1.8.4 2.2 1.4.6-1 1.5-1.4 2.4-1.4 1.3 0 2.5.9 2.5 2.7v4.7h-1.4v-4.5c0-.9-.5-1.6-1.5-1.6s-1.7.8-1.7 1.8v4.4h-1.4v-4.5c0-.9-.4-1.6-1.5-1.6-1 0-1.7.8-1.7 1.8v4.3h-1.4z"/><path d="m569.8 347v-7.2h1.3v1c.5-.8 1.4-1.2 2.2-1.2.9 0 1.8.4 2.2 1.4.6-1 1.5-1.4 2.4-1.4 1.3 0 2.5.9 2.5 2.7v4.7h-1.4v-4.5c0-.9-.5-1.6-1.5-1.6s-1.7.8-1.7 1.8v4.4h-1.4v-4.5c0-.9-.4-1.6-1.5-1.6-1 0-1.7.8-1.7 1.8v4.3h-1.4z"/><path d="m584.1 336c.6 0 1 .4 1 1s-.4 1-1 1-1-.5-1-1 .4-1 1-1zm-.7 11v-7.2h1.4v7.2z"/><path d="m589.8 339.8h1.6v1.3h-1.6v3.8c0 .7.3 1 1 1 .2 0 .4 0 .6-.1v1.2c-.1 0-.5.1-1 .1-1.2 0-2-.8-2-2.1v-4h-1.4v-1.3h.4c.8 0 1.1-.5 1.1-1.1v-1.2h1.3z"/><path d="m519.9 365v-8.3l-3.6 8.3h-1.3l-3.6-8.3v8.3h-1.5v-10.6h2l3.7 8.7 3.8-8.7h2v10.6z"/><path d="m530.9 363c-.4 1.3-1.6 2.3-3.2 2.3-1.9 0-3.6-1.4-3.6-3.9 0-2.3 1.6-3.8 3.4-3.8 2.2 0 3.5 1.5 3.5 3.8v.4h-5.4c0 1.3 1 2.2 2.2 2.2s1.8-.6 2-1.5zm-1.4-2.3c0-1-.7-1.8-2-1.8-1.2 0-1.9.9-2 1.8z"/><path d="m534.1 362.7c.1.8.7 1.3 1.7 1.3.8 0 1.2-.4 1.2-1 0-.4-.3-.8-.9-.9l-1.2-.3c-1.1-.2-1.8-1-1.8-2 0-1.2 1.2-2.3 2.6-2.3 2 0 2.6 1.3 2.7 1.9l-1.2.5c-.1-.4-.4-1.2-1.5-1.2-.7 0-1.2.5-1.2 1 0 .4.3.8.8.9l1.2.3c1.3.3 2 1.1 2 2.1s-.9 2.2-2.6 2.2c-2 0-2.8-1.3-2.9-2.1z"/><path d="m541.7 362.7c.1.8.7 1.3 1.7 1.3.8 0 1.2-.4 1.2-1 0-.4-.3-.8-.9-.9l-1.2-.3c-1.1-.2-1.8-1-1.8-2 0-1.2 1.2-2.3 2.6-2.3 2 0 2.6 1.3 2.7 1.9l-1.2.5c-.1-.4-.4-1.2-1.5-1.2-.7 0-1.2.5-1.2 1 0 .4.3.8.8.9l1.2.3c1.3.3 2 1.1 2 2.1s-.9 2.2-2.6 2.2c-2 0-2.8-1.3-2.9-2.1z"/><path d="m550.2 360.9 1.9-.3c.4-.1.6-.3.6-.5 0-.7-.5-1.3-1.6-1.3-1 0-1.5.6-1.6 1.5l-1.4-.3c.2-1.4 1.4-2.3 3-2.3 2.2 0 3 1.2 3 2.6v3.6c0 .6.1 1 .1 1.2h-1.4c0-.2-.1-.5-.1-1-.3.5-1 1.2-2.3 1.2-1.5 0-2.4-1-2.4-2.2 0-1.3.9-2 2.2-2.2zm2.5 1v-.3l-2.2.3c-.6.1-1.1.4-1.1 1.1 0 .5.4 1 1.2 1 1.2 0 2.1-.5 2.1-2.1z"/><path d="m557.9 365.1c.1 1 .9 1.8 2 1.8 1.5 0 2.2-.8 2.2-2.3v-1c-.3.7-1.1 1.2-2.2 1.2-1.9 0-3.3-1.5-3.3-3.5 0-1.9 1.3-3.5 3.3-3.5 1.1 0 1.9.4 2.2 1.1v-1h1.4v6.7c0 1.8-.9 3.6-3.6 3.6-1.8 0-3.1-1.1-3.3-2.7zm4.2-3.9c0-1.4-.8-2.3-2.1-2.3-1.2 0-2.1.9-2.1 2.3s.8 2.3 2.1 2.3 2.1-.9 2.1-2.3z"/><path d="m572.7 363c-.4 1.3-1.6 2.3-3.2 2.3-1.9 0-3.6-1.4-3.6-3.9 0-2.3 1.6-3.8 3.4-3.8 2.2 0 3.5 1.5 3.5 3.8v.4h-5.4c0 1.3 1 2.2 2.2 2.2s1.8-.6 2-1.5zm-1.4-2.3c0-1-.7-1.8-2-1.8-1.2 0-1.9.9-2 1.8z"/><path d="m421.9 91.7v4.3h-1.5v-10.6h3.9c2 0 3.3 1.4 3.3 3.1 0 1.8-1.3 3.1-3.3 3.1h-2.4zm2.1-1.3c1.3 0 2.1-.7 2.1-1.8s-.8-1.8-2.1-1.8h-2.1v3.6z"/><path d="m433.8 90.3c-.2 0-.4 0-.6 0-1.2 0-2 .6-2 2.2v3.6h-1.4v-7.2h1.4v1.3c.5-1.1 1.4-1.4 2.2-1.4h.5v1.5z"/><path d="m442.2 94c-.4 1.3-1.6 2.3-3.2 2.3-1.9 0-3.6-1.4-3.6-3.9 0-2.3 1.6-3.8 3.4-3.8 2.2 0 3.5 1.5 3.5 3.8v.4h-5.4c0 1.3 1 2.2 2.2 2.2s1.8-.6 2-1.5zm-1.4-2.3c0-1-.7-1.8-2-1.8-1.2 0-1.9.9-2 1.8z"/><path d="m444.3 92.4v-1.2h4.1v1.2z"/><path d="m450.5 90.8c0-3.6 2.6-5.5 5.3-5.5 2.4 0 4.1 1.3 4.7 3.4l-1.4.5c-.4-1.6-1.6-2.5-3.3-2.5-1.9 0-3.8 1.4-3.8 4.2s1.8 4.2 3.8 4.2c1.8 0 3-1.1 3.4-2.5l1.3.5c-.6 2-2.2 3.4-4.7 3.4-2.8-.2-5.3-2.2-5.3-5.7z"/><path d="m469.5 92.5c0 2.2-1.5 3.8-3.7 3.8s-3.7-1.6-3.7-3.8 1.5-3.8 3.7-3.8 3.7 1.6 3.7 3.8zm-1.5 0c0-1.7-1.1-2.6-2.2-2.6s-2.2.9-2.2 2.6 1.1 2.6 2.2 2.6 2.2-1 2.2-2.6z"/><path d="m472 96.1v-7.2h1.3v1c.5-.8 1.4-1.2 2.2-1.2.9 0 1.8.4 2.2 1.4.6-1 1.5-1.4 2.4-1.4 1.3 0 2.5.9 2.5 2.7v4.7h-1.4v-4.5c0-.9-.5-1.6-1.5-1.6s-1.7.8-1.7 1.8v4.4h-1.4v-4.5c0-.9-.4-1.6-1.5-1.6-1 0-1.7.8-1.7 1.8v4.3h-1.4z"/><path d="m485.6 96.1v-7.2h1.3v1c.5-.8 1.4-1.2 2.2-1.2.9 0 1.8.4 2.2 1.4.6-1 1.5-1.4 2.4-1.4 1.3 0 2.5.9 2.5 2.7v4.7h-1.4v-4.5c0-.9-.5-1.6-1.5-1.6s-1.7.8-1.7 1.8v4.4h-1.4v-4.5c0-.9-.4-1.6-1.5-1.6-1 0-1.7.8-1.7 1.8v4.3h-1.4z"/><path d="m499.9 85.1c.6 0 1 .4 1 1s-.4 1-1 1-1-.5-1-1 .5-1 1-1zm-.7 11v-7.2h1.4v7.2z"/><path d="m505.7 88.9h1.6v1.3h-1.6v3.8c0 .7.3 1 1 1 .2 0 .4 0 .6-.1v1.1c-.1 0-.5.1-1 .1-1.2 0-2-.8-2-2.1v-4h-1.4v-1.3h.4c.8 0 1.1-.5 1.1-1.1v-1.2h1.3z"/><path d="m428.3 114.1-5.7-8.7v8.7h-1.5v-10.6h2l5.3 8.2v-8.2h1.5v10.6z"/><path d="m439.9 110.5c0 2.2-1.5 3.8-3.7 3.8s-3.7-1.6-3.7-3.8 1.5-3.8 3.7-3.8 3.7 1.6 3.7 3.8zm-1.4 0c0-1.7-1.1-2.6-2.2-2.6s-2.2.9-2.2 2.6 1.1 2.6 2.2 2.6 2.2-1 2.2-2.6z"/><path d="m444.3 106.9h1.6v1.3h-1.6v3.8c0 .7.3 1 1 1 .2 0 .4 0 .6-.1v1.2c-.1 0-.5.1-1 .1-1.2 0-2-.8-2-2.1v-4h-1.4v-1.3h.4c.8 0 1.1-.5 1.1-1.1v-1.2h1.3z"/><path d="m449.2 103.1c.6 0 1 .4 1 1s-.4 1-1 1-1-.5-1-1 .4-1 1-1zm-.7 11v-7.2h1.4v7.2z"/><path d="m456.7 103.3v1.3c-.1 0-.3-.1-.6-.1-.5 0-1.1.2-1.1 1.2v1.2h4.8v7.2h-1.4v-5.9h-3.4v5.9h-1.5v-5.9h-1.3v-1.3h1.3v-1.2c0-1.6 1.1-2.5 2.4-2.5.4 0 .7.1.8.1zm2.3-.2c.6 0 1 .5 1 1 0 .6-.4 1-1 1s-1-.4-1-1 .4-1 1-1z"/><path d="m463.7 110.5c0 1.6 1 2.5 2.2 2.5 1.3 0 1.8-.9 2-1.5l1.2.5c-.3 1-1.4 2.2-3.3 2.2-2.1 0-3.6-1.6-3.6-3.8s1.6-3.8 3.6-3.8c1.9 0 2.9 1.2 3.2 2.3l-1.3.5c-.2-.7-.7-1.5-1.9-1.5-1.1 0-2.1.9-2.1 2.6z"/><path d="m473.2 110 1.9-.3c.4-.1.6-.3.6-.5 0-.7-.5-1.3-1.6-1.3-1 0-1.5.6-1.6 1.5l-1.4-.3c.2-1.4 1.4-2.3 3-2.3 2.2 0 3 1.2 3 2.6v3.6c0 .6.1 1 .1 1.2h-1.4c0-.2-.1-.5-.1-1-.3.5-1 1.2-2.3 1.2-1.5 0-2.4-1-2.4-2.2 0-1.3.9-2.1 2.2-2.2zm2.5 1v-.3l-2.2.3c-.6.1-1 .4-1 1.1 0 .5.4 1 1.2 1 1.1 0 2-.5 2-2.1z"/><path d="m481.9 106.9h1.6v1.3h-1.6v3.8c0 .7.3 1 1 1 .2 0 .4 0 .6-.1v1.2c-.1 0-.5.1-1 .1-1.2 0-2-.8-2-2.1v-4h-1.4v-1.3h.4c.8 0 1.1-.5 1.1-1.1v-1.2h1.3z"/><path d="m486.8 103.1c.6 0 1 .4 1 1s-.4 1-1 1-1-.5-1-1 .5-1 1-1zm-.7 11v-7.2h1.4v7.2z"/><path d="m497.4 110.5c0 2.2-1.5 3.8-3.7 3.8s-3.7-1.6-3.7-3.8 1.5-3.8 3.7-3.8 3.7 1.6 3.7 3.8zm-1.4 0c0-1.7-1.1-2.6-2.2-2.6s-2.2.9-2.2 2.6 1 2.6 2.2 2.6 2.2-1 2.2-2.6z"/><path d="m501.4 114.1h-1.4v-7.2h1.4v1c.5-.9 1.4-1.2 2.2-1.2 1.7 0 2.6 1.2 2.6 2.9v4.6h-1.4v-4.3c0-1-.4-1.8-1.7-1.8-1.1 0-1.7.9-1.7 2z"/><path d="m570.2 89.7v4.3h-1.5v-10.5h3.9c2 0 3.3 1.4 3.3 3.1 0 1.8-1.3 3.1-3.3 3.1zm2.1-1.3c1.3 0 2.1-.7 2.1-1.8s-.8-1.8-2.1-1.8h-2.1v3.6z"/><path d="m584.4 90.5c0 2.2-1.5 3.8-3.7 3.8s-3.7-1.6-3.7-3.8 1.5-3.8 3.7-3.8 3.7 1.6 3.7 3.8zm-1.4 0c0-1.7-1.1-2.6-2.2-2.6s-2.2.9-2.2 2.6 1.1 2.6 2.2 2.6 2.2-1 2.2-2.6z"/><path d="m587.6 91.8c.1.8.7 1.3 1.7 1.3.8 0 1.2-.4 1.2-1 0-.4-.3-.8-.9-.9l-1.2-.3c-1.1-.2-1.8-1-1.8-2 0-1.2 1.2-2.3 2.6-2.3 2 0 2.6 1.3 2.7 1.9l-1.2.5c-.1-.4-.4-1.2-1.5-1.2-.7 0-1.2.5-1.2 1 0 .4.3.8.8.9l1.2.3c1.3.3 2 1.1 2 2.1s-.9 2.2-2.6 2.2c-2 0-2.8-1.3-2.9-2.1z"/><path d="m596.4 86.9h1.6v1.3h-1.6v3.8c0 .7.3 1 1 1 .2 0 .4 0 .6-.1v1.1c-.1 0-.5.1-1 .1-1.2 0-2-.8-2-2.1v-4h-1.4v-1.3h.4c.8 0 1.1-.5 1.1-1.1v-1.2h1.3z"/><path d="m600.1 90.4v-1.2h4.1v1.2z"/><path d="m606.2 88.8c0-3.6 2.6-5.5 5.3-5.5 2.4 0 4.1 1.3 4.7 3.4l-1.4.5c-.4-1.6-1.6-2.5-3.3-2.5-1.9 0-3.8 1.4-3.8 4.2s1.8 4.2 3.8 4.2c1.8 0 3-1.1 3.4-2.5l1.3.5c-.6 2-2.2 3.4-4.7 3.4-2.7-.2-5.3-2.2-5.3-5.7z"/><path d="m625.2 90.5c0 2.2-1.5 3.8-3.7 3.8s-3.7-1.6-3.7-3.8 1.5-3.8 3.7-3.8 3.7 1.6 3.7 3.8zm-1.4 0c0-1.7-1.1-2.6-2.2-2.6s-2.2.9-2.2 2.6 1.1 2.6 2.2 2.6 2.2-1 2.2-2.6z"/><path d="m627.8 94.1v-7.2h1.3v1c.5-.8 1.4-1.2 2.2-1.2.9 0 1.8.4 2.2 1.4.6-1 1.5-1.4 2.4-1.4 1.3 0 2.5.9 2.5 2.7v4.7h-1.4v-4.5c0-.9-.5-1.6-1.5-1.6s-1.7.8-1.7 1.8v4.4h-1.4v-4.5c0-.9-.4-1.6-1.5-1.6-1 0-1.7.8-1.7 1.8v4.3h-1.4z"/><path d="m641.4 94.1v-7.2h1.3v1c.5-.8 1.4-1.2 2.2-1.2.9 0 1.8.4 2.2 1.4.6-1 1.5-1.4 2.4-1.4 1.3 0 2.5.9 2.5 2.7v4.7h-1.4v-4.5c0-.9-.5-1.6-1.5-1.6s-1.7.8-1.7 1.8v4.4h-1.4v-4.5c0-.9-.4-1.6-1.5-1.6-1 0-1.7.8-1.7 1.8v4.3h-1.4z"/><path d="m655.7 83.1c.6 0 1 .4 1 1s-.4 1-1 1-1-.5-1-1 .4-1 1-1zm-.7 11v-7.2h1.4v7.2z"/><path d="m661.4 86.9h1.6v1.3h-1.6v3.8c0 .7.3 1 1 1 .2 0 .4 0 .6-.1v1.1c-.1 0-.5.1-1 .1-1.2 0-2-.8-2-2.1v-4h-1.4v-1.3h.4c.8 0 1.1-.5 1.1-1.1v-1.2h1.3z"/><path d="m580.3 112.1-5.7-8.7v8.7h-1.5v-10.6h2l5.3 8.2v-8.2h1.5v10.6z"/><path d="m591.9 108.5c0 2.2-1.5 3.8-3.7 3.8s-3.7-1.6-3.7-3.8 1.5-3.8 3.7-3.8 3.7 1.6 3.7 3.8zm-1.4 0c0-1.7-1.1-2.6-2.2-2.6s-2.2.9-2.2 2.6 1.1 2.6 2.2 2.6 2.2-1 2.2-2.6z"/><path d="m596.3 104.9h1.6v1.3h-1.6v3.8c0 .7.3 1 1 1 .2 0 .4 0 .6-.1v1.2c-.1 0-.5.1-1 .1-1.2 0-2-.8-2-2.1v-4h-1.4v-1.3h.4c.8 0 1.1-.5 1.1-1.1v-1.2h1.3z"/><path d="m601.2 101.1c.6 0 1 .4 1 1s-.4 1-1 1-1-.5-1-1 .4-1 1-1zm-.7 11v-7.2h1.4v7.2z"/><path d="m608.7 101.3v1.3c-.1 0-.3-.1-.6-.1-.5 0-1.1.2-1.1 1.2v1.2h4.8v7.2h-1.4v-5.9h-3.4v5.9h-1.5v-5.9h-1.3v-1.3h1.3v-1.2c0-1.6 1.1-2.5 2.4-2.5.4 0 .7.1.8.1zm2.3-.2c.6 0 1 .5 1 1 0 .6-.4 1-1 1s-1-.4-1-1 .4-1 1-1z"/><path d="m615.7 108.5c0 1.6 1 2.5 2.2 2.5 1.3 0 1.8-.9 2-1.5l1.2.5c-.3 1-1.4 2.2-3.3 2.2-2.1 0-3.6-1.6-3.6-3.8s1.6-3.8 3.6-3.8c1.9 0 2.9 1.2 3.2 2.3l-1.3.5c-.2-.7-.7-1.5-1.9-1.5-1.1.1-2.1.9-2.1 2.6z"/><path d="m625.2 108 1.9-.3c.4-.1.6-.3.6-.5 0-.7-.5-1.3-1.6-1.3-1 0-1.5.6-1.6 1.5l-1.4-.3c.2-1.4 1.4-2.3 3-2.3 2.2 0 3 1.2 3 2.6v3.6c0 .6.1 1 .1 1.2h-1.4c0-.2-.1-.5-.1-1-.3.5-1 1.2-2.3 1.2-1.5 0-2.4-1-2.4-2.2 0-1.3 1-2.1 2.2-2.2zm2.5 1v-.3l-2.2.3c-.6.1-1 .4-1 1.1 0 .5.4 1 1.2 1 1.1 0 2-.5 2-2.1z"/><path d="m634 104.9h1.6v1.3h-1.6v3.8c0 .7.3 1 1 1 .2 0 .4 0 .6-.1v1.2c-.1 0-.5.1-1 .1-1.2 0-2-.8-2-2.1v-4h-1.4v-1.3h.4c.8 0 1.1-.5 1.1-1.1v-1.2h1.3z"/><path d="m638.8 101.1c.6 0 1 .4 1 1s-.4 1-1 1-1-.5-1-1 .5-1 1-1zm-.7 11v-7.2h1.4v7.2z"/><path d="m649.5 108.5c0 2.2-1.5 3.8-3.7 3.8s-3.7-1.6-3.7-3.8 1.5-3.8 3.7-3.8 3.7 1.6 3.7 3.8zm-1.5 0c0-1.7-1.1-2.6-2.2-2.6s-2.2.9-2.2 2.6 1 2.6 2.2 2.6 2.2-1 2.2-2.6z"/><path d="m653.4 112.1h-1.4v-7.2h1.4v1c.5-.9 1.4-1.2 2.2-1.2 1.7 0 2.6 1.2 2.6 2.9v4.6h-1.4v-4.3c0-1-.4-1.8-1.7-1.8-1.1 0-1.7.9-1.7 2z"/><path d="m666 351.5h-4.7l-1.1 3h-1.6l4.2-10.6h1.7l4.2 10.6h-1.6zm-4.1-1.3h3.7l-1.8-4.8z"/><path d="m670.9 354.5v-10.9h1.4v10.9z"/><path d="m675.5 354.5v-10.9h1.4v10.9z"/><path d="m684.7 354.5v-10.6h3.7c2.7 0 5.1 1.8 5.1 5.3s-2.4 5.3-5.1 5.3zm3.6-1.3c2 0 3.6-1.3 3.6-4s-1.6-4-3.6-4h-2.2v8z"/><path d="m702.8 350.9c0 2.2-1.5 3.8-3.7 3.8s-3.7-1.6-3.7-3.8 1.5-3.8 3.7-3.8 3.7 1.6 3.7 3.8zm-1.4 0c0-1.7-1.1-2.6-2.2-2.6s-2.2.9-2.2 2.6 1 2.6 2.2 2.6 2.2-.9 2.2-2.6z"/><path d="m706.8 354.5h-1.4v-7.2h1.4v1c.5-.9 1.4-1.2 2.2-1.2 1.7 0 2.6 1.2 2.6 2.9v4.6h-1.4v-4.3c0-1-.4-1.8-1.7-1.8-1.1 0-1.7.9-1.7 2z"/><path d="m720.9 352.5c-.4 1.3-1.6 2.3-3.2 2.3-1.9 0-3.6-1.4-3.6-3.9 0-2.3 1.6-3.8 3.4-3.8 2.2 0 3.5 1.5 3.5 3.8v.4h-5.4c0 1.3 1 2.2 2.2 2.2s1.8-.6 2-1.5zm-1.5-2.3c0-1-.7-1.8-2-1.8-1.2 0-1.9.9-2 1.8z"/><path d="m724.6 352.6c.5 0 1 .5 1 1s-.4 1-1 1-1-.4-1-1 .4-1 1-1zm.5-1.1h-1l-.4-7.6h1.8z"/></g><path d="m474.4 219.1-10.9 10.8-10.9-10.8" style="fill:none;stroke:#404040;stroke-width:4;stroke-linecap:round;stroke-linejoin:round;stroke-miterlimit:10"/><path d="m626.4 219.1-10.9 10.8-10.9-10.8" style="fill:none;stroke:#404040;stroke-width:4;stroke-linecap:round;stroke-linejoin:round;stroke-miterlimit:10"/></svg>