<svg xmlns="http://www.w3.org/2000/svg" viewBox="0 0 800 414" enable-background="new 0 0 800 414"><style type="text/css">.st0{display:none;} .st1{display:inline;} .st2{fill:#FFFFFF;} .st3{fill:none;stroke:#9882CE;stroke-width:4;stroke-miterlimit:10;} .st4{fill:#FFFFFF;stroke:#404040;stroke-width:4;stroke-linejoin:round;stroke-miterlimit:10;} .st5{fill:#4ED1A1;stroke:#404040;stroke-width:4;stroke-linecap:round;stroke-linejoin:round;stroke-miterlimit:10;} .st6{fill:#B3E3FF;stroke:#404040;stroke-width:4;stroke-miterlimit:10;} .st7{fill:#FFFFFF;stroke:#6693ED;stroke-width:4;stroke-miterlimit:10;} .st8{fill:#FFFFFF;stroke:#404040;stroke-width:4;stroke-miterlimit:10;} .st9{fill:#404040;} .st10{fill:#404040;stroke:#404040;stroke-width:4;stroke-linejoin:round;stroke-miterlimit:10;} .st11{fill:none;stroke:#404040;stroke-width:4;stroke-linecap:round;stroke-linejoin:round;stroke-miterlimit:10;} .st12{fill:#999999;} .st13{fill:#B18BE8;stroke:#404040;stroke-width:4;stroke-linecap:round;stroke-linejoin:round;stroke-miterlimit:10;} .st14{fill:none;stroke:#404040;stroke-width:4;stroke-miterlimit:10;} .st15{fill:#4ED1A1;stroke:#404040;stroke-width:4;stroke-miterlimit:10;} .st16{fill:#B3E3FF;stroke:#404040;stroke-width:4;stroke-linejoin:round;stroke-miterlimit:10;} .st17{fill:#FFFFFF;stroke:#404040;stroke-width:4;stroke-linecap:round;stroke-linejoin:round;stroke-miterlimit:10;} .st18{fill:none;stroke:#CCCCCC;stroke-width:4;stroke-linecap:round;stroke-linejoin:round;stroke-miterlimit:10;} .st19{fill:#FFFFFF;stroke:#CCCCCC;stroke-width:4;stroke-linecap:round;stroke-linejoin:round;stroke-miterlimit:10;} .st20{fill:#59AFE1;stroke:#404040;stroke-width:4;stroke-linejoin:round;stroke-miterlimit:10;} .st21{fill:none;stroke:#CCCCCC;stroke-linecap:round;stroke-linejoin:round;stroke-miterlimit:10;}</style><path class="st12" d="M211.4,14.7V9.9H206v4.7h-1.5V4h1.5v4.5h5.4V4h1.5v10.6H211.4z"/><path class="st12" d="M223,11c0,2.2-1.5,3.8-3.7,3.8s-3.7-1.6-3.7-3.8c0-2.2,1.5-3.8,3.7-3.8S223,8.8,223,11z M221.5,11 c0-1.7-1.1-2.6-2.2-2.6S217,9.4,217,11c0,1.7,1,2.6,2.2,2.6S221.5,12.7,221.5,11z"/><path class="st12" d="M232.3,11c0,2.2-1.5,3.8-3.7,3.8s-3.7-1.6-3.7-3.8c0-2.2,1.5-3.8,3.7-3.8S232.3,8.8,232.3,11z M230.9,11 c0-1.7-1.1-2.6-2.2-2.6s-2.2,0.9-2.2,2.6c0,1.7,1.1,2.6,2.2,2.6S230.9,12.7,230.9,11z"/><path class="st12" d="M238.3,10.5l3.1,4.2h-1.8l-2.4-3.2l-1,1v2.2h-1.4V3.8h1.4v6.8l3.1-3.2h1.9L238.3,10.5z"/><path class="st12" d="M244.1,12.3c0.1,0.8,0.7,1.3,1.7,1.3c0.8,0,1.2-0.4,1.2-1c0-0.4-0.3-0.8-0.9-0.9l-1.2-0.3 c-1.1-0.2-1.8-1-1.8-2c0-1.2,1.2-2.3,2.6-2.3c2,0,2.6,1.3,2.7,1.9l-1.2,0.5c-0.1-0.4-0.4-1.2-1.5-1.2c-0.7,0-1.2,0.5-1.2,1 c0,0.4,0.3,0.8,0.8,0.9l1.2,0.3c1.3,0.3,2,1.1,2,2.1c0,1-0.9,2.2-2.6,2.2c-2,0-2.8-1.3-2.9-2.1L244.1,12.3z"/><path class="st12" d="M261.8,12.6c-0.4,1.3-1.6,2.3-3.2,2.3c-1.9,0-3.6-1.4-3.6-3.9c0-2.3,1.6-3.8,3.4-3.8c2.2,0,3.5,1.5,3.5,3.8 c0,0.2,0,0.4,0,0.4h-5.4c0,1.3,1,2.2,2.2,2.2c1.2,0,1.8-0.6,2-1.5L261.8,12.6z M260.4,10.3c0-1-0.7-1.8-2-1.8c-1.2,0-1.9,0.9-2,1.8 H260.4z"/><path class="st12" d="M266,11l-2.6-3.5h1.7l1.8,2.5l1.7-2.5h1.7l-2.6,3.5c0.4,0.6,2.2,3.1,2.7,3.7h-1.7l-1.9-2.7l-1.8,2.7h-1.7 L266,11z"/><path class="st12" d="M278.6,12.6c-0.4,1.3-1.6,2.3-3.2,2.3c-1.9,0-3.6-1.4-3.6-3.9c0-2.3,1.6-3.8,3.4-3.8c2.2,0,3.5,1.5,3.5,3.8 c0,0.2,0,0.4,0,0.4h-5.4c0,1.3,1,2.2,2.2,2.2c1.2,0,1.8-0.6,2-1.5L278.6,12.6z M277.2,10.3c0-1-0.7-1.8-2-1.8c-1.2,0-1.9,0.9-2,1.8 H277.2z"/><path class="st12" d="M282,11c0,1.6,1,2.5,2.2,2.5c1.3,0,1.8-0.9,2-1.5l1.2,0.5c-0.3,1-1.4,2.2-3.3,2.2c-2.1,0-3.6-1.6-3.6-3.8 c0-2.2,1.6-3.8,3.6-3.8c1.9,0,2.9,1.2,3.2,2.3l-1.3,0.5c-0.2-0.7-0.7-1.5-1.9-1.5C283.1,8.5,282,9.4,282,11z"/><path class="st12" d="M292.4,14.9c-1.7,0-2.7-1.3-2.7-2.9V7.4h1.4v4.3c0,1,0.4,1.9,1.6,1.9c1.1,0,1.7-0.8,1.7-1.8V7.4h1.4v5.9 c0,0.6,0,1.1,0.1,1.3h-1.4c0-0.2-0.1-0.6-0.1-0.9C294.2,14.5,293.3,14.9,292.4,14.9z"/><path class="st12" d="M300.9,7.4h1.6v1.3h-1.6v3.8c0,0.7,0.3,1,1,1c0.2,0,0.4,0,0.6-0.1v1.2c-0.1,0-0.5,0.1-1,0.1 c-1.2,0-2-0.8-2-2.1v-4h-1.4V7.4h0.4c0.8,0,1.1-0.5,1.1-1.1V5.2h1.3V7.4z"/><path class="st12" d="M305.8,3.7c0.6,0,1,0.4,1,1c0,0.6-0.4,1-1,1c-0.6,0-1-0.5-1-1C304.8,4.1,305.2,3.7,305.8,3.7z M305.1,14.7 V7.4h1.4v7.2H305.1z"/><path class="st12" d="M311.1,14.7h-1.4V7.4h1.4v1c0.5-0.9,1.4-1.2,2.2-1.2c1.7,0,2.6,1.2,2.6,2.9v4.6h-1.4v-4.3 c0-1-0.4-1.8-1.7-1.8c-1.1,0-1.7,0.9-1.7,2V14.7z"/><path class="st12" d="M319.7,14.7c0.1,1,0.9,1.8,2,1.8c1.5,0,2.2-0.8,2.2-2.3v-1c-0.3,0.7-1.1,1.2-2.2,1.2c-1.9,0-3.3-1.5-3.3-3.5 c0-1.9,1.3-3.5,3.3-3.5c1.1,0,1.9,0.4,2.2,1.1v-1h1.4v6.7c0,1.8-0.9,3.6-3.6,3.6c-1.8,0-3.1-1.1-3.3-2.7L319.7,14.7z M323.9,10.8 c0-1.4-0.8-2.3-2.1-2.3c-1.2,0-2.1,0.9-2.1,2.3c0,1.4,0.8,2.3,2.1,2.3C323.1,13.1,323.9,12.2,323.9,10.8z"/><path class="st12" d="M337.8,13.6c-0.3,0.7-1.1,1.3-2.2,1.3c-2.1,0-3.4-1.7-3.4-3.8c0-2,1.4-3.8,3.4-3.8c1.3,0,2,0.6,2.2,1.2V3.8 h1.4v9.5c0,0.7,0.1,1.2,0.1,1.3h-1.4c0-0.2-0.1-0.5-0.1-1V13.6z M335.7,13.6c1.3,0,2.1-1.1,2.1-2.6c0-1.5-0.8-2.5-2.1-2.5 c-1.3,0-2.1,1-2.1,2.5S334.4,13.6,335.7,13.6z"/><path class="st12" d="M344.9,14.9c-1.7,0-2.7-1.3-2.7-2.9V7.4h1.4v4.3c0,1,0.4,1.9,1.6,1.9c1.1,0,1.7-0.8,1.7-1.8V7.4h1.4v5.9 c0,0.6,0,1.1,0.1,1.3h-1.4c0-0.2-0.1-0.6-0.1-0.9C346.6,14.5,345.7,14.9,344.9,14.9z"/><path class="st12" d="M355.5,8.9c-0.2,0-0.4,0-0.6,0c-1.2,0-2,0.6-2,2.2v3.6h-1.4V7.4h1.4v1.3c0.5-1.1,1.4-1.4,2.2-1.4 c0.2,0,0.4,0,0.5,0V8.9z"/><path class="st12" d="M358.4,3.7c0.6,0,1,0.4,1,1c0,0.6-0.4,1-1,1c-0.6,0-1-0.5-1-1C357.4,4.1,357.9,3.7,358.4,3.7z M357.7,14.7 V7.4h1.4v7.2H357.7z"/><path class="st12" d="M363.7,14.7h-1.4V7.4h1.4v1c0.5-0.9,1.4-1.2,2.2-1.2c1.7,0,2.6,1.2,2.6,2.9v4.6h-1.4v-4.3 c0-1-0.4-1.8-1.7-1.8c-1.1,0-1.7,0.9-1.7,2V14.7z"/><path class="st12" d="M372.3,14.7c0.1,1,0.9,1.8,2,1.8c1.5,0,2.2-0.8,2.2-2.3v-1c-0.3,0.7-1.1,1.2-2.2,1.2c-1.9,0-3.3-1.5-3.3-3.5 c0-1.9,1.3-3.5,3.3-3.5c1.1,0,1.9,0.4,2.2,1.1v-1h1.4v6.7c0,1.8-0.9,3.6-3.6,3.6c-1.8,0-3.1-1.1-3.3-2.7L372.3,14.7z M376.5,10.8 c0-1.4-0.8-2.3-2.1-2.3c-1.2,0-2.1,0.9-2.1,2.3c0,1.4,0.8,2.3,2.1,2.3C375.7,13.1,376.5,12.2,376.5,10.8z"/><path class="st12" d="M387.3,7.4h1.6v1.3h-1.6v3.8c0,0.7,0.3,1,1,1c0.2,0,0.4,0,0.6-0.1v1.2c-0.1,0-0.5,0.1-1,0.1 c-1.2,0-2-0.8-2-2.1v-4h-1.4V7.4h0.4c0.8,0,1.1-0.5,1.1-1.1V5.2h1.3V7.4z"/><path class="st12" d="M392.9,14.7h-1.4V3.8h1.4v4.5c0.5-0.8,1.4-1.1,2.2-1.1c1.7,0,2.6,1.2,2.6,2.9v4.6h-1.4v-4.3 c0-1-0.4-1.8-1.7-1.8c-1.1,0-1.6,0.8-1.7,1.9V14.7z"/><path class="st12" d="M406.9,12.6c-0.4,1.3-1.6,2.3-3.2,2.3c-1.9,0-3.6-1.4-3.6-3.9c0-2.3,1.6-3.8,3.4-3.8c2.2,0,3.5,1.5,3.5,3.8 c0,0.2,0,0.4,0,0.4h-5.4c0,1.3,1,2.2,2.2,2.2c1.2,0,1.8-0.6,2-1.5L406.9,12.6z M405.5,10.3c0-1-0.7-1.8-2-1.8c-1.2,0-1.9,0.9-2,1.8 H405.5z"/><path class="st12" d="M414.9,11c0,1.6,1,2.5,2.2,2.5c1.3,0,1.8-0.9,2-1.5l1.2,0.5c-0.3,1-1.4,2.2-3.3,2.2c-2.1,0-3.6-1.6-3.6-3.8 c0-2.2,1.6-3.8,3.6-3.8c1.9,0,2.9,1.2,3.2,2.3L419,10c-0.2-0.7-0.7-1.5-1.9-1.5C415.9,8.5,414.9,9.4,414.9,11z"/><path class="st12" d="M429.4,11c0,2.2-1.5,3.8-3.7,3.8s-3.7-1.6-3.7-3.8c0-2.2,1.5-3.8,3.7-3.8S429.4,8.8,429.4,11z M428,11 c0-1.7-1.1-2.6-2.2-2.6s-2.2,0.9-2.2,2.6c0,1.7,1,2.6,2.2,2.6S428,12.7,428,11z"/><path class="st12" d="M432,14.7V7.4h1.3v1c0.4-0.8,1.4-1.2,2.2-1.2c0.9,0,1.8,0.4,2.2,1.4c0.6-1,1.5-1.4,2.4-1.4 c1.3,0,2.5,0.9,2.5,2.7v4.7h-1.4v-4.5c0-0.9-0.5-1.6-1.5-1.6c-1,0-1.7,0.8-1.7,1.8v4.4h-1.4v-4.5c0-0.9-0.4-1.6-1.5-1.6 c-1,0-1.7,0.8-1.7,1.8v4.3H432z"/><path class="st12" d="M445.6,14.7V7.4h1.3v1c0.4-0.8,1.4-1.2,2.2-1.2c0.9,0,1.8,0.4,2.2,1.4c0.6-1,1.5-1.4,2.4-1.4 c1.3,0,2.5,0.9,2.5,2.7v4.7h-1.4v-4.5c0-0.9-0.5-1.6-1.5-1.6c-1,0-1.7,0.8-1.7,1.8v4.4h-1.4v-4.5c0-0.9-0.4-1.6-1.5-1.6 c-1,0-1.7,0.8-1.7,1.8v4.3H445.6z"/><path class="st12" d="M459.9,3.7c0.6,0,1,0.4,1,1c0,0.6-0.4,1-1,1c-0.6,0-1-0.5-1-1C458.9,4.1,459.3,3.7,459.9,3.7z M459.2,14.7 V7.4h1.4v7.2H459.2z"/><path class="st12" d="M465.6,7.4h1.6v1.3h-1.6v3.8c0,0.7,0.3,1,1,1c0.2,0,0.4,0,0.6-0.1v1.2c-0.1,0-0.5,0.1-1,0.1 c-1.2,0-2-0.8-2-2.1v-4h-1.4V7.4h0.4c0.8,0,1.1-0.5,1.1-1.1V5.2h1.3V7.4z"/><path class="st12" d="M475.2,11c0,1.6,1,2.5,2.2,2.5c1.3,0,1.8-0.9,2-1.5l1.2,0.5c-0.3,1-1.4,2.2-3.3,2.2c-2.1,0-3.6-1.6-3.6-3.8 c0-2.2,1.6-3.8,3.6-3.8c1.9,0,2.9,1.2,3.2,2.3l-1.3,0.5c-0.2-0.7-0.7-1.5-1.9-1.5C476.2,8.5,475.2,9.4,475.2,11z"/><path class="st12" d="M487,8.9c-0.2,0-0.4,0-0.6,0c-1.2,0-2,0.6-2,2.2v3.6H483V7.4h1.4v1.3c0.5-1.1,1.4-1.4,2.2-1.4 c0.2,0,0.4,0,0.5,0V8.9z"/><path class="st12" d="M495.5,12.6c-0.4,1.3-1.6,2.3-3.2,2.3c-1.9,0-3.6-1.4-3.6-3.9c0-2.3,1.6-3.8,3.4-3.8c2.2,0,3.5,1.5,3.5,3.8 c0,0.2,0,0.4,0,0.4h-5.4c0,1.3,1,2.2,2.2,2.2c1.2,0,1.8-0.6,2-1.5L495.5,12.6z M494.1,10.3c0-1-0.7-1.8-2-1.8c-1.2,0-1.9,0.9-2,1.8 H494.1z"/><path class="st12" d="M499.8,10.5l1.9-0.3c0.4-0.1,0.6-0.3,0.6-0.5c0-0.7-0.5-1.3-1.6-1.3c-1,0-1.5,0.6-1.6,1.5l-1.4-0.3 c0.2-1.4,1.4-2.3,3-2.3c2.2,0,3,1.2,3,2.6v3.6c0,0.6,0.1,1,0.1,1.2h-1.4c0-0.2-0.1-0.5-0.1-1c-0.3,0.5-1,1.2-2.3,1.2 c-1.5,0-2.4-1-2.4-2.2C497.6,11.4,498.6,10.7,499.8,10.5z M502.3,11.6v-0.3l-2.2,0.3c-0.6,0.1-1,0.4-1,1.1c0,0.5,0.4,1,1.2,1 C501.4,13.7,502.3,13.1,502.3,11.6z"/><path class="st12" d="M508.6,7.4h1.6v1.3h-1.6v3.8c0,0.7,0.3,1,1,1c0.2,0,0.4,0,0.6-0.1v1.2c-0.1,0-0.5,0.1-1,0.1 c-1.2,0-2-0.8-2-2.1v-4h-1.4V7.4h0.4c0.8,0,1.1-0.5,1.1-1.1V5.2h1.3V7.4z"/><path class="st12" d="M513.4,3.7c0.6,0,1,0.4,1,1c0,0.6-0.4,1-1,1c-0.6,0-1-0.5-1-1C512.4,4.1,512.9,3.7,513.4,3.7z M512.7,14.7 V7.4h1.4v7.2H512.7z"/><path class="st12" d="M524.1,11c0,2.2-1.5,3.8-3.7,3.8s-3.7-1.6-3.7-3.8c0-2.2,1.5-3.8,3.7-3.8S524.1,8.8,524.1,11z M522.6,11 c0-1.7-1.1-2.6-2.2-2.6s-2.2,0.9-2.2,2.6c0,1.7,1,2.6,2.2,2.6S522.6,12.7,522.6,11z"/><path class="st12" d="M528,14.7h-1.4V7.4h1.4v1c0.5-0.9,1.4-1.2,2.2-1.2c1.7,0,2.6,1.2,2.6,2.9v4.6h-1.4v-4.3c0-1-0.4-1.8-1.7-1.8 c-1.1,0-1.7,0.9-1.7,2V14.7z"/><path class="st12" d="M540.3,17.5V7.4h1.4v1.1c0.4-0.7,1.2-1.3,2.4-1.3c2.2,0,3.3,1.7,3.3,3.8c0,2.1-1.2,3.8-3.4,3.8 c-1.1,0-1.9-0.5-2.3-1.2v3.8H540.3z M543.8,8.5c-1.3,0-2.1,1.1-2.1,2.5c0,1.5,0.9,2.5,2.1,2.5c1.3,0,2.1-1.1,2.1-2.5 C545.9,9.6,545.1,8.5,543.8,8.5z"/><path class="st12" d="M553.9,8.9c-0.2,0-0.4,0-0.6,0c-1.2,0-2,0.6-2,2.2v3.6h-1.4V7.4h1.4v1.3c0.5-1.1,1.4-1.4,2.2-1.4 c0.2,0,0.4,0,0.5,0V8.9z"/><path class="st12" d="M562.9,11c0,2.2-1.5,3.8-3.7,3.8s-3.7-1.6-3.7-3.8c0-2.2,1.5-3.8,3.7-3.8S562.9,8.8,562.9,11z M561.5,11 c0-1.7-1.1-2.6-2.2-2.6S557,9.4,557,11c0,1.7,1.1,2.6,2.2,2.6S561.5,12.7,561.5,11z"/><path class="st12" d="M566.3,11c0,1.6,1,2.5,2.2,2.5c1.3,0,1.8-0.9,2-1.5l1.2,0.5c-0.3,1-1.4,2.2-3.3,2.2c-2.1,0-3.6-1.6-3.6-3.8 c0-2.2,1.6-3.8,3.6-3.8c1.9,0,2.9,1.2,3.2,2.3l-1.3,0.5c-0.2-0.7-0.7-1.5-1.9-1.5C567.3,8.5,566.3,9.4,566.3,11z"/><path class="st12" d="M580.4,12.6c-0.4,1.3-1.6,2.3-3.2,2.3c-1.9,0-3.6-1.4-3.6-3.9c0-2.3,1.6-3.8,3.4-3.8c2.2,0,3.5,1.5,3.5,3.8 c0,0.2,0,0.4,0,0.4h-5.4c0,1.3,1,2.2,2.2,2.2c1.2,0,1.8-0.6,2-1.5L580.4,12.6z M578.9,10.3c0-1-0.7-1.8-2-1.8c-1.2,0-1.9,0.9-2,1.8 H578.9z"/><path class="st12" d="M583.6,12.3c0.1,0.8,0.7,1.3,1.7,1.3c0.8,0,1.2-0.4,1.2-1c0-0.4-0.3-0.8-0.9-0.9l-1.2-0.3 c-1.1-0.2-1.8-1-1.8-2c0-1.2,1.2-2.3,2.6-2.3c2,0,2.6,1.3,2.7,1.9l-1.2,0.5c-0.1-0.4-0.4-1.2-1.5-1.2c-0.7,0-1.2,0.5-1.2,1 c0,0.4,0.3,0.8,0.8,0.9l1.2,0.3c1.3,0.3,2,1.1,2,2.1c0,1-0.9,2.2-2.6,2.2c-2,0-2.8-1.3-2.9-2.1L583.6,12.3z"/><path class="st12" d="M591.1,12.3c0.1,0.8,0.7,1.3,1.7,1.3c0.8,0,1.2-0.4,1.2-1c0-0.4-0.3-0.8-0.9-0.9l-1.2-0.3 c-1.1-0.2-1.8-1-1.8-2c0-1.2,1.2-2.3,2.6-2.3c2,0,2.6,1.3,2.7,1.9l-1.2,0.5c-0.1-0.4-0.4-1.2-1.5-1.2c-0.7,0-1.2,0.5-1.2,1 c0,0.4,0.3,0.8,0.8,0.9l1.2,0.3c1.3,0.3,2,1.1,2,2.1c0,1-0.9,2.2-2.6,2.2c-2,0-2.8-1.3-2.9-2.1L591.1,12.3z"/><path class="st2" d="M165.7 254.3H766V388.8H165.7z"/><path class="st2" d="M380 61.7H704V194.2H380z"/><path class="st12" d="M89.7,138.9v-4.7h-5.4v4.7h-1.5v-10.6h1.5v4.5h5.4v-4.5h1.5v10.6H89.7z"/><path class="st12" d="M101.3,135.3c0,2.2-1.5,3.8-3.7,3.8s-3.7-1.6-3.7-3.8c0-2.2,1.5-3.8,3.7-3.8S101.3,133.1,101.3,135.3z M99.9,135.3c0-1.7-1.1-2.6-2.2-2.6s-2.2,0.9-2.2,2.6c0,1.7,1,2.6,2.2,2.6S99.9,137,99.9,135.3z"/><path class="st12" d="M110.6,135.3c0,2.2-1.5,3.8-3.7,3.8s-3.7-1.6-3.7-3.8c0-2.2,1.5-3.8,3.7-3.8S110.6,133.1,110.6,135.3z M109.2,135.3c0-1.7-1.1-2.6-2.2-2.6s-2.2,0.9-2.2,2.6c0,1.7,1.1,2.6,2.2,2.6S109.2,137,109.2,135.3z"/><path class="st12" d="M116.6,134.8l3.1,4.2h-1.8l-2.4-3.2l-1,1v2.2h-1.4v-10.9h1.4v6.8l3.1-3.2h1.9L116.6,134.8z"/><path class="st12" d="M122.4,136.6c0.1,0.8,0.7,1.3,1.7,1.3c0.8,0,1.2-0.4,1.2-1c0-0.4-0.3-0.8-0.9-0.9l-1.2-0.3 c-1.1-0.2-1.8-1-1.8-2c0-1.2,1.2-2.3,2.6-2.3c2,0,2.6,1.3,2.7,1.9l-1.2,0.5c-0.1-0.4-0.4-1.2-1.5-1.2c-0.7,0-1.2,0.5-1.2,1 c0,0.4,0.3,0.8,0.8,0.9l1.2,0.3c1.3,0.3,2,1.1,2,2.1c0,1-0.9,2.2-2.6,2.2c-2,0-2.8-1.3-2.9-2.1L122.4,136.6z"/><path class="st12" d="M35.2,321v-7h1.5v7c0,1.6,0.9,2.5,2.4,2.5c1.5,0,2.4-0.9,2.4-2.5v-7h1.5v7c0,2.5-1.7,3.9-3.8,3.9 S35.2,323.5,35.2,321z"/><path class="st12" d="M46.6,322.3c0.1,0.8,0.7,1.3,1.7,1.3c0.8,0,1.2-0.4,1.2-1c0-0.4-0.3-0.8-0.9-0.9l-1.2-0.3 c-1.1-0.2-1.8-1-1.8-2c0-1.2,1.2-2.3,2.6-2.3c2,0,2.6,1.3,2.7,1.9l-1.2,0.5c-0.1-0.4-0.4-1.2-1.5-1.2c-0.7,0-1.2,0.5-1.2,1 c0,0.4,0.3,0.8,0.8,0.9l1.2,0.3c1.3,0.3,2,1.1,2,2.1c0,1-0.9,2.2-2.6,2.2c-2,0-2.8-1.3-2.9-2.1L46.6,322.3z"/><path class="st12" d="M59.7,322.6c-0.4,1.3-1.6,2.3-3.2,2.3c-1.9,0-3.6-1.4-3.6-3.9c0-2.3,1.6-3.8,3.4-3.8c2.2,0,3.5,1.5,3.5,3.8 c0,0.2,0,0.4,0,0.4h-5.4c0,1.3,1,2.2,2.2,2.2c1.2,0,1.8-0.6,2-1.5L59.7,322.6z M58.3,320.3c0-1-0.7-1.8-2-1.8 c-1.2,0-1.9,0.9-2,1.8H58.3z"/><path class="st12" d="M66.3,318.8c-0.2,0-0.4,0-0.6,0c-1.2,0-2,0.6-2,2.2v3.6h-1.4v-7.2h1.4v1.3c0.5-1.1,1.4-1.4,2.2-1.4 c0.2,0,0.4,0,0.5,0V318.8z"/><path class="st12" d="M79.4,321.6h-4.7l-1.1,3H72l4.2-10.6H78l4.2,10.6h-1.6L79.4,321.6z M75.3,320.3h3.7l-1.8-4.8L75.3,320.3z"/><path class="st12" d="M85,321c0,1.6,1,2.5,2.2,2.5c1.3,0,1.8-0.9,2-1.5l1.2,0.5c-0.3,1-1.4,2.2-3.3,2.2c-2.1,0-3.6-1.6-3.6-3.8 c0-2.2,1.6-3.8,3.6-3.8c1.9,0,2.9,1.2,3.2,2.3l-1.3,0.5c-0.2-0.7-0.7-1.5-1.9-1.5C86,318.5,85,319.3,85,321z"/><path class="st12" d="M94.7,317.4h1.6v1.3h-1.6v3.8c0,0.7,0.3,1,1,1c0.2,0,0.4,0,0.6-0.1v1.2c-0.1,0-0.5,0.1-1,0.1 c-1.2,0-2-0.8-2-2.1v-4h-1.4v-1.3h0.4c0.8,0,1.1-0.5,1.1-1.1v-1.2h1.3V317.4z"/><path class="st12" d="M99.6,313.6c0.6,0,1,0.4,1,1c0,0.6-0.4,1-1,1c-0.6,0-1-0.5-1-1C98.6,314.1,99.1,313.6,99.6,313.6z M98.9,324.6v-7.2h1.4v7.2H98.9z"/><path class="st12" d="M110.2,321c0,2.2-1.5,3.8-3.7,3.8s-3.7-1.6-3.7-3.8c0-2.2,1.5-3.8,3.7-3.8S110.2,318.8,110.2,321z M108.8,321c0-1.7-1.1-2.6-2.2-2.6s-2.2,0.9-2.2,2.6c0,1.7,1,2.6,2.2,2.6S108.8,322.7,108.8,321z"/><path class="st12" d="M114.2,324.6h-1.4v-7.2h1.4v1c0.5-0.9,1.4-1.2,2.2-1.2c1.7,0,2.6,1.2,2.6,2.9v4.6h-1.4v-4.3 c0-1-0.4-1.8-1.7-1.8c-1.1,0-1.7,0.9-1.7,2V324.6z"/><path class="st12" d="M122.6,322.3c0.1,0.8,0.7,1.3,1.7,1.3c0.8,0,1.2-0.4,1.2-1c0-0.4-0.3-0.8-0.9-0.9l-1.2-0.3 c-1.1-0.2-1.8-1-1.8-2c0-1.2,1.2-2.3,2.6-2.3c2,0,2.6,1.3,2.7,1.9l-1.2,0.5c-0.1-0.4-0.4-1.2-1.5-1.2c-0.7,0-1.2,0.5-1.2,1 c0,0.4,0.3,0.8,0.8,0.9l1.2,0.3c1.3,0.3,2,1.1,2,2.1c0,1-0.9,2.2-2.6,2.2c-2,0-2.8-1.3-2.9-2.1L122.6,322.3z"/><circle class="st13" cx="463.5" cy="153.4" r="21"/><path class="st6" d="M256.3,317.7h-38c-1.1,0-2-0.9-2-2v-38c0-1.1,0.9-2,2-2h38c1.1,0,2,0.9,2,2v38 C258.3,316.8,257.4,317.7,256.3,317.7z"/><path class="st6" d="M408.2,317.7h-38c-1.1,0-2-0.9-2-2v-38c0-1.1,0.9-2,2-2h38c1.1,0,2,0.9,2,2v38 C410.2,316.8,409.3,317.7,408.2,317.7z"/><path class="st11" d="M345.7 296.7L278.2 296.7"/><path class="st11" d="M337 285.8L347.9 296.7 337 307.6"/><path class="st6" d="M559.7,317.7h-38c-1.1,0-2-0.9-2-2v-38c0-1.1,0.9-2,2-2h38c1.1,0,2,0.9,2,2v38 C561.7,316.8,560.8,317.7,559.7,317.7z"/><path class="st11" d="M497.2 296.7L429.7 296.7"/><path class="st11" d="M488.5 285.8L499.4 296.7 488.5 307.6"/><path class="st6" d="M711.7,317.7h-38c-1.1,0-2-0.9-2-2v-38c0-1.1,0.9-2,2-2h38c1.1,0,2,0.9,2,2v38 C713.7,316.8,712.8,317.7,711.7,317.7z"/><path class="st11" d="M649.3 296.7L581.8 296.7"/><path class="st11" d="M640.6 285.8L651.4 296.7 640.6 307.6"/><path class="st9" d="M237.4,301.8v-6.9H235v-1c1.3,0,2.3-0.8,2.5-1.8h1.3v9.7H237.4z"/><path class="st9" d="M385.9,295.4c0-0.1,0-0.3,0-0.4c0-1.7,1.2-3.1,3.4-3.1c2.1,0,3.3,1.4,3.3,3c0,1.3-0.7,2.3-1.8,3l-1.9,1.2 c-0.6,0.4-1.1,0.8-1.2,1.4h5v1.4h-6.8c0-1.6,0.7-2.8,2.3-3.9l1.6-1.1c0.9-0.6,1.3-1.3,1.3-2c0-0.9-0.6-1.7-1.8-1.7 c-1.3,0-1.9,0.9-1.9,2c0,0.1,0,0.3,0,0.4L385.9,295.4z"/><path class="st9" d="M539.5,296l2.9-2.6h-4.6V292h6.6v1.3l-2.8,2.6c1.4,0,3,1,3,3c0,1.6-1.3,3.1-3.5,3.1c-2.2,0-3.5-1.5-3.6-3.1 l1.4-0.3c0.1,1.3,1,2.1,2.2,2.1c1.3,0,2.1-0.8,2.1-1.8c0-1.3-1-1.8-2-1.8c-0.3,0-0.6,0.1-0.9,0.2L539.5,296z"/><path class="st9" d="M688.9,297.9l4.2-5.8h2v6.2h1.7v1.4h-1.7v2.2h-1.4v-2.2h-4.8V297.9z M693.7,293.4l-3.4,4.8h3.4V293.4z"/><path class="st11" d="M463.5 228.5L463.5 174.4"/><circle class="st13" cx="615.5" cy="151.4" r="21"/><path class="st11" d="M615.5 226.5L615.5 172.4"/><path class="st9" d="M223.2,339.3c-0.1-0.8-0.8-1.8-2.2-1.8c-1.2,0-2.1,0.8-2.1,1.8c0,0.8,0.5,1.4,1.4,1.5l1.6,0.3 c1.8,0.4,2.8,1.5,2.8,3c0,1.6-1.4,3.1-3.7,3.1c-2.6,0-3.8-1.6-4-3.2l1.4-0.4c0.1,1.2,0.9,2.3,2.5,2.3c1.5,0,2.2-0.8,2.2-1.7 c0-0.8-0.5-1.4-1.6-1.6l-1.5-0.3c-1.5-0.3-2.6-1.3-2.6-2.9c0-1.7,1.5-3.2,3.5-3.2c2.4,0,3.4,1.5,3.6,2.6L223.2,339.3z"/><path class="st9" d="M229,339.8h1.6v1.3H229v3.8c0,0.7,0.3,1,1,1c0.2,0,0.4,0,0.6-0.1v1.2c-0.1,0-0.5,0.1-1,0.1 c-1.2,0-2-0.8-2-2.1v-4h-1.4v-1.3h0.4c0.8,0,1.1-0.5,1.1-1.1v-1.2h1.3V339.8z"/><path class="st9" d="M234.9,342.9l1.9-0.3c0.4-0.1,0.6-0.3,0.6-0.5c0-0.7-0.5-1.3-1.6-1.3c-1,0-1.5,0.6-1.6,1.5l-1.4-0.3 c0.2-1.4,1.4-2.3,3-2.3c2.2,0,3,1.2,3,2.6v3.6c0,0.6,0.1,1,0.1,1.2h-1.4c0-0.2-0.1-0.5-0.1-1c-0.3,0.5-1,1.2-2.3,1.2 c-1.5,0-2.4-1-2.4-2.2C232.7,343.8,233.7,343.1,234.9,342.9z M237.4,344v-0.3l-2.2,0.3c-0.6,0.1-1.1,0.4-1.1,1.1 c0,0.5,0.4,1,1.2,1C236.5,346.1,237.4,345.5,237.4,344z"/><path class="st9" d="M242.6,347.1c0.1,1,0.9,1.8,2,1.8c1.5,0,2.2-0.8,2.2-2.3v-1c-0.3,0.7-1.1,1.2-2.2,1.2 c-1.9,0-3.3-1.5-3.3-3.5c0-1.9,1.3-3.5,3.3-3.5c1.1,0,1.9,0.4,2.2,1.1v-1h1.4v6.7c0,1.8-0.9,3.6-3.6,3.6c-1.8,0-3.1-1.1-3.3-2.7 L242.6,347.1z M246.9,343.2c0-1.4-0.8-2.3-2.1-2.3c-1.2,0-2.1,0.9-2.1,2.3c0,1.4,0.8,2.3,2.1,2.3 C246,345.5,246.9,344.6,246.9,343.2z"/><path class="st9" d="M257.5,345c-0.4,1.3-1.6,2.3-3.2,2.3c-1.9,0-3.6-1.4-3.6-3.9c0-2.3,1.6-3.8,3.4-3.8c2.2,0,3.5,1.5,3.5,3.8 c0,0.2,0,0.4,0,0.4h-5.4c0,1.3,1,2.2,2.2,2.2c1.2,0,1.8-0.6,2-1.5L257.5,345z M256.1,342.7c0-1-0.7-1.8-2-1.8 c-1.2,0-1.9,0.9-2,1.8H256.1z"/><path class="st9" d="M206,359.7c0-3.6,2.6-5.5,5.3-5.5c2.4,0,4.1,1.3,4.7,3.4l-1.4,0.5c-0.4-1.6-1.6-2.5-3.3-2.5 c-1.9,0-3.8,1.4-3.8,4.2s1.8,4.2,3.8,4.2c1.8,0,3-1.1,3.4-2.5l1.3,0.5c-0.6,2-2.2,3.4-4.7,3.4C208.5,365.3,206,363.3,206,359.7z"/><path class="st9" d="M219.8,365.1h-1.4v-10.9h1.4v4.5c0.5-0.8,1.4-1.1,2.2-1.1c1.7,0,2.6,1.2,2.6,2.9v4.6h-1.4v-4.3 c0-1-0.4-1.8-1.7-1.8c-1.1,0-1.6,0.8-1.7,1.9V365.1z"/><path class="st9" d="M229.3,360.9l1.9-0.3c0.4-0.1,0.6-0.3,0.6-0.5c0-0.7-0.5-1.3-1.6-1.3c-1,0-1.5,0.6-1.6,1.5l-1.4-0.3 c0.2-1.4,1.4-2.3,3-2.3c2.2,0,3,1.2,3,2.6v3.6c0,0.6,0.1,1,0.1,1.2h-1.4c0-0.2-0.1-0.5-0.1-1c-0.3,0.5-1,1.2-2.3,1.2 c-1.5,0-2.4-1-2.4-2.2C227.1,361.8,228.1,361.1,229.3,360.9z M231.8,362v-0.3l-2.2,0.3c-0.6,0.1-1.1,0.4-1.1,1.1 c0,0.5,0.4,1,1.2,1C230.9,364.1,231.8,363.5,231.8,362z"/><path class="st9" d="M237.6,365.1h-1.4v-7.2h1.4v1c0.5-0.9,1.4-1.2,2.2-1.2c1.7,0,2.6,1.2,2.6,2.9v4.6h-1.4v-4.3 c0-1-0.4-1.8-1.7-1.8c-1.1,0-1.7,0.9-1.7,2V365.1z"/><path class="st9" d="M246.2,365.1c0.1,1,0.9,1.8,2,1.8c1.5,0,2.2-0.8,2.2-2.3v-1c-0.3,0.7-1.1,1.2-2.2,1.2 c-1.9,0-3.3-1.5-3.3-3.5c0-1.9,1.3-3.5,3.3-3.5c1.1,0,1.9,0.4,2.2,1.1v-1h1.4v6.7c0,1.8-0.9,3.6-3.6,3.6c-1.8,0-3.1-1.1-3.3-2.7 L246.2,365.1z M250.4,361.2c0-1.4-0.8-2.3-2.1-2.3c-1.2,0-2.1,0.9-2.1,2.3c0,1.4,0.8,2.3,2.1,2.3 C249.6,363.5,250.4,362.6,250.4,361.2z"/><path class="st9" d="M261,363c-0.4,1.3-1.6,2.3-3.2,2.3c-1.9,0-3.6-1.4-3.6-3.9c0-2.3,1.6-3.8,3.4-3.8c2.2,0,3.5,1.5,3.5,3.8 c0,0.2,0,0.4,0,0.4h-5.4c0,1.3,1,2.2,2.2,2.2c1.2,0,1.8-0.6,2-1.5L261,363z M259.6,360.7c0-1-0.7-1.8-2-1.8c-1.2,0-1.9,0.9-2,1.8 H259.6z"/><path class="st9" d="M264.2,362.7c0.1,0.8,0.7,1.3,1.7,1.3c0.8,0,1.2-0.4,1.2-1c0-0.4-0.3-0.8-0.9-0.9l-1.2-0.3 c-1.1-0.2-1.8-1-1.8-2c0-1.2,1.2-2.3,2.6-2.3c2,0,2.6,1.3,2.7,1.9l-1.2,0.5c-0.1-0.4-0.4-1.2-1.5-1.2c-0.7,0-1.2,0.5-1.2,1 c0,0.4,0.3,0.8,0.8,0.9l1.2,0.3c1.3,0.3,2,1.1,2,2.1c0,1-0.9,2.2-2.6,2.2c-2,0-2.8-1.3-2.9-2.1L264.2,362.7z"/><path class="st9" d="M360.8,341.7c0-3.6,2.6-5.5,5.3-5.5c2.4,0,4.1,1.3,4.7,3.4l-1.4,0.5c-0.4-1.6-1.6-2.5-3.3-2.5 c-1.9,0-3.8,1.4-3.8,4.2s1.8,4.2,3.8,4.2c1.8,0,3-1.1,3.4-2.5l1.3,0.5c-0.6,2-2.2,3.4-4.7,3.4 C363.3,347.2,360.8,345.2,360.8,341.7z"/><path class="st9" d="M379.8,343.4c0,2.2-1.5,3.8-3.7,3.8s-3.7-1.6-3.7-3.8c0-2.2,1.5-3.8,3.7-3.8S379.8,341.2,379.8,343.4z M378.4,343.4c0-1.7-1.1-2.6-2.2-2.6s-2.2,0.9-2.2,2.6c0,1.7,1.1,2.6,2.2,2.6S378.4,345.1,378.4,343.4z"/><path class="st9" d="M382.3,347v-7.2h1.3v1c0.5-0.8,1.4-1.2,2.2-1.2c0.9,0,1.8,0.4,2.2,1.4c0.6-1,1.5-1.4,2.4-1.4 c1.3,0,2.5,0.9,2.5,2.7v4.7h-1.4v-4.5c0-0.9-0.5-1.6-1.5-1.6c-1,0-1.7,0.8-1.7,1.8v4.4H387v-4.5c0-0.9-0.4-1.6-1.5-1.6 c-1,0-1.7,0.8-1.7,1.8v4.3H382.3z"/><path class="st9" d="M396,347v-7.2h1.3v1c0.5-0.8,1.4-1.2,2.2-1.2c0.9,0,1.8,0.4,2.2,1.4c0.6-1,1.5-1.4,2.4-1.4 c1.3,0,2.5,0.9,2.5,2.7v4.7h-1.4v-4.5c0-0.9-0.5-1.6-1.5-1.6c-1,0-1.7,0.8-1.7,1.8v4.4h-1.4v-4.5c0-0.9-0.4-1.6-1.5-1.6 c-1,0-1.7,0.8-1.7,1.8v4.3H396z"/><path class="st9" d="M410.2,336c0.6,0,1,0.4,1,1c0,0.6-0.4,1-1,1c-0.6,0-1-0.5-1-1C409.2,336.5,409.7,336,410.2,336z M409.6,347 v-7.2h1.4v7.2H409.6z"/><path class="st9" d="M416,339.8h1.6v1.3H416v3.8c0,0.7,0.3,1,1,1c0.2,0,0.4,0,0.6-0.1v1.2c-0.1,0-0.5,0.1-1,0.1 c-1.2,0-2-0.8-2-2.1v-4h-1.4v-1.3h0.4c0.8,0,1.1-0.5,1.1-1.1v-1.2h1.3V339.8z"/><path class="st9" d="M357.9,359.7c0-3.6,2.6-5.5,5.3-5.5c2.4,0,4.1,1.3,4.7,3.4l-1.4,0.5c-0.4-1.6-1.6-2.5-3.3-2.5 c-1.9,0-3.8,1.4-3.8,4.2s1.8,4.2,3.8,4.2c1.8,0,3-1.1,3.4-2.5l1.3,0.5c-0.6,2-2.2,3.4-4.7,3.4 C360.4,365.2,357.9,363.2,357.9,359.7z"/><path class="st9" d="M371.7,365h-1.4v-10.9h1.4v4.5c0.5-0.8,1.4-1.1,2.2-1.1c1.7,0,2.6,1.2,2.6,2.9v4.6h-1.4v-4.3 c0-1-0.4-1.8-1.7-1.8c-1.1,0-1.6,0.8-1.7,1.9V365z"/><path class="st9" d="M381.2,360.9l1.9-0.3c0.4-0.1,0.6-0.3,0.6-0.5c0-0.7-0.5-1.3-1.6-1.3c-1,0-1.5,0.6-1.6,1.5l-1.4-0.3 c0.2-1.4,1.4-2.3,3-2.3c2.2,0,3,1.2,3,2.6v3.6c0,0.6,0.1,1,0.1,1.2h-1.4c0-0.2-0.1-0.5-0.1-1c-0.3,0.5-1,1.2-2.3,1.2 c-1.5,0-2.4-1-2.4-2.2C379,361.8,380,361.1,381.2,360.9z M383.7,361.9v-0.3l-2.2,0.3c-0.6,0.1-1.1,0.4-1.1,1.1c0,0.5,0.4,1,1.2,1 C382.8,364,383.7,363.5,383.7,361.9z"/><path class="st9" d="M389.5,365h-1.4v-7.2h1.4v1c0.5-0.9,1.4-1.2,2.2-1.2c1.7,0,2.6,1.2,2.6,2.9v4.6h-1.4v-4.3 c0-1-0.4-1.8-1.7-1.8c-1.1,0-1.7,0.9-1.7,2V365z"/><path class="st9" d="M398.1,365.1c0.1,1,0.9,1.8,2,1.8c1.5,0,2.2-0.8,2.2-2.3v-1c-0.3,0.7-1.1,1.2-2.2,1.2 c-1.9,0-3.3-1.5-3.3-3.5c0-1.9,1.3-3.5,3.3-3.5c1.1,0,1.9,0.4,2.2,1.1v-1h1.4v6.7c0,1.8-0.9,3.6-3.6,3.6c-1.8,0-3.1-1.1-3.3-2.7 L398.1,365.1z M402.3,361.2c0-1.4-0.8-2.3-2.1-2.3c-1.2,0-2.1,0.9-2.1,2.3c0,1.4,0.8,2.3,2.1,2.3 C401.5,363.5,402.3,362.6,402.3,361.2z"/><path class="st9" d="M412.9,363c-0.4,1.3-1.6,2.3-3.2,2.3c-1.9,0-3.6-1.4-3.6-3.9c0-2.3,1.6-3.8,3.4-3.8c2.2,0,3.5,1.5,3.5,3.8 c0,0.2,0,0.4,0,0.4h-5.4c0,1.3,1,2.2,2.2,2.2c1.2,0,1.8-0.6,2-1.5L412.9,363z M411.5,360.7c0-1-0.7-1.8-2-1.8 c-1.2,0-1.9,0.9-2,1.8H411.5z"/><path class="st9" d="M416.1,362.7c0.1,0.8,0.7,1.3,1.7,1.3c0.8,0,1.2-0.4,1.2-1c0-0.4-0.3-0.8-0.9-0.9l-1.2-0.3 c-1.1-0.2-1.8-1-1.8-2c0-1.2,1.2-2.3,2.6-2.3c2,0,2.6,1.3,2.7,1.9l-1.2,0.5c-0.1-0.4-0.4-1.2-1.5-1.2c-0.7,0-1.2,0.5-1.2,1 c0,0.4,0.3,0.8,0.8,0.9l1.2,0.3c1.3,0.3,2,1.1,2,2.1c0,1-0.9,2.2-2.6,2.2c-2,0-2.8-1.3-2.9-2.1L416.1,362.7z"/><path class="st9" d="M491.2,347v-10.6h6.5v1.4h-5v3.3h4.5v1.4h-4.5v3.3h5v1.4H491.2z"/><path class="st9" d="M501.7,347h-1.4v-7.2h1.4v1c0.5-0.9,1.4-1.2,2.2-1.2c1.7,0,2.6,1.2,2.6,2.9v4.6h-1.4v-4.3 c0-1-0.4-1.8-1.7-1.8c-1.1,0-1.7,0.9-1.7,2V347z"/><path class="st9" d="M511.4,339.8h1.6v1.3h-1.6v3.8c0,0.7,0.3,1,1,1c0.2,0,0.4,0,0.6-0.1v1.2c-0.1,0-0.5,0.1-1,0.1 c-1.2,0-2-0.8-2-2.1v-4h-1.4v-1.3h0.4c0.8,0,1.1-0.5,1.1-1.1v-1.2h1.3V339.8z"/><path class="st9" d="M521.8,345c-0.4,1.3-1.6,2.3-3.2,2.3c-1.9,0-3.6-1.4-3.6-3.9c0-2.3,1.6-3.8,3.4-3.8c2.2,0,3.5,1.5,3.5,3.8 c0,0.2,0,0.4,0,0.4h-5.4c0,1.3,1,2.2,2.2,2.2c1.2,0,1.8-0.6,2-1.5L521.8,345z M520.4,342.7c0-1-0.7-1.8-2-1.8 c-1.2,0-1.9,0.9-2,1.8H520.4z"/><path class="st9" d="M528.4,341.2c-0.2,0-0.4,0-0.6,0c-1.2,0-2,0.6-2,2.2v3.6h-1.4v-7.2h1.4v1.3c0.5-1.1,1.4-1.4,2.2-1.4 c0.2,0,0.4,0,0.5,0V341.2z"/><path class="st9" d="M534.6,341.7c0-3.6,2.6-5.5,5.3-5.5c2.4,0,4.1,1.3,4.7,3.4l-1.4,0.5c-0.4-1.6-1.6-2.5-3.3-2.5 c-1.9,0-3.8,1.4-3.8,4.2s1.8,4.2,3.8,4.2c1.8,0,3-1.1,3.4-2.5l1.3,0.5c-0.6,2-2.2,3.4-4.7,3.4 C537.1,347.2,534.6,345.2,534.6,341.7z"/><path class="st9" d="M553.6,343.4c0,2.2-1.5,3.8-3.7,3.8s-3.7-1.6-3.7-3.8c0-2.2,1.5-3.8,3.7-3.8S553.6,341.2,553.6,343.4z M552.2,343.4c0-1.7-1.1-2.6-2.2-2.6s-2.2,0.9-2.2,2.6c0,1.7,1.1,2.6,2.2,2.6S552.2,345.1,552.2,343.4z"/><path class="st9" d="M556.2,347v-7.2h1.3v1c0.5-0.8,1.4-1.2,2.2-1.2c0.9,0,1.8,0.4,2.2,1.4c0.6-1,1.5-1.4,2.4-1.4 c1.3,0,2.5,0.9,2.5,2.7v4.7h-1.4v-4.5c0-0.9-0.5-1.6-1.5-1.6c-1,0-1.7,0.8-1.7,1.8v4.4h-1.4v-4.5c0-0.9-0.4-1.6-1.5-1.6 c-1,0-1.7,0.8-1.7,1.8v4.3H556.2z"/><path class="st9" d="M569.8,347v-7.2h1.3v1c0.5-0.8,1.4-1.2,2.2-1.2c0.9,0,1.8,0.4,2.2,1.4c0.6-1,1.5-1.4,2.4-1.4 c1.3,0,2.5,0.9,2.5,2.7v4.7H579v-4.5c0-0.9-0.5-1.6-1.5-1.6c-1,0-1.7,0.8-1.7,1.8v4.4h-1.4v-4.5c0-0.9-0.4-1.6-1.5-1.6 c-1,0-1.7,0.8-1.7,1.8v4.3H569.8z"/><path class="st9" d="M584.1,336c0.6,0,1,0.4,1,1c0,0.6-0.4,1-1,1c-0.6,0-1-0.5-1-1C583.1,336.5,583.5,336,584.1,336z M583.4,347 v-7.2h1.4v7.2H583.4z"/><path class="st9" d="M589.8,339.8h1.6v1.3h-1.6v3.8c0,0.7,0.3,1,1,1c0.2,0,0.4,0,0.6-0.1v1.2c-0.1,0-0.5,0.1-1,0.1 c-1.2,0-2-0.8-2-2.1v-4H587v-1.3h0.4c0.8,0,1.1-0.5,1.1-1.1v-1.2h1.3V339.8z"/><path class="st9" d="M519.9,365v-8.3l-3.6,8.3h-1.3l-3.6-8.3v8.3h-1.5v-10.6h2l3.7,8.7l3.8-8.7h2V365H519.9z"/><path class="st9" d="M530.9,363c-0.4,1.3-1.6,2.3-3.2,2.3c-1.9,0-3.6-1.4-3.6-3.9c0-2.3,1.6-3.8,3.4-3.8c2.2,0,3.5,1.5,3.5,3.8 c0,0.2,0,0.4,0,0.4h-5.4c0,1.3,1,2.2,2.2,2.2c1.2,0,1.8-0.6,2-1.5L530.9,363z M529.5,360.7c0-1-0.7-1.8-2-1.8 c-1.2,0-1.9,0.9-2,1.8H529.5z"/><path class="st9" d="M534.1,362.7c0.1,0.8,0.7,1.3,1.7,1.3c0.8,0,1.2-0.4,1.2-1c0-0.4-0.3-0.8-0.9-0.9l-1.2-0.3 c-1.1-0.2-1.8-1-1.8-2c0-1.2,1.2-2.3,2.6-2.3c2,0,2.6,1.3,2.7,1.9l-1.2,0.5c-0.1-0.4-0.4-1.2-1.5-1.2c-0.7,0-1.2,0.5-1.2,1 c0,0.4,0.3,0.8,0.8,0.9l1.2,0.3c1.3,0.3,2,1.1,2,2.1c0,1-0.9,2.2-2.6,2.2c-2,0-2.8-1.3-2.9-2.1L534.1,362.7z"/><path class="st9" d="M541.7,362.7c0.1,0.8,0.7,1.3,1.7,1.3c0.8,0,1.2-0.4,1.2-1c0-0.4-0.3-0.8-0.9-0.9l-1.2-0.3 c-1.1-0.2-1.8-1-1.8-2c0-1.2,1.2-2.3,2.6-2.3c2,0,2.6,1.3,2.7,1.9l-1.2,0.5c-0.1-0.4-0.4-1.2-1.5-1.2c-0.7,0-1.2,0.5-1.2,1 c0,0.4,0.3,0.8,0.8,0.9l1.2,0.3c1.3,0.3,2,1.1,2,2.1c0,1-0.9,2.2-2.6,2.2c-2,0-2.8-1.3-2.9-2.1L541.7,362.7z"/><path class="st9" d="M550.2,360.9l1.9-0.3c0.4-0.1,0.6-0.3,0.6-0.5c0-0.7-0.5-1.3-1.6-1.3c-1,0-1.5,0.6-1.6,1.5l-1.4-0.3 c0.2-1.4,1.4-2.3,3-2.3c2.2,0,3,1.2,3,2.6v3.6c0,0.6,0.1,1,0.1,1.2h-1.4c0-0.2-0.1-0.5-0.1-1c-0.3,0.5-1,1.2-2.3,1.2 c-1.5,0-2.4-1-2.4-2.2C548,361.8,548.9,361.1,550.2,360.9z M552.7,361.9v-0.3l-2.2,0.3c-0.6,0.1-1.1,0.4-1.1,1.1 c0,0.5,0.4,1,1.2,1C551.8,364,552.7,363.5,552.7,361.9z"/><path class="st9" d="M557.9,365.1c0.1,1,0.9,1.8,2,1.8c1.5,0,2.2-0.8,2.2-2.3v-1c-0.3,0.7-1.1,1.2-2.2,1.2 c-1.9,0-3.3-1.5-3.3-3.5c0-1.9,1.3-3.5,3.3-3.5c1.1,0,1.9,0.4,2.2,1.1v-1h1.4v6.7c0,1.8-0.9,3.6-3.6,3.6c-1.8,0-3.1-1.1-3.3-2.7 L557.9,365.1z M562.1,361.2c0-1.4-0.8-2.3-2.1-2.3c-1.2,0-2.1,0.9-2.1,2.3c0,1.4,0.8,2.3,2.1,2.3 C561.3,363.5,562.1,362.6,562.1,361.2z"/><path class="st9" d="M572.7,363c-0.4,1.3-1.6,2.3-3.2,2.3c-1.9,0-3.6-1.4-3.6-3.9c0-2.3,1.6-3.8,3.4-3.8c2.2,0,3.5,1.5,3.5,3.8 c0,0.2,0,0.4,0,0.4h-5.4c0,1.3,1,2.2,2.2,2.2c1.2,0,1.8-0.6,2-1.5L572.7,363z M571.3,360.7c0-1-0.7-1.8-2-1.8 c-1.2,0-1.9,0.9-2,1.8H571.3z"/><path class="st9" d="M421.9,91.7v4.3h-1.5V85.4h3.9c2,0,3.3,1.4,3.3,3.1c0,1.8-1.3,3.1-3.3,3.1H421.9z M424,90.4 c1.3,0,2.1-0.7,2.1-1.8c0-1.1-0.8-1.8-2.1-1.8h-2.1v3.6H424z"/><path class="st9" d="M433.8,90.3c-0.2,0-0.4,0-0.6,0c-1.2,0-2,0.6-2,2.2v3.6h-1.4v-7.2h1.4v1.3c0.5-1.1,1.4-1.4,2.2-1.4 c0.2,0,0.4,0,0.5,0V90.3z"/><path class="st9" d="M442.2,94c-0.4,1.3-1.6,2.3-3.2,2.3c-1.9,0-3.6-1.4-3.6-3.9c0-2.3,1.6-3.8,3.4-3.8c2.2,0,3.5,1.5,3.5,3.8 c0,0.2,0,0.4,0,0.4h-5.4c0,1.3,1,2.2,2.2,2.2c1.2,0,1.8-0.6,2-1.5L442.2,94z M440.8,91.7c0-1-0.7-1.8-2-1.8c-1.2,0-1.9,0.9-2,1.8 H440.8z"/><path class="st9" d="M444.3,92.4v-1.2h4.1v1.2H444.3z"/><path class="st9" d="M450.5,90.8c0-3.6,2.6-5.5,5.3-5.5c2.4,0,4.1,1.3,4.7,3.4l-1.4,0.5c-0.4-1.6-1.6-2.5-3.3-2.5 c-1.9,0-3.8,1.4-3.8,4.2s1.8,4.2,3.8,4.2c1.8,0,3-1.1,3.4-2.5l1.3,0.5c-0.6,2-2.2,3.4-4.7,3.4C453,96.3,450.5,94.3,450.5,90.8z"/><path class="st9" d="M469.5,92.5c0,2.2-1.5,3.8-3.7,3.8s-3.7-1.6-3.7-3.8c0-2.2,1.5-3.8,3.7-3.8S469.5,90.3,469.5,92.5z M468,92.5c0-1.7-1.1-2.6-2.2-2.6s-2.2,0.9-2.2,2.6c0,1.7,1.1,2.6,2.2,2.6S468,94.1,468,92.5z"/><path class="st9" d="M472,96.1v-7.2h1.3v1c0.5-0.8,1.4-1.2,2.2-1.2c0.9,0,1.8,0.4,2.2,1.4c0.6-1,1.5-1.4,2.4-1.4 c1.3,0,2.5,0.9,2.5,2.7v4.7h-1.4v-4.5c0-0.9-0.5-1.6-1.5-1.6c-1,0-1.7,0.8-1.7,1.8v4.4h-1.4v-4.5c0-0.9-0.4-1.6-1.5-1.6 c-1,0-1.7,0.8-1.7,1.8v4.3H472z"/><path class="st9" d="M485.6,96.1v-7.2h1.3v1c0.5-0.8,1.4-1.2,2.2-1.2c0.9,0,1.8,0.4,2.2,1.4c0.6-1,1.5-1.4,2.4-1.4 c1.3,0,2.5,0.9,2.5,2.7v4.7h-1.4v-4.5c0-0.9-0.5-1.6-1.5-1.6c-1,0-1.7,0.8-1.7,1.8v4.4h-1.4v-4.5c0-0.9-0.4-1.6-1.5-1.6 c-1,0-1.7,0.8-1.7,1.8v4.3H485.6z"/><path class="st9" d="M499.9,85.1c0.6,0,1,0.4,1,1c0,0.6-0.4,1-1,1c-0.6,0-1-0.5-1-1C498.9,85.6,499.4,85.1,499.9,85.1z M499.2,96.1v-7.2h1.4v7.2H499.2z"/><path class="st9" d="M505.7,88.9h1.6v1.3h-1.6v3.8c0,0.7,0.3,1,1,1c0.2,0,0.4,0,0.6-0.1V96c-0.1,0-0.5,0.1-1,0.1 c-1.2,0-2-0.8-2-2.1v-4h-1.4v-1.3h0.4c0.8,0,1.1-0.5,1.1-1.1v-1.2h1.3V88.9z"/><path class="st9" d="M428.3,114.1l-5.7-8.7v8.7h-1.5v-10.6h2l5.3,8.2v-8.2h1.5v10.6H428.3z"/><path class="st9" d="M439.9,110.5c0,2.2-1.5,3.8-3.7,3.8s-3.7-1.6-3.7-3.8c0-2.2,1.5-3.8,3.7-3.8S439.9,108.3,439.9,110.5z M438.5,110.5c0-1.7-1.1-2.6-2.2-2.6s-2.2,0.9-2.2,2.6c0,1.7,1.1,2.6,2.2,2.6S438.5,112.1,438.5,110.5z"/><path class="st9" d="M444.3,106.9h1.6v1.3h-1.6v3.8c0,0.7,0.3,1,1,1c0.2,0,0.4,0,0.6-0.1v1.2c-0.1,0-0.5,0.1-1,0.1 c-1.2,0-2-0.8-2-2.1v-4h-1.4v-1.3h0.4c0.8,0,1.1-0.5,1.1-1.1v-1.2h1.3V106.9z"/><path class="st9" d="M449.2,103.1c0.6,0,1,0.4,1,1c0,0.6-0.4,1-1,1c-0.6,0-1-0.5-1-1C448.2,103.6,448.6,103.1,449.2,103.1z M448.5,114.1v-7.2h1.4v7.2H448.5z"/><path class="st9" d="M456.7,103.3v1.3c-0.1,0-0.3-0.1-0.6-0.1c-0.5,0-1.1,0.2-1.1,1.2v1.2h4.8v7.2h-1.4v-5.9h-3.4v5.9h-1.5v-5.9 h-1.3v-1.3h1.3v-1.2c0-1.6,1.1-2.5,2.4-2.5C456.3,103.2,456.6,103.3,456.7,103.3z M459,103.1c0.6,0,1,0.5,1,1c0,0.6-0.4,1-1,1 c-0.6,0-1-0.4-1-1C458,103.5,458.4,103.1,459,103.1z"/><path class="st9" d="M463.7,110.5c0,1.6,1,2.5,2.2,2.5c1.3,0,1.8-0.9,2-1.5l1.2,0.5c-0.3,1-1.4,2.2-3.3,2.2 c-2.1,0-3.6-1.6-3.6-3.8c0-2.2,1.6-3.8,3.6-3.8c1.9,0,2.9,1.2,3.2,2.3l-1.3,0.5c-0.2-0.7-0.7-1.5-1.9-1.5 C464.7,107.9,463.7,108.8,463.7,110.5z"/><path class="st9" d="M473.2,110l1.9-0.3c0.4-0.1,0.6-0.3,0.6-0.5c0-0.7-0.5-1.3-1.6-1.3c-1,0-1.5,0.6-1.6,1.5l-1.4-0.3 c0.2-1.4,1.4-2.3,3-2.3c2.2,0,3,1.2,3,2.6v3.6c0,0.6,0.1,1,0.1,1.2h-1.4c0-0.2-0.1-0.5-0.1-1c-0.3,0.5-1,1.2-2.3,1.2 c-1.5,0-2.4-1-2.4-2.2C471,110.9,471.9,110.1,473.2,110z M475.7,111v-0.3l-2.2,0.3c-0.6,0.1-1,0.4-1,1.1c0,0.5,0.4,1,1.2,1 C474.8,113.1,475.7,112.6,475.7,111z"/><path class="st9" d="M481.9,106.9h1.6v1.3h-1.6v3.8c0,0.7,0.3,1,1,1c0.2,0,0.4,0,0.6-0.1v1.2c-0.1,0-0.5,0.1-1,0.1 c-1.2,0-2-0.8-2-2.1v-4h-1.4v-1.3h0.4c0.8,0,1.1-0.5,1.1-1.1v-1.2h1.3V106.9z"/><path class="st9" d="M486.8,103.1c0.6,0,1,0.4,1,1c0,0.6-0.4,1-1,1c-0.6,0-1-0.5-1-1C485.8,103.6,486.3,103.1,486.8,103.1z M486.1,114.1v-7.2h1.4v7.2H486.1z"/><path class="st9" d="M497.4,110.5c0,2.2-1.5,3.8-3.7,3.8s-3.7-1.6-3.7-3.8c0-2.2,1.5-3.8,3.7-3.8S497.4,108.3,497.4,110.5z M496,110.5c0-1.7-1.1-2.6-2.2-2.6s-2.2,0.9-2.2,2.6c0,1.7,1,2.6,2.2,2.6S496,112.1,496,110.5z"/><path class="st9" d="M501.4,114.1H500v-7.2h1.4v1c0.5-0.9,1.4-1.2,2.2-1.2c1.7,0,2.6,1.2,2.6,2.9v4.6h-1.4v-4.3 c0-1-0.4-1.8-1.7-1.8c-1.1,0-1.7,0.9-1.7,2V114.1z"/><path class="st9" d="M570.2,89.7v4.3h-1.5V83.5h3.9c2,0,3.3,1.4,3.3,3.1c0,1.8-1.3,3.1-3.3,3.1H570.2z M572.3,88.4 c1.3,0,2.1-0.7,2.1-1.8c0-1.1-0.8-1.8-2.1-1.8h-2.1v3.6H572.3z"/><path class="st9" d="M584.4,90.5c0,2.2-1.5,3.8-3.7,3.8s-3.7-1.6-3.7-3.8c0-2.2,1.5-3.8,3.7-3.8S584.4,88.3,584.4,90.5z M583,90.5c0-1.7-1.1-2.6-2.2-2.6s-2.2,0.9-2.2,2.6c0,1.7,1.1,2.6,2.2,2.6S583,92.1,583,90.5z"/><path class="st9" d="M587.6,91.8c0.1,0.8,0.7,1.3,1.7,1.3c0.8,0,1.2-0.4,1.2-1c0-0.4-0.3-0.8-0.9-0.9l-1.2-0.3 c-1.1-0.2-1.8-1-1.8-2c0-1.2,1.2-2.3,2.6-2.3c2,0,2.6,1.3,2.7,1.9l-1.2,0.5c-0.1-0.4-0.4-1.2-1.5-1.2c-0.7,0-1.2,0.5-1.2,1 c0,0.4,0.3,0.8,0.8,0.9l1.2,0.3c1.3,0.3,2,1.1,2,2.1c0,1-0.9,2.2-2.6,2.2c-2,0-2.8-1.3-2.9-2.1L587.6,91.8z"/><path class="st9" d="M596.4,86.9h1.6v1.3h-1.6v3.8c0,0.7,0.3,1,1,1c0.2,0,0.4,0,0.6-0.1V94c-0.1,0-0.5,0.1-1,0.1 c-1.2,0-2-0.8-2-2.1v-4h-1.4v-1.3h0.4c0.8,0,1.1-0.5,1.1-1.1v-1.2h1.3V86.9z"/><path class="st9" d="M600.1,90.4v-1.2h4.1v1.2H600.1z"/><path class="st9" d="M606.2,88.8c0-3.6,2.6-5.5,5.3-5.5c2.4,0,4.1,1.3,4.7,3.4l-1.4,0.5c-0.4-1.6-1.6-2.5-3.3-2.5 c-1.9,0-3.8,1.4-3.8,4.2s1.8,4.2,3.8,4.2c1.8,0,3-1.1,3.4-2.5l1.3,0.5c-0.6,2-2.2,3.4-4.7,3.4C608.8,94.3,606.2,92.3,606.2,88.8z"/><path class="st9" d="M625.2,90.5c0,2.2-1.5,3.8-3.7,3.8s-3.7-1.6-3.7-3.8c0-2.2,1.5-3.8,3.7-3.8S625.2,88.3,625.2,90.5z M623.8,90.5c0-1.7-1.1-2.6-2.2-2.6s-2.2,0.9-2.2,2.6c0,1.7,1.1,2.6,2.2,2.6S623.8,92.1,623.8,90.5z"/><path class="st9" d="M627.8,94.1v-7.2h1.3v1c0.5-0.8,1.4-1.2,2.2-1.2c0.9,0,1.8,0.4,2.2,1.4c0.6-1,1.5-1.4,2.4-1.4 c1.3,0,2.5,0.9,2.5,2.7v4.7H637v-4.5c0-0.9-0.5-1.6-1.5-1.6c-1,0-1.7,0.8-1.7,1.8v4.4h-1.4v-4.5c0-0.9-0.4-1.6-1.5-1.6 c-1,0-1.7,0.8-1.7,1.8v4.3H627.8z"/><path class="st9" d="M641.4,94.1v-7.2h1.3v1c0.5-0.8,1.4-1.2,2.2-1.2c0.9,0,1.8,0.4,2.2,1.4c0.6-1,1.5-1.4,2.4-1.4 c1.3,0,2.5,0.9,2.5,2.7v4.7h-1.4v-4.5c0-0.9-0.5-1.6-1.5-1.6c-1,0-1.7,0.8-1.7,1.8v4.4H646v-4.5c0-0.9-0.4-1.6-1.5-1.6 c-1,0-1.7,0.8-1.7,1.8v4.3H641.4z"/><path class="st9" d="M655.7,83.1c0.6,0,1,0.4,1,1c0,0.6-0.4,1-1,1c-0.6,0-1-0.5-1-1C654.7,83.6,655.1,83.1,655.7,83.1z M655,94.1 v-7.2h1.4v7.2H655z"/><path class="st9" d="M661.4,86.9h1.6v1.3h-1.6v3.8c0,0.7,0.3,1,1,1c0.2,0,0.4,0,0.6-0.1V94c-0.1,0-0.5,0.1-1,0.1 c-1.2,0-2-0.8-2-2.1v-4h-1.4v-1.3h0.4c0.8,0,1.1-0.5,1.1-1.1v-1.2h1.3V86.9z"/><path class="st9" d="M580.3,112.1l-5.7-8.7v8.7h-1.5v-10.6h2l5.3,8.2v-8.2h1.5v10.6H580.3z"/><path class="st9" d="M591.9,108.5c0,2.2-1.5,3.8-3.7,3.8s-3.7-1.6-3.7-3.8c0-2.2,1.5-3.8,3.7-3.8S591.9,106.3,591.9,108.5z M590.5,108.5c0-1.7-1.1-2.6-2.2-2.6s-2.2,0.9-2.2,2.6c0,1.7,1.1,2.6,2.2,2.6S590.5,110.1,590.5,108.5z"/><path class="st9" d="M596.3,104.9h1.6v1.3h-1.6v3.8c0,0.7,0.3,1,1,1c0.2,0,0.4,0,0.6-0.1v1.2c-0.1,0-0.5,0.1-1,0.1 c-1.2,0-2-0.8-2-2.1v-4h-1.4v-1.3h0.4c0.8,0,1.1-0.5,1.1-1.1v-1.2h1.3V104.9z"/><path class="st9" d="M601.2,101.1c0.6,0,1,0.4,1,1c0,0.6-0.4,1-1,1c-0.6,0-1-0.5-1-1C600.2,101.6,600.6,101.1,601.2,101.1z M600.5,112.1v-7.2h1.4v7.2H600.5z"/><path class="st9" d="M608.7,101.3v1.3c-0.1,0-0.3-0.1-0.6-0.1c-0.5,0-1.1,0.2-1.1,1.2v1.2h4.8v7.2h-1.4v-5.9h-3.4v5.9h-1.5v-5.9 h-1.3v-1.3h1.3v-1.2c0-1.6,1.1-2.5,2.4-2.5C608.3,101.2,608.6,101.3,608.7,101.3z M611,101.1c0.6,0,1,0.5,1,1c0,0.6-0.4,1-1,1 c-0.6,0-1-0.4-1-1C610,101.5,610.4,101.1,611,101.1z"/><path class="st9" d="M615.7,108.5c0,1.6,1,2.5,2.2,2.5c1.3,0,1.8-0.9,2-1.5l1.2,0.5c-0.3,1-1.4,2.2-3.3,2.2 c-2.1,0-3.6-1.6-3.6-3.8c0-2.2,1.6-3.8,3.6-3.8c1.9,0,2.9,1.2,3.2,2.3l-1.3,0.5c-0.2-0.7-0.7-1.5-1.9-1.5 C616.7,106,615.7,106.8,615.7,108.5z"/><path class="st9" d="M625.2,108l1.9-0.3c0.4-0.1,0.6-0.3,0.6-0.5c0-0.7-0.5-1.3-1.6-1.3c-1,0-1.5,0.6-1.6,1.5l-1.4-0.3 c0.2-1.4,1.4-2.3,3-2.3c2.2,0,3,1.2,3,2.6v3.6c0,0.6,0.1,1,0.1,1.2h-1.4c0-0.2-0.1-0.5-0.1-1c-0.3,0.5-1,1.2-2.3,1.2 c-1.5,0-2.4-1-2.4-2.2C623,108.9,624,108.1,625.2,108z M627.7,109v-0.3l-2.2,0.3c-0.6,0.1-1,0.4-1,1.1c0,0.5,0.4,1,1.2,1 C626.8,111.1,627.7,110.6,627.7,109z"/><path class="st9" d="M634,104.9h1.6v1.3H634v3.8c0,0.7,0.3,1,1,1c0.2,0,0.4,0,0.6-0.1v1.2c-0.1,0-0.5,0.1-1,0.1 c-1.2,0-2-0.8-2-2.1v-4h-1.4v-1.3h0.4c0.8,0,1.1-0.5,1.1-1.1v-1.2h1.3V104.9z"/><path class="st9" d="M638.8,101.1c0.6,0,1,0.4,1,1c0,0.6-0.4,1-1,1c-0.6,0-1-0.5-1-1C637.8,101.6,638.3,101.1,638.8,101.1z M638.1,112.1v-7.2h1.4v7.2H638.1z"/><path class="st9" d="M649.5,108.5c0,2.2-1.5,3.8-3.7,3.8s-3.7-1.6-3.7-3.8c0-2.2,1.5-3.8,3.7-3.8S649.5,106.3,649.5,108.5z M648,108.5c0-1.7-1.1-2.6-2.2-2.6s-2.2,0.9-2.2,2.6c0,1.7,1,2.6,2.2,2.6S648,110.1,648,108.5z"/><path class="st9" d="M653.4,112.1H652v-7.2h1.4v1c0.5-0.9,1.4-1.2,2.2-1.2c1.7,0,2.6,1.2,2.6,2.9v4.6h-1.4v-4.3 c0-1-0.4-1.8-1.7-1.8c-1.1,0-1.7,0.9-1.7,2V112.1z"/><path class="st9" d="M666,351.5h-4.7l-1.1,3h-1.6l4.2-10.6h1.7l4.2,10.6h-1.6L666,351.5z M661.9,350.2h3.7l-1.8-4.8L661.9,350.2z"/><path class="st9" d="M670.9,354.5v-10.9h1.4v10.9H670.9z"/><path class="st9" d="M675.5,354.5v-10.9h1.4v10.9H675.5z"/><path class="st9" d="M684.7,354.5v-10.6h3.7c2.7,0,5.1,1.8,5.1,5.3c0,3.5-2.4,5.3-5.1,5.3H684.7z M688.3,353.2c2,0,3.6-1.3,3.6-4 c0-2.7-1.6-4-3.6-4h-2.2v8H688.3z"/><path class="st9" d="M702.8,350.9c0,2.2-1.5,3.8-3.7,3.8s-3.7-1.6-3.7-3.8c0-2.2,1.5-3.8,3.7-3.8S702.8,348.7,702.8,350.9z M701.4,350.9c0-1.7-1.1-2.6-2.2-2.6s-2.2,0.9-2.2,2.6c0,1.7,1,2.6,2.2,2.6S701.4,352.6,701.4,350.9z"/><path class="st9" d="M706.8,354.5h-1.4v-7.2h1.4v1c0.5-0.9,1.4-1.2,2.2-1.2c1.7,0,2.6,1.2,2.6,2.9v4.6h-1.4v-4.3 c0-1-0.4-1.8-1.7-1.8c-1.1,0-1.7,0.9-1.7,2V354.5z"/><path class="st9" d="M720.9,352.5c-0.4,1.3-1.6,2.3-3.2,2.3c-1.9,0-3.6-1.4-3.6-3.9c0-2.3,1.6-3.8,3.4-3.8c2.2,0,3.5,1.5,3.5,3.8 c0,0.2,0,0.4,0,0.4h-5.4c0,1.3,1,2.2,2.2,2.2c1.2,0,1.8-0.6,2-1.5L720.9,352.5z M719.4,350.2c0-1-0.7-1.8-2-1.8 c-1.2,0-1.9,0.9-2,1.8H719.4z"/><path class="st9" d="M724.6,352.6c0.5,0,1,0.5,1,1s-0.4,1-1,1s-1-0.4-1-1S724,352.6,724.6,352.6z M725.1,351.5h-1l-0.4-7.6h1.8 L725.1,351.5z"/><path class="st11" d="M474.4 219.1L463.5 229.9 452.6 219.1"/><path class="st11" d="M626.4 219.1L615.5 229.9 604.6 219.1"/></svg>