<svg enable-background="new 0 0 800 294" viewBox="0 0 800 294" xmlns="http://www.w3.org/2000/svg"><path d="m525.7 172.3c0-2.2 1.8-4 4-4s4 1.8 4 4-1.8 4-4 4c-2.3 0-4-1.8-4-4zm-30 0c0-2.2 1.8-4 4-4s4 1.8 4 4-1.8 4-4 4c-2.3 0-4-1.8-4-4zm-30 0c0-2.2 1.8-4 4-4s4 1.8 4 4-1.8 4-4 4c-2.3 0-4-1.8-4-4zm90.1-.2c-.9-2 0-4.4 2-5.3s4.4 0 5.3 2 0 4.4-2 5.3c-.5.2-1.1.4-1.6.4-1.6 0-3.1-.9-3.7-2.4zm12.1-26.6c0-2.2 1.8-4 4-4s4 1.8 4 4-1.8 4-4 4-4-1.8-4-4zm0-30c0-2.2 1.8-4 4-4s4 1.8 4 4-1.8 4-4 4-4-1.8-4-4zm0-30c0-2.2 1.8-4 4-4s4 1.8 4 4-1.8 4-4 4-4-1.8-4-4z" fill="#404040"/><g stroke-miterlimit="10" stroke-width="4"><path d="m249.3 105.4h201.4v123h-201.4z" fill="#b18be8" stroke="#404040" stroke-linecap="round" stroke-linejoin="round"/><path d="m268.3 124.4h163.4v85h-163.4z" fill="#b3e3ff" stroke="#404040"/><path d="m460.6 284.9h-221.3l10-43.1h201.3z" fill="#b18be8" stroke="#404040" stroke-linecap="round" stroke-linejoin="round"/><path d="m322.1 146.9 10.9-.9.9 10.9m-3.8-8.1c-6.5 7.8-8.1 19-3.2 28.6s15 14.8 25.2 14m25.7-7.6-10.9.9-.8-10.9m3.7 8.1c6.5-7.8 8.1-19 3.2-28.6s-15-14.8-25.2-14" fill="none" stroke="#404040" stroke-linecap="round" stroke-linejoin="round"/><path d="m539.1 43.9c0-6.3 14.2-11.3 31.8-11.3s31.8 5.1 31.8 11.3m-63.6 0v14.1c0 1.5.9 3 2.4 4.3 4.8 4.1 16.2 7 29.5 7s24.7-2.9 29.5-7c1.5-1.3 2.4-2.8 2.4-4.3v-14.1" fill="#b3e3ff" stroke="#404040"/><path d="m602.7 43.9c0 6.3-14.2 11.3-31.8 11.3s-31.8-5.1-31.8-11.3c0-6.3 14.2-11.3 31.8-11.3s31.8 5 31.8 11.3z" fill="#fff" stroke="#59afe1"/><path d="m539.1 29.8c0-6.3 14.2-11.3 31.8-11.3s31.8 5.1 31.8 11.3m-63.6 0v14.1c0 1.5.9 3 2.4 4.3 4.8 4.1 16.2 7 29.5 7s24.7-2.9 29.5-7c1.5-1.3 2.4-2.8 2.4-4.3v-14.1" fill="#b3e3ff" stroke="#404040"/><path d="m602.7 29.8c0 6.3-14.2 11.3-31.8 11.3s-31.8-5.1-31.8-11.3c0-6.3 14.2-11.3 31.8-11.3s31.8 5 31.8 11.3z" fill="#fff" stroke="#59afe1"/><path d="m539.1 15.7c0-6.3 14.2-11.3 31.8-11.3s31.8 5.1 31.8 11.3m-63.6 0v14.1c0 1.5.9 3 2.4 4.3 4.8 4.1 16.2 7 29.5 7s24.7-2.9 29.5-7c1.5-1.3 2.4-2.8 2.4-4.3v-14.1" fill="#b3e3ff" stroke="#404040"/><path d="m602.7 15.7c0 6.3-14.2 11.3-31.8 11.3s-31.8-5.1-31.8-11.3c0-6.3 14.2-11.3 31.8-11.3s31.8 5 31.8 11.3z" fill="#fff" stroke="#404040"/></g><path d="m571.9 151.5c-3.3 0-6-2.7-6-6s2.7-6 6-6 6 2.7 6 6-2.7 6-6 6z" fill="#fff"/><path d="m571.9 141.5c2.2 0 4 1.8 4 4s-1.8 4-4 4-4-1.8-4-4 1.8-4 4-4m0-4c-4.4 0-8 3.6-8 8s3.6 8 8 8 8-3.6 8-8-3.6-8-8-8z" fill="#404040"/></svg>