<svg enable-background="new 0 0 800 370" viewBox="0 0 800 370" xmlns="http://www.w3.org/2000/svg"><g stroke="#404040" stroke-linejoin="round" stroke-miterlimit="10" stroke-width="4"><path d="m734.8 139.8h-41.3m41.3 82h-229.8m74.8-41c0 22.6-18.4 41-41 41h-143.8m184.8-41c0-22.6 18.4-41 41-41h30.7m-343.2 123c0 22.6-18.4 41-41 41h-202.1m243.1-41c0-22.6 18.4-41 41-41h30.7" fill="none" stroke-linecap="round"/><path d="m503.2 242.8h-38c-1.1 0-2-.9-2-2v-38c0-1.1.9-2 2-2h38c1.1 0 2 .9 2 2v38c0 1.1-.9 2-2 2zm188.3 0h-38c-1.1 0-2-.9-2-2v-38c0-1.1.9-2 2-2h38c1.1 0 2 .9 2 2v38c0 1.1-.9 2-2 2zm83.3 0h-38c-1.1 0-2-.9-2-2v-38c0-1.1.9-2 2-2h38c1.1 0 2 .9 2 2v38c0 1.1-.9 2-2 2zm-354.8 0h-38c-1.1 0-2-.9-2-2v-38c0-1.1.9-2 2-2h38c1.1 0 2 .9 2 2v38c0 1.1-.9 2-2 2zm354.8-82h-38c-1.1 0-2-.9-2-2v-38c0-1.1.9-2 2-2h38c1.1 0 2 .9 2 2v38c0 1.1-.9 2-2 2zm-83.3 0h-38c-1.1 0-2-.9-2-2v-38c0-1.1.9-2 2-2h38c1.1 0 2 .9 2 2v38c0 1.1-.9 2-2 2z" fill="#fff" stroke-linecap="round"/><circle cx="210.7" cy="303.8" fill="#59afe1" r="21"/><circle cx="127.5" cy="303.8" fill="#fff" r="21" stroke-linecap="round"/><circle cx="44.2" cy="303.8" fill="#fff" r="21" stroke-linecap="round"/><path d="m616.3 4.8h160.2v50h-160.2z" fill="#b18be8" stroke-linecap="round"/></g><path d="m641.8 25c2.7 0 5.3 2 5.3 5.5s-2.7 5.5-5.3 5.5c-2.7 0-5.3-2-5.3-5.5s2.7-5.5 5.3-5.5zm0 9.7c2 0 3.8-1.4 3.8-4.2s-1.9-4.2-3.8-4.2c-2 0-3.8 1.4-3.8 4.2s1.9 4.2 3.8 4.2zm12-4.6h-.6c-1.2 0-2 .6-2 2.2v3.6h-1.4v-7.2h1.4v1.3c.5-1.1 1.4-1.4 2.2-1.4h.5v1.5zm2.9-5.2c.6 0 1 .5 1 1 0 .6-.4 1-1 1s-1-.5-1-1c0-.6.5-1 1-1zm-.6 10.9v-7.2h1.4v7.2zm5.3.1c.1 1 .9 1.8 2 1.8 1.5 0 2.2-.8 2.2-2.3v-1c-.3.7-1.1 1.2-2.2 1.2-1.9 0-3.3-1.5-3.3-3.5s1.3-3.5 3.3-3.5c1.1 0 1.9.4 2.2 1.1v-1h1.4v6.7c0 1.8-.9 3.6-3.6 3.6-1.8 0-3.1-1.1-3.3-2.7zm4.3-3.9c0-1.4-.8-2.3-2.1-2.3-1.2 0-2.1.9-2.1 2.3s.8 2.3 2.1 2.3c1.2 0 2.1-.9 2.1-2.3zm5-7.1c.6 0 1 .5 1 1 0 .6-.4 1-1 1s-1-.5-1-1c0-.6.5-1 1-1zm-.7 10.9v-7.2h1.4v7.2zm6 0h-1.4v-7.2h1.4v1c.5-.9 1.4-1.2 2.2-1.2 1.7 0 2.6 1.2 2.6 2.8v4.6h-1.4v-4.3c0-1-.4-1.8-1.7-1.8-1.1 0-1.7.9-1.7 2zm12.4 0h-1.4l5.1-10.6h1.4zm11.8 0v-10.6h3.7c2.7 0 5.1 1.8 5.1 5.3s-2.4 5.3-5.1 5.3zm3.6-1.3c2 0 3.6-1.3 3.6-4s-1.6-4-3.6-4h-2.2v8zm14-.7c-.4 1.3-1.6 2.3-3.2 2.3-1.9 0-3.6-1.4-3.6-3.9 0-2.3 1.6-3.8 3.4-3.8 2.2 0 3.5 1.5 3.5 3.8v.5h-5.4c0 1.3 1 2.2 2.2 2.2s1.8-.6 2-1.5zm-1.4-2.3c0-1-.7-1.8-2-1.8-1.2 0-1.9.9-2 1.8zm7.2 4.3h-1.4l-2.9-7.2h1.6l2.1 5.6 2.1-5.6h1.5zm11-2c-.4 1.3-1.6 2.3-3.2 2.3-1.9 0-3.6-1.4-3.6-3.9 0-2.3 1.6-3.8 3.4-3.8 2.2 0 3.5 1.5 3.5 3.8v.5h-5.4c0 1.3 1 2.2 2.2 2.2s1.8-.6 2-1.5zm-1.4-2.3c0-1-.7-1.8-2-1.8-1.2 0-1.9.9-2 1.8zm4 4.3v-10.8h1.4v10.9h-1.4zm11.4-3.6c0 2.2-1.5 3.8-3.7 3.8s-3.7-1.6-3.7-3.8 1.5-3.8 3.7-3.8 3.7 1.6 3.7 3.8zm-1.5 0c0-1.7-1.1-2.6-2.2-2.6s-2.2.9-2.2 2.6 1.1 2.6 2.2 2.6 2.2-.9 2.2-2.6zm4 6.5v-10.1h1.4v1.1c.4-.7 1.2-1.3 2.4-1.3 2.2 0 3.3 1.7 3.3 3.8s-1.2 3.8-3.4 3.8c-1.1 0-1.9-.5-2.3-1.2v3.8h-1.4zm3.5-9c-1.3 0-2.1 1.1-2.1 2.5 0 1.5.9 2.5 2.1 2.5 1.3 0 2.1-1.1 2.1-2.5.1-1.4-.7-2.5-2.1-2.5z" fill="#404040"/><path d="m576.6 307.7h200.2v50h-200.2z" style="fill:#4ed1a1;stroke:#404040;stroke-width:4;stroke-linecap:round;stroke-linejoin:round;stroke-miterlimit:10"/><path d="m600.1 327.8c2.7 0 5.3 2 5.3 5.5 0 3.6-2.7 5.5-5.3 5.5-2.7 0-5.3-2-5.3-5.5s2.7-5.5 5.3-5.5zm0 9.8c2 0 3.8-1.4 3.8-4.2s-1.9-4.2-3.8-4.2c-2 0-3.8 1.4-3.8 4.2s1.8 4.2 3.8 4.2zm12-4.7h-.6c-1.2 0-2 .6-2 2.2v3.6h-1.4v-7.2h1.4v1.3c.5-1.1 1.4-1.4 2.2-1.4h.5v1.5zm2.9-5.2c.6 0 1 .4 1 1s-.4 1-1 1-1-.5-1-1 .5-1 1-1zm-.7 11v-7.2h1.4v7.2zm5.4.1c.1 1 .9 1.8 2 1.8 1.5 0 2.2-.8 2.2-2.3v-1c-.3.7-1.1 1.2-2.2 1.2-1.9 0-3.3-1.5-3.3-3.5 0-1.9 1.3-3.5 3.3-3.5 1.1 0 1.9.4 2.2 1.1v-1h1.4v6.7c0 1.8-.9 3.6-3.6 3.6-1.8 0-3.1-1.1-3.3-2.7zm4.3-4c0-1.4-.8-2.3-2.1-2.3-1.2 0-2.1.9-2.1 2.3s.8 2.3 2.1 2.3c1.2 0 2.1-.9 2.1-2.3zm5-7.1c.6 0 1 .4 1 1s-.4 1-1 1-1-.5-1-1 .4-1 1-1zm-.7 11v-7.2h1.4v7.2zm6 0h-1.4v-7.2h1.4v1c.5-.9 1.4-1.2 2.2-1.2 1.7 0 2.6 1.2 2.6 2.9v4.6h-1.4v-4.3c0-1-.4-1.8-1.7-1.8-1.1 0-1.7.9-1.7 2zm12.4 0h-1.4l5.1-10.6h1.4zm17.2-7.8c-.1-.8-.8-1.8-2.2-1.8-1.2 0-2.1.8-2.1 1.8 0 .8.5 1.4 1.4 1.5l1.6.3c1.8.4 2.8 1.5 2.8 3 0 1.6-1.4 3.1-3.7 3.1-2.6 0-3.8-1.6-4-3.2l1.4-.4c.1 1.2.9 2.3 2.5 2.3 1.5 0 2.2-.8 2.2-1.7 0-.8-.5-1.4-1.6-1.6l-1.5-.3c-1.5-.3-2.6-1.3-2.6-2.9 0-1.7 1.5-3.2 3.5-3.2 2.4 0 3.4 1.5 3.6 2.6zm10.7 4.2c0 2.2-1.5 3.8-3.7 3.8s-3.7-1.6-3.7-3.8 1.5-3.8 3.7-3.8 3.7 1.6 3.7 3.8zm-1.5 0c0-1.7-1.1-2.6-2.2-2.6s-2.2.9-2.2 2.6 1 2.6 2.2 2.6 2.2-1 2.2-2.6zm4 3.6v-7.2h1.3v1c.5-.8 1.4-1.2 2.2-1.2.9 0 1.8.4 2.2 1.4.6-1 1.5-1.4 2.4-1.4 1.3 0 2.5.9 2.5 2.7v4.7h-1.4v-4.5c0-.9-.5-1.6-1.5-1.6s-1.7.8-1.7 1.8v4.4h-1.4v-4.5c0-.9-.4-1.6-1.5-1.6-1 0-1.7.8-1.7 1.8v4.3h-1.4zm19.9-2.1c-.4 1.3-1.6 2.3-3.2 2.3-1.9 0-3.6-1.4-3.6-3.9 0-2.3 1.6-3.8 3.4-3.8 2.2 0 3.5 1.5 3.5 3.8v.4h-5.4c0 1.3 1 2.2 2.2 2.2s1.8-.6 2-1.5zm-1.4-2.3c0-1-.7-1.8-2-1.8-1.2 0-1.9.9-2 1.8zm8.7 4.4v-10.7h6.5v1.4h-5v3.4h4.5v1.4h-4.5v4.5zm14.6-2.1c-.4 1.3-1.6 2.3-3.2 2.3-1.9 0-3.6-1.4-3.6-3.9 0-2.3 1.6-3.8 3.4-3.8 2.2 0 3.5 1.5 3.5 3.8v.4h-5.4c0 1.3 1 2.2 2.2 2.2s1.8-.6 2-1.5zm-1.4-2.3c0-1-.7-1.8-2-1.8-1.2 0-1.9.9-2 1.8zm5.7.3 1.9-.3c.4-.1.6-.3.6-.5 0-.7-.5-1.3-1.6-1.3-1 0-1.5.6-1.6 1.5l-1.4-.3c.2-1.4 1.4-2.3 3-2.3 2.2 0 3 1.2 3 2.6v3.6c0 .6.1 1 .1 1.2h-1.4c0-.2-.1-.5-.1-1-.3.5-1 1.2-2.3 1.2-1.5 0-2.4-1-2.4-2.2 0-1.3 1-2.1 2.2-2.2zm2.5 1v-.3l-2.2.3c-.6.1-1.1.4-1.1 1.1 0 .5.4 1 1.2 1 1.2 0 2.1-.5 2.1-2.1zm6.3-4.1h1.6v1.3h-1.6v3.8c0 .7.3 1 1 1 .2 0 .4 0 .6-.1v1.2c-.1 0-.5.1-1 .1-1.2 0-2-.8-2-2.1v-4h-1.4v-1.3h.4c.8 0 1.1-.5 1.1-1.1v-1.2h1.3zm6.8 7.4c-1.7 0-2.7-1.3-2.7-2.9v-4.5h1.4v4.3c0 1 .4 1.9 1.6 1.9 1.1 0 1.7-.8 1.7-1.8v-4.4h1.4v5.9c0 .6 0 1.1.1 1.3h-1.3c0-.2-.1-.6-.1-.9-.4.8-1.3 1.1-2.1 1.1zm10.6-6h-.6c-1.2 0-2 .6-2 2.2v3.6h-1.4v-7.2h1.4v1.3c.5-1.1 1.4-1.4 2.2-1.4h.5v1.5zm8.5 3.7c-.4 1.3-1.6 2.3-3.2 2.3-1.9 0-3.6-1.4-3.6-3.9 0-2.3 1.6-3.8 3.4-3.8 2.2 0 3.5 1.5 3.5 3.8v.4h-5.4c0 1.3 1 2.2 2.2 2.2s1.8-.6 2-1.5zm-1.5-2.3c0-1-.7-1.8-2-1.8-1.2 0-1.9.9-2 1.8z" fill="#404040"/><path d="m130.6 166.3h160.2v50h-160.2z" fill="#b3e3ff" stroke="#404040" stroke-linejoin="round" stroke-miterlimit="10" stroke-width="4"/><path d="m160.5 186.5c2.7 0 5.3 2 5.3 5.5s-2.7 5.5-5.3 5.5c-2.7 0-5.3-2-5.3-5.5s2.6-5.5 5.3-5.5zm0 9.7c2 0 3.8-1.4 3.8-4.2s-1.9-4.2-3.8-4.2c-2 0-3.8 1.4-3.8 4.2-.1 2.8 1.8 4.2 3.8 4.2zm11.9-4.6h-.6c-1.2 0-2 .6-2 2.2v3.6h-1.4v-7.2h1.4v1.3c.5-1.1 1.4-1.4 2.2-1.4h.5v1.5zm3-5.2c.6 0 1 .5 1 1 0 .6-.4 1-1 1s-1-.5-1-1c0-.6.4-1 1-1zm-.7 10.9v-7.2h1.4v7.2zm5.4.1c.1 1 .9 1.8 2 1.8 1.5 0 2.2-.8 2.2-2.3v-1c-.3.7-1.1 1.2-2.2 1.2-1.9 0-3.3-1.5-3.3-3.5s1.3-3.5 3.3-3.5c1.1 0 1.9.4 2.2 1.1v-1h1.4v6.7c0 1.8-.9 3.6-3.6 3.6-1.8 0-3.1-1.1-3.3-2.7zm4.2-3.9c0-1.4-.8-2.3-2.1-2.3-1.2 0-2.1.9-2.1 2.3s.8 2.3 2.1 2.3 2.1-.9 2.1-2.3zm5-7.1c.6 0 1 .5 1 1 0 .6-.4 1-1 1s-1-.5-1-1c0-.6.5-1 1-1zm-.7 10.9v-7.2h1.4v7.2zm6 0h-1.4v-7.2h1.4v1c.5-.9 1.4-1.2 2.2-1.2 1.7 0 2.6 1.2 2.6 2.8v4.6h-1.4v-4.3c0-1-.4-1.8-1.7-1.8-1.1 0-1.7.9-1.7 2zm12.4 0h-1.4l5.1-10.6h1.4zm21.8 0v-8.3l-3.6 8.3h-1.3l-3.6-8.3v8.3h-1.5v-10.6h2l3.7 8.7 3.8-8.7h2v10.6zm6.4-4.1 1.9-.3c.4-.1.6-.3.6-.5 0-.7-.5-1.3-1.6-1.3-1 0-1.5.6-1.6 1.5l-1.4-.3c.2-1.4 1.4-2.3 3-2.3 2.2 0 3 1.2 3 2.6v3.6c0 .6.1 1 .1 1.2h-1.4c0-.2-.1-.5-.1-1-.3.5-1 1.2-2.3 1.2-1.5 0-2.4-1-2.4-2.2 0-1.3 1-2 2.2-2.2zm2.5 1.1v-.3l-2.2.3c-.6.1-1.1.4-1.1 1.1 0 .5.4 1 1.2 1 1.2 0 2.1-.6 2.1-2.1zm5 .7c.1.8.7 1.3 1.7 1.3.8 0 1.2-.4 1.2-1 0-.4-.3-.8-.9-.9l-1.2-.3c-1.1-.2-1.8-1-1.8-2 0-1.2 1.2-2.3 2.6-2.3 2 0 2.6 1.3 2.7 1.9l-1.2.5c-.1-.4-.4-1.2-1.5-1.2-.7 0-1.2.5-1.2 1 0 .4.3.8.8.9l1.2.3c1.3.3 2 1.1 2 2.1s-.9 2.2-2.6 2.2c-2 0-2.8-1.3-2.9-2.1zm8.8-4.9h1.6v1.3h-1.6v3.8c0 .7.3 1 1 1 .2 0 .4 0 .6-.1v1.2c-.1 0-.5.1-1 .1-1.2 0-2-.8-2-2.1v-4h-1.4v-1.3h.4c.8 0 1.1-.5 1.1-1.1v-1.2h1.3zm10.4 5.2c-.4 1.3-1.6 2.3-3.2 2.3-1.9 0-3.6-1.4-3.6-3.9 0-2.3 1.6-3.8 3.4-3.8 2.2 0 3.5 1.5 3.5 3.8v.5h-5.4c0 1.3 1 2.2 2.2 2.2s1.8-.6 2-1.5zm-1.4-2.3c0-1-.7-1.8-2-1.8-1.2 0-1.9.9-2 1.8zm8-1.4h-.6c-1.2 0-2 .6-2 2.2v3.6h-1.4v-7.2h1.4v1.3c.5-1.1 1.4-1.4 2.2-1.4h.5v1.5z" fill="#404040"/><path d="m210.7 259.5v-23.5m10.9 14.8-10.9 10.9-10.9-10.9" style="fill:none;stroke:#404040;stroke-width:4;stroke-linecap:round;stroke-linejoin:round;stroke-miterlimit:10"/><path d="m404.1 86h160.2v50h-160.2z" fill="#b3e3ff" stroke="#404040" stroke-linejoin="round" stroke-miterlimit="10" stroke-width="4"/><path d="m434 106.2c2.7 0 5.3 2 5.3 5.5s-2.7 5.5-5.3 5.5c-2.7 0-5.3-2-5.3-5.5s2.6-5.5 5.3-5.5zm0 9.7c2 0 3.8-1.4 3.8-4.2s-1.9-4.2-3.8-4.2c-2 0-3.8 1.4-3.8 4.2s1.8 4.2 3.8 4.2zm12-4.7h-.6c-1.2 0-2 .6-2 2.2v3.6h-1.4v-7.2h1.4v1.3c.5-1.1 1.4-1.4 2.2-1.4h.5v1.5zm2.9-5.1c.6 0 1 .5 1 1 0 .6-.4 1-1 1s-1-.5-1-1c0-.6.4-1 1-1zm-.7 10.9v-7.2h1.4v7.2zm5.4.1c.1 1 .9 1.8 2 1.8 1.5 0 2.2-.8 2.2-2.3v-1c-.3.7-1.1 1.2-2.2 1.2-1.9 0-3.3-1.5-3.3-3.5s1.3-3.5 3.3-3.5c1.1 0 1.9.4 2.2 1.1v-1h1.4v6.7c0 1.8-.9 3.6-3.6 3.6-1.8 0-3.1-1.1-3.3-2.7zm4.2-3.9c0-1.4-.8-2.3-2.1-2.3-1.2 0-2.1.9-2.1 2.3s.8 2.3 2.1 2.3 2.1-.9 2.1-2.3zm5.1-7.1c.6 0 1 .5 1 1 0 .6-.4 1-1 1s-1-.5-1-1c0-.6.4-1 1-1zm-.7 10.9v-7.2h1.4v7.2zm5.9 0h-1.4v-7.2h1.4v1c.5-.9 1.4-1.2 2.2-1.2 1.7 0 2.6 1.2 2.6 2.8v4.6h-1.4v-4.3c0-1-.4-1.8-1.7-1.8-1.1 0-1.7.9-1.7 2zm12.5 0h-1.4l5.1-10.6h1.4zm21.7 0v-8.3l-3.6 8.3h-1.3l-3.6-8.3v8.3h-1.5v-10.6h2l3.7 8.7 3.8-8.7h2v10.6zm6.5-4.1 1.9-.3c.4-.1.6-.3.6-.5 0-.7-.5-1.3-1.6-1.3-1 0-1.5.6-1.6 1.5l-1.4-.3c.2-1.4 1.4-2.3 3-2.3 2.2 0 3 1.2 3 2.6v3.6c0 .6.1 1 .1 1.2h-1.4c0-.2-.1-.5-.1-1-.3.5-1 1.2-2.3 1.2-1.5 0-2.4-1-2.4-2.2 0-1.3.9-2 2.2-2.2zm2.5 1v-.3l-2.2.3c-.6.1-1.1.4-1.1 1.1 0 .5.4 1 1.2 1 1.1.1 2.1-.5 2.1-2.1zm4.9.8c.1.8.7 1.3 1.7 1.3.8 0 1.2-.4 1.2-1 0-.4-.3-.8-.9-.9l-1.2-.3c-1.1-.2-1.8-1-1.8-2 0-1.2 1.2-2.3 2.6-2.3 2 0 2.6 1.3 2.7 1.9l-1.2.5c-.1-.4-.4-1.2-1.5-1.2-.7 0-1.2.5-1.2 1 0 .4.3.8.8.9l1.2.3c1.3.3 2 1.1 2 2.1s-.9 2.2-2.6 2.2c-2 0-2.8-1.3-2.9-2.1zm8.8-4.9h1.6v1.3h-1.6v3.8c0 .7.3 1 1 1 .2 0 .4 0 .6-.1v1.2c-.1 0-.5.1-1 .1-1.2 0-2-.8-2-2.1v-4h-1.4v-1.3h.4c.8 0 1.1-.5 1.1-1.1v-1.2h1.3zm10.4 5.2c-.4 1.3-1.6 2.3-3.2 2.3-1.9 0-3.6-1.4-3.6-3.9 0-2.3 1.6-3.8 3.4-3.8 2.2 0 3.5 1.5 3.5 3.8v.5h-5.5c0 1.3 1 2.2 2.2 2.2s1.8-.6 2-1.5zm-1.4-2.3c0-1-.7-1.8-2-1.8-1.2 0-1.9.9-2 1.8zm8-1.5h-.6c-1.2 0-2 .6-2 2.2v3.6h-1.4v-7.2h1.4v1.3c.5-1.1 1.4-1.4 2.2-1.4h.5v1.5z" fill="#404040"/><path d="m484.2 179.2v-23.5m10.9 14.8-10.9 10.8-10.8-10.8m282.4 93.3v23.5m-10.9-14.8 10.9-10.8 10.8 10.8m-10.8-174.3v-23.5m10.8 14.8-10.8 10.9-10.9-10.9" style="fill:none;stroke:#404040;stroke-width:4;stroke-linecap:round;stroke-linejoin:round;stroke-miterlimit:10"/></svg>